<svg width="116" height="44" viewBox="0 0 116 44" fill="none" xmlns="http://www.w3.org/2000/svg">
<path d="M3.81422 40.0235V37.2941V34.5647H6.53652H9.27304V37.2941V40.0235H6.53652H3.81422ZM7.22598 40.0235V37.2941V34.5647H9.94829H12.6848V37.2941V40.0235H9.94829H7.22598ZM10.6377 40.0235V37.2941V34.5647H13.36H16.0966V37.2941V40.0235H13.36H10.6377ZM0.402451 36.6118V33.8824V31.1529H3.12476H5.86127V33.8824V36.6118H3.12476H0.402451ZM14.0495 36.6118V33.8824V31.1529H16.7718H19.5083V33.8824V36.6118H16.7718H14.0495ZM0.402451 33.2V30.4706V27.7412H3.12476H5.86127V30.4706V33.2H3.12476H0.402451ZM14.0495 33.2V30.4706V27.7412H16.7718H19.5083V30.4706V33.2H16.7718H14.0495ZM14.0495 29.7882V27.0588V24.3294H16.7718H19.5083V27.0588V29.7882H16.7718H14.0495ZM14.0495 26.3765V23.6471V20.9176H16.7718H19.5083V23.6471V26.3765H16.7718H14.0495ZM3.81422 22.9647V20.2353V17.5059H6.53652H9.27304V20.2353V22.9647H6.53652H3.81422ZM7.22598 22.9647V20.2353V17.5059H9.94829H12.6848V20.2353V22.9647H9.94829H7.22598ZM10.6377 22.9647V20.2353V17.5059H13.36H16.0966V20.2353V22.9647H13.36H10.6377ZM14.0495 22.9647V20.2353V17.5059H16.7718H19.5083V20.2353V22.9647H16.7718H14.0495ZM0.402451 19.5529V16.8235V14.0941H3.12476H5.86127V16.8235V19.5529H3.12476H0.402451ZM14.0495 19.5529V16.8235V14.0941H16.7718H19.5083V16.8235V19.5529H16.7718H14.0495ZM0.402451 16.1412V13.4118V10.6824H3.12476H5.86127V13.4118V16.1412H3.12476H0.402451ZM14.0495 16.1412V13.4118V10.6824H16.7718H19.5083V13.4118V16.1412H16.7718H14.0495ZM0.402451 12.7294V10V7.27058H3.12476H5.86127V10V12.7294H3.12476H0.402451ZM14.0495 12.7294V10V7.27058H16.7718H19.5083V10V12.7294H16.7718H14.0495ZM0.402451 9.31764V6.58823V3.85882H3.12476H5.86127V6.58823V9.31764H3.12476H0.402451ZM14.0495 9.31764V6.58823V3.85882H16.7718H19.5083V6.58823V9.31764H16.7718H14.0495ZM3.81422 5.90588V3.17647V0.447056H6.53652H9.27304V3.17647V5.90588H6.53652H3.81422ZM7.22598 5.90588V3.17647V0.447056H9.94829H12.6848V3.17647V5.90588H9.94829H7.22598ZM10.6377 5.90588V3.17647V0.447056H13.36H16.0966V3.17647V5.90588H13.36H10.6377ZM27.7166 40.0235V37.2941V34.5647H30.4389H33.1754V37.2941V40.0235H30.4389H27.7166ZM31.1283 40.0235V37.2941V34.5647H33.8506H36.5871V37.2941V40.0235H33.8506H31.1283ZM34.5401 40.0235V37.2941V34.5647H37.2624H39.9989V37.2941V40.0235H37.2624H34.5401ZM24.3048 36.6118V33.8824V31.1529H27.0271H29.7636V33.8824V36.6118H27.0271H24.3048ZM37.9519 36.6118V33.8824V31.1529H40.6742H43.4107V33.8824V36.6118H40.6742H37.9519ZM24.3048 33.2V30.4706V27.7412H27.0271H29.7636V30.4706V33.2H27.0271H24.3048ZM37.9519 33.2V30.4706V27.7412H40.6742H43.4107V30.4706V33.2H40.6742H37.9519ZM24.3048 29.7882V27.0588V24.3294H27.0271H29.7636V27.0588V29.7882H27.0271H24.3048ZM37.9519 29.7882V27.0588V24.3294H40.6742H43.4107V27.0588V29.7882H40.6742H37.9519ZM24.3048 26.3765V23.6471V20.9176H27.0271H29.7636V23.6471V26.3765H27.0271H24.3048ZM37.9519 26.3765V23.6471V20.9176H40.6742H43.4107V23.6471V26.3765H40.6742H37.9519ZM27.7166 22.9647V20.2353V17.5059H30.4389H33.1754V20.2353V22.9647H30.4389H27.7166ZM31.1283 22.9647V20.2353V17.5059H33.8506H36.5871V20.2353V22.9647H33.8506H31.1283ZM34.5401 22.9647V20.2353V17.5059H37.2624H39.9989V20.2353V22.9647H37.2624H34.5401ZM24.3048 19.5529V16.8235V14.0941H27.0271H29.7636V16.8235V19.5529H27.0271H24.3048ZM37.9519 19.5529V16.8235V14.0941H40.6742H43.4107V16.8235V19.5529H40.6742H37.9519ZM24.3048 16.1412V13.4118V10.6824H27.0271H29.7636V13.4118V16.1412H27.0271H24.3048ZM37.9519 16.1412V13.4118V10.6824H40.6742H43.4107V13.4118V16.1412H40.6742H37.9519ZM24.3048 12.7294V10V7.27058H27.0271H29.7636V10V12.7294H27.0271H24.3048ZM37.9519 12.7294V10V7.27058H40.6742H43.4107V10V12.7294H40.6742H37.9519ZM24.3048 9.31764V6.58823V3.85882H27.0271H29.7636V6.58823V9.31764H27.0271H24.3048ZM37.9519 9.31764V6.58823V3.85882H40.6742H43.4107V6.58823V9.31764H40.6742H37.9519ZM27.7166 5.90588V3.17647V0.447056H30.4389H33.1754V3.17647V5.90588H30.4389H27.7166ZM31.1283 5.90588V3.17647V0.447056H33.8506H36.5871V3.17647V5.90588H33.8506H31.1283ZM34.5401 5.90588V3.17647V0.447056H37.2624H39.9989V3.17647V5.90588H37.2624H34.5401ZM46.5013 43.4353V40.7059V37.9765H49.2236H51.9601V40.7059V43.4353H49.2236H46.5013ZM48.2071 40.0235V37.2941V34.5647H50.9294H53.666V37.2941V40.0235H50.9294H48.2071ZM48.2071 36.6118V33.8824V31.1529H50.9294H53.666V33.8824V36.6118H50.9294H48.2071ZM48.2071 33.2V30.4706V27.7412H50.9294H53.666V30.4706V33.2H50.9294H48.2071ZM61.8709 40.0235V37.2941V34.5647H64.5932H67.3297V37.2941V40.0235H64.5932H61.8709ZM65.2826 40.0235V37.2941V34.5647H68.0049H70.7414V37.2941V40.0235H68.0049H65.2826ZM68.6944 40.0235V37.2941V34.5647H71.4167H74.1532V37.2941V40.0235H71.4167H68.6944ZM58.4591 36.6118V33.8824V31.1529H61.1814H63.9179V33.8824V36.6118H61.1814H58.4591ZM72.1062 36.6118V33.8824V31.1529H74.8285H77.565V33.8824V36.6118H74.8285H72.1062ZM58.4591 33.2V30.4706V27.7412H61.1814H63.9179V30.4706V33.2H61.1814H58.4591ZM72.1062 33.2V30.4706V27.7412H74.8285H77.565V30.4706V33.2H74.8285H72.1062ZM72.1062 29.7882V27.0588V24.3294H74.8285H77.565V27.0588V29.7882H74.8285H72.1062ZM72.1062 26.3765V23.6471V20.9176H74.8285H77.565V23.6471V26.3765H74.8285H72.1062ZM61.8709 22.9647V20.2353V17.5059H64.5932H67.3297V20.2353V22.9647H64.5932H61.8709ZM65.2826 22.9647V20.2353V17.5059H68.0049H70.7414V20.2353V22.9647H68.0049H65.2826ZM68.6944 22.9647V20.2353V17.5059H71.4167H74.1532V20.2353V22.9647H71.4167H68.6944ZM72.1062 19.5529V16.8235V14.0941H74.8285H77.565V16.8235V19.5529H74.8285H72.1062ZM72.1062 16.1412V13.4118V10.6824H74.8285H77.565V13.4118V16.1412H74.8285H72.1062ZM58.4591 12.7294V10V7.27058H61.1814H63.9179V10V12.7294H61.1814H58.4591ZM72.1062 12.7294V10V7.27058H74.8285H77.565V10V12.7294H74.8285H72.1062ZM58.4591 9.31764V6.58823V3.85882H61.1814H63.9179V6.58823V9.31764H61.1814H58.4591ZM72.1062 9.31764V6.58823V3.85882H74.8285H77.565V6.58823V9.31764H74.8285H72.1062ZM61.8709 5.90588V3.17647V0.447056H64.5932H67.3297V3.17647V5.90588H64.5932H61.8709ZM65.2826 5.90588V3.17647V0.447056H68.0049H70.7414V3.17647V5.90588H68.0049H65.2826ZM68.6944 5.90588V3.17647V0.447056H71.4167H74.1532V3.17647V5.90588H71.4167H68.6944ZM85.7732 19.5529V16.8235V14.0941H88.4955H91.232V16.8235V19.5529H88.4955H85.7732ZM82.3614 17.8471V15.1176V12.3882H85.0837H87.8203V15.1176V17.8471H85.0837H82.3614ZM89.185 17.8471V15.1176V12.3882H91.9073H94.6438V15.1176V17.8471H91.9073H89.185ZM82.3614 14.4353V11.7059V8.97647H85.0837H87.8203V11.7059V14.4353H85.0837H82.3614ZM89.185 14.4353V11.7059V8.97647H91.9073H94.6438V11.7059V14.4353H91.9073H89.185ZM82.3614 11.0235V8.29412V5.5647H85.0837H87.8203V8.29412V11.0235H85.0837H82.3614ZM89.185 11.0235V8.29412V5.5647H91.9073H94.6438V8.29412V11.0235H91.9073H89.185ZM85.7732 9.31764V6.58823V3.85882H88.4955H91.232V6.58823V9.31764H88.4955H85.7732ZM87.4791 40.0235V37.2941V34.5647H90.2014H92.9379V37.2941V40.0235H90.2014H87.4791ZM89.185 36.6118V33.8824V31.1529H91.9073H94.6438V33.8824V36.6118H91.9073H89.185ZM90.8908 33.2V30.4706V27.7412H93.6132H96.3497V30.4706V33.2H93.6132H90.8908ZM92.5967 29.7882V27.0588V24.3294H95.319H98.0556V27.0588V29.7882H95.319H92.5967ZM94.3026 26.3765V23.6471V20.9176H97.0249H99.7614V23.6471V26.3765H97.0249H94.3026ZM96.0085 22.9647V20.2353V17.5059H98.7308H101.467V20.2353V22.9647H98.7308H96.0085ZM97.7144 19.5529V16.8235V14.0941H100.437H103.173V16.8235V19.5529H100.437H97.7144ZM99.4203 16.1412V13.4118V10.6824H102.143H104.879V13.4118V16.1412H102.143H99.4203ZM101.126 12.7294V10V7.27058H103.848H106.585V10V12.7294H103.848H101.126ZM102.832 9.31764V6.58823V3.85882H105.554H108.291V6.58823V9.31764H105.554H102.832ZM104.538 5.90588V3.17647V0.447056H107.26H109.997V3.17647V5.90588H107.26H104.538ZM106.244 36.6118V33.8824V31.1529H108.966H111.703V33.8824V36.6118H108.966H106.244ZM102.832 34.9059V32.1765V29.4471H105.554H108.291V32.1765V34.9059H105.554H102.832ZM109.656 34.9059V32.1765V29.4471H112.378H115.114V32.1765V34.9059H112.378H109.656ZM102.832 31.4941V28.7647V26.0353H105.554H108.291V28.7647V31.4941H105.554H102.832ZM109.656 31.4941V28.7647V26.0353H112.378H115.114V28.7647V31.4941H112.378H109.656ZM102.832 28.0824V25.3529V22.6235H105.554H108.291V25.3529V28.0824H105.554H102.832ZM109.656 28.0824V25.3529V22.6235H112.378H115.114V25.3529V28.0824H112.378H109.656ZM106.244 26.3765V23.6471V20.9176H108.966H111.703V23.6471V26.3765H108.966H106.244Z" fill="#AA80F1"/>
</svg>
