<svg width="20" height="41" viewBox="0 0 20 41" fill="none" xmlns="http://www.w3.org/2000/svg">
<path d="M3.81422 40.0235V37.2941V34.5647H6.53652H9.27304V37.2941V40.0235H6.53652H3.81422ZM7.22598 40.0235V37.2941V34.5647H9.94829H12.6848V37.2941V40.0235H9.94829H7.22598ZM10.6377 40.0235V37.2941V34.5647H13.36H16.0966V37.2941V40.0235H13.36H10.6377ZM0.402451 36.6118V33.8824V31.1529H3.12476H5.86127V33.8824V36.6118H3.12476H0.402451ZM14.0495 36.6118V33.8824V31.1529H16.7718H19.5083V33.8824V36.6118H16.7718H14.0495ZM0.402451 33.2V30.4706V27.7412H3.12476H5.86127V30.4706V33.2H3.12476H0.402451ZM14.0495 33.2V30.4706V27.7412H16.7718H19.5083V30.4706V33.2H16.7718H14.0495ZM0.402451 29.7882V27.0588V24.3294H3.12476H5.86127V27.0588V29.7882H3.12476H0.402451ZM14.0495 29.7882V27.0588V24.3294H16.7718H19.5083V27.0588V29.7882H16.7718H14.0495ZM0.402451 26.3765V23.6471V20.9176H3.12476H5.86127V23.6471V26.3765H3.12476H0.402451ZM14.0495 26.3765V23.6471V20.9176H16.7718H19.5083V23.6471V26.3765H16.7718H14.0495ZM0.402451 22.9647V20.2353V17.5059H3.12476H5.86127V20.2353V22.9647H3.12476H0.402451ZM3.81422 22.9647V20.2353V17.5059H6.53652H9.27304V20.2353V22.9647H6.53652H3.81422ZM7.22598 22.9647V20.2353V17.5059H9.94829H12.6848V20.2353V22.9647H9.94829H7.22598ZM10.6377 22.9647V20.2353V17.5059H13.36H16.0966V20.2353V22.9647H13.36H10.6377ZM0.402451 19.5529V16.8235V14.0941H3.12476H5.86127V16.8235V19.5529H3.12476H0.402451ZM0.402451 16.1412V13.4118V10.6824H3.12476H5.86127V13.4118V16.1412H3.12476H0.402451ZM0.402451 12.7294V10V7.27058H3.12476H5.86127V10V12.7294H3.12476H0.402451ZM14.0495 12.7294V10V7.27058H16.7718H19.5083V10V12.7294H16.7718H14.0495ZM0.402451 9.31764V6.58823V3.85882H3.12476H5.86127V6.58823V9.31764H3.12476H0.402451ZM14.0495 9.31764V6.58823V3.85882H16.7718H19.5083V6.58823V9.31764H16.7718H14.0495ZM3.81422 5.90588V3.17647V0.447056H6.53652H9.27304V3.17647V5.90588H6.53652H3.81422ZM7.22598 5.90588V3.17647V0.447056H9.94829H12.6848V3.17647V5.90588H9.94829H7.22598ZM10.6377 5.90588V3.17647V0.447056H13.36H16.0966V3.17647V5.90588H13.36H10.6377Z" fill="#AA80F1"/>
</svg>
