<svg width="68" height="41" viewBox="0 0 68 41" fill="none" xmlns="http://www.w3.org/2000/svg">
<path d="M3.81422 40.0235V37.2941V34.5647H6.53652H9.27304V37.2941V40.0235H6.53652H3.81422ZM7.22598 40.0235V37.2941V34.5647H9.94829H12.6848V37.2941V40.0235H9.94829H7.22598ZM10.6377 40.0235V37.2941V34.5647H13.36H16.0966V37.2941V40.0235H13.36H10.6377ZM0.402451 36.6118V33.8824V31.1529H3.12476H5.86127V33.8824V36.6118H3.12476H0.402451ZM14.0495 36.6118V33.8824V31.1529H16.7718H19.5083V33.8824V36.6118H16.7718H14.0495ZM0.402451 33.2V30.4706V27.7412H3.12476H5.86127V30.4706V33.2H3.12476H0.402451ZM14.0495 33.2V30.4706V27.7412H16.7718H19.5083V30.4706V33.2H16.7718H14.0495ZM14.0495 29.7882V27.0588V24.3294H16.7718H19.5083V27.0588V29.7882H16.7718H14.0495ZM14.0495 26.3765V23.6471V20.9176H16.7718H19.5083V23.6471V26.3765H16.7718H14.0495ZM3.81422 22.9647V20.2353V17.5059H6.53652H9.27304V20.2353V22.9647H6.53652H3.81422ZM7.22598 22.9647V20.2353V17.5059H9.94829H12.6848V20.2353V22.9647H9.94829H7.22598ZM10.6377 22.9647V20.2353V17.5059H13.36H16.0966V20.2353V22.9647H13.36H10.6377ZM14.0495 22.9647V20.2353V17.5059H16.7718H19.5083V20.2353V22.9647H16.7718H14.0495ZM0.402451 19.5529V16.8235V14.0941H3.12476H5.86127V16.8235V19.5529H3.12476H0.402451ZM14.0495 19.5529V16.8235V14.0941H16.7718H19.5083V16.8235V19.5529H16.7718H14.0495ZM0.402451 16.1412V13.4118V10.6824H3.12476H5.86127V13.4118V16.1412H3.12476H0.402451ZM14.0495 16.1412V13.4118V10.6824H16.7718H19.5083V13.4118V16.1412H16.7718H14.0495ZM0.402451 12.7294V10V7.27058H3.12476H5.86127V10V12.7294H3.12476H0.402451ZM14.0495 12.7294V10V7.27058H16.7718H19.5083V10V12.7294H16.7718H14.0495ZM0.402451 9.31764V6.58823V3.85882H3.12476H5.86127V6.58823V9.31764H3.12476H0.402451ZM14.0495 9.31764V6.58823V3.85882H16.7718H19.5083V6.58823V9.31764H16.7718H14.0495ZM3.81422 5.90588V3.17647V0.447056H6.53652H9.27304V3.17647V5.90588H6.53652H3.81422ZM7.22598 5.90588V3.17647V0.447056H9.94829H12.6848V3.17647V5.90588H9.94829H7.22598ZM10.6377 5.90588V3.17647V0.447056H13.36H16.0966V3.17647V5.90588H13.36H10.6377ZM32.8342 40.0235V37.2941V34.5647H35.5565H38.293V37.2941V40.0235H35.5565H32.8342ZM32.8342 36.6118V33.8824V31.1529H35.5565H38.293V33.8824V36.6118H35.5565H32.8342ZM22.5989 33.2V30.4706V27.7412H25.3212H28.0577V30.4706V33.2H25.3212H22.5989ZM26.0107 33.2V30.4706V27.7412H28.733H31.4695V30.4706V33.2H28.733H26.0107ZM29.4224 33.2V30.4706V27.7412H32.1447H34.8813V30.4706V33.2H32.1447H29.4224ZM32.8342 33.2V30.4706V27.7412H35.5565H38.293V30.4706V33.2H35.5565H32.8342ZM36.246 33.2V30.4706V27.7412H38.9683H41.7048V30.4706V33.2H38.9683H36.246ZM39.6577 33.2V30.4706V27.7412H42.38H45.1166V30.4706V33.2H42.38H39.6577ZM22.5989 29.7882V27.0588V24.3294H25.3212H28.0577V27.0588V29.7882H25.3212H22.5989ZM32.8342 29.7882V27.0588V24.3294H35.5565H38.293V27.0588V29.7882H35.5565H32.8342ZM22.5989 26.3765V23.6471V20.9176H25.3212H28.0577V23.6471V26.3765H25.3212H22.5989ZM32.8342 26.3765V23.6471V20.9176H35.5565H38.293V23.6471V26.3765H35.5565H32.8342ZM24.3048 22.9647V20.2353V17.5059H27.0271H29.7636V20.2353V22.9647H27.0271H24.3048ZM26.0107 19.5529V16.8235V14.0941H28.733H31.4695V16.8235V19.5529H28.733H26.0107ZM27.7166 16.1412V13.4118V10.6824H30.4389H33.1754V13.4118V16.1412H30.4389H27.7166ZM29.4224 12.7294V10V7.27058H32.1447H34.8813V10V12.7294H32.1447H29.4224ZM31.1283 9.31764V6.58823V3.85882H33.8506H36.5871V6.58823V9.31764H33.8506H31.1283ZM32.8342 5.90588V3.17647V0.447056H35.5565H38.293V3.17647V5.90588H35.5565H32.8342ZM48.2071 40.0235V37.2941V34.5647H50.9294H53.666V37.2941V40.0235H50.9294H48.2071ZM51.6189 40.0235V37.2941V34.5647H54.3412H57.0777V37.2941V40.0235H54.3412H51.6189ZM55.0307 40.0235V37.2941V34.5647H57.753H60.4895V37.2941V40.0235H57.753H55.0307ZM58.4424 40.0235V37.2941V34.5647H61.1647H63.9013V37.2941V40.0235H61.1647H58.4424ZM61.8542 40.0235V37.2941V34.5647H64.5765H67.313V37.2941V40.0235H64.5765H61.8542ZM51.6189 36.6118V33.8824V31.1529H54.3412H57.0777V33.8824V36.6118H54.3412H51.6189ZM53.3248 33.2V30.4706V27.7412H56.0471H58.7836V30.4706V33.2H56.0471H53.3248ZM55.0307 29.7882V27.0588V24.3294H57.753H60.4895V27.0588V29.7882H57.753H55.0307ZM56.7366 26.3765V23.6471V20.9176H59.4589H62.1954V23.6471V26.3765H59.4589H56.7366ZM58.4424 22.9647V20.2353V17.5059H61.1647H63.9013V20.2353V22.9647H61.1647H58.4424ZM60.1483 19.5529V16.8235V14.0941H62.8706H65.6071V16.8235V19.5529H62.8706H60.1483ZM48.2071 16.1412V13.4118V10.6824H50.9294H53.666V13.4118V16.1412H50.9294H48.2071ZM61.8542 16.1412V13.4118V10.6824H64.5765H67.313V13.4118V16.1412H64.5765H61.8542ZM48.2071 12.7294V10V7.27058H50.9294H53.666V10V12.7294H50.9294H48.2071ZM61.8542 12.7294V10V7.27058H64.5765H67.313V10V12.7294H64.5765H61.8542ZM48.2071 9.31764V6.58823V3.85882H50.9294H53.666V6.58823V9.31764H50.9294H48.2071ZM61.8542 9.31764V6.58823V3.85882H64.5765H67.313V6.58823V9.31764H64.5765H61.8542ZM51.6189 5.90588V3.17647V0.447056H54.3412H57.0777V3.17647V5.90588H54.3412H51.6189ZM55.0307 5.90588V3.17647V0.447056H57.753H60.4895V3.17647V5.90588H57.753H55.0307ZM58.4424 5.90588V3.17647V0.447056H61.1647H63.9013V3.17647V5.90588H61.1647H58.4424Z" fill="#AA80F1"/>
</svg>
