<svg width="46" height="41" viewBox="0 0 46 41" fill="none" xmlns="http://www.w3.org/2000/svg">
<path d="M10.9319 40.0235V37.2941V34.5647H13.6542H16.3907V37.2941V40.0235H13.6542H10.9319ZM10.9319 36.6118V33.8824V31.1529H13.6542H16.3907V33.8824V36.6118H13.6542H10.9319ZM0.696569 33.2V30.4706V27.7412H3.41887H6.15539V30.4706V33.2H3.41887H0.696569ZM4.10833 33.2V30.4706V27.7412H6.83064H9.56716V30.4706V33.2H6.83064H4.10833ZM7.5201 33.2V30.4706V27.7412H10.2424H12.9789V30.4706V33.2H10.2424H7.5201ZM10.9319 33.2V30.4706V27.7412H13.6542H16.3907V30.4706V33.2H13.6542H10.9319ZM14.3436 33.2V30.4706V27.7412H17.0659H19.8025V30.4706V33.2H17.0659H14.3436ZM17.7554 33.2V30.4706V27.7412H20.4777H23.2142V30.4706V33.2H20.4777H17.7554ZM0.696569 29.7882V27.0588V24.3294H3.41887H6.15539V27.0588V29.7882H3.41887H0.696569ZM10.9319 29.7882V27.0588V24.3294H13.6542H16.3907V27.0588V29.7882H13.6542H10.9319ZM0.696569 26.3765V23.6471V20.9176H3.41887H6.15539V23.6471V26.3765H3.41887H0.696569ZM10.9319 26.3765V23.6471V20.9176H13.6542H16.3907V23.6471V26.3765H13.6542H10.9319ZM2.40245 22.9647V20.2353V17.5059H5.12476H7.86127V20.2353V22.9647H5.12476H2.40245ZM4.10833 19.5529V16.8235V14.0941H6.83064H9.56716V16.8235V19.5529H6.83064H4.10833ZM5.81422 16.1412V13.4118V10.6824H8.53652H11.273V13.4118V16.1412H8.53652H5.81422ZM7.5201 12.7294V10V7.27058H10.2424H12.9789V10V12.7294H10.2424H7.5201ZM9.22598 9.31764V6.58823V3.85882H11.9483H14.6848V6.58823V9.31764H11.9483H9.22598ZM10.9319 5.90588V3.17647V0.447056H13.6542H16.3907V3.17647V5.90588H13.6542H10.9319ZM26.3048 40.0235V37.2941V34.5647H29.0271H31.7636V37.2941V40.0235H29.0271H26.3048ZM29.7166 40.0235V37.2941V34.5647H32.4389H35.1754V37.2941V40.0235H32.4389H29.7166ZM33.1283 40.0235V37.2941V34.5647H35.8506H38.5871V37.2941V40.0235H35.8506H33.1283ZM36.5401 40.0235V37.2941V34.5647H39.2624H41.9989V37.2941V40.0235H39.2624H36.5401ZM39.9519 40.0235V37.2941V34.5647H42.6742H45.4107V37.2941V40.0235H42.6742H39.9519ZM29.7166 36.6118V33.8824V31.1529H32.4389H35.1754V33.8824V36.6118H32.4389H29.7166ZM31.4224 33.2V30.4706V27.7412H34.1447H36.8813V30.4706V33.2H34.1447H31.4224ZM33.1283 29.7882V27.0588V24.3294H35.8506H38.5871V27.0588V29.7882H35.8506H33.1283ZM34.8342 26.3765V23.6471V20.9176H37.5565H40.293V23.6471V26.3765H37.5565H34.8342ZM36.5401 22.9647V20.2353V17.5059H39.2624H41.9989V20.2353V22.9647H39.2624H36.5401ZM38.246 19.5529V16.8235V14.0941H40.9683H43.7048V16.8235V19.5529H40.9683H38.246ZM26.3048 16.1412V13.4118V10.6824H29.0271H31.7636V13.4118V16.1412H29.0271H26.3048ZM39.9519 16.1412V13.4118V10.6824H42.6742H45.4107V13.4118V16.1412H42.6742H39.9519ZM26.3048 12.7294V10V7.27058H29.0271H31.7636V10V12.7294H29.0271H26.3048ZM39.9519 12.7294V10V7.27058H42.6742H45.4107V10V12.7294H42.6742H39.9519ZM26.3048 9.31764V6.58823V3.85882H29.0271H31.7636V6.58823V9.31764H29.0271H26.3048ZM39.9519 9.31764V6.58823V3.85882H42.6742H45.4107V6.58823V9.31764H42.6742H39.9519ZM29.7166 5.90588V3.17647V0.447056H32.4389H35.1754V3.17647V5.90588H32.4389H29.7166ZM33.1283 5.90588V3.17647V0.447056H35.8506H38.5871V3.17647V5.90588H35.8506H33.1283ZM36.5401 5.90588V3.17647V0.447056H39.2624H41.9989V3.17647V5.90588H39.2624H36.5401Z" fill="#AA80F1"/>
</svg>
