<svg width="92" height="41" viewBox="0 0 92 41" fill="none" xmlns="http://www.w3.org/2000/svg">
<path d="M0.402451 40.0235V37.2941V34.5647H3.12476H5.86127V37.2941V40.0235H3.12476H0.402451ZM3.81422 40.0235V37.2941V34.5647H6.53652H9.27304V37.2941V40.0235H6.53652H3.81422ZM7.22598 40.0235V37.2941V34.5647H9.94829H12.6848V37.2941V40.0235H9.94829H7.22598ZM10.6377 40.0235V37.2941V34.5647H13.36H16.0966V37.2941V40.0235H13.36H10.6377ZM14.0495 40.0235V37.2941V34.5647H16.7718H19.5083V37.2941V40.0235H16.7718H14.0495ZM7.22598 36.6118V33.8824V31.1529H9.94829H12.6848V33.8824V36.6118H9.94829H7.22598ZM7.22598 33.2V30.4706V27.7412H9.94829H12.6848V30.4706V33.2H9.94829H7.22598ZM7.22598 29.7882V27.0588V24.3294H9.94829H12.6848V27.0588V29.7882H9.94829H7.22598ZM7.22598 26.3765V23.6471V20.9176H9.94829H12.6848V23.6471V26.3765H9.94829H7.22598ZM7.22598 22.9647V20.2353V17.5059H9.94829H12.6848V20.2353V22.9647H9.94829H7.22598ZM7.22598 19.5529V16.8235V14.0941H9.94829H12.6848V16.8235V19.5529H9.94829H7.22598ZM7.22598 16.1412V13.4118V10.6824H9.94829H12.6848V13.4118V16.1412H9.94829H7.22598ZM7.22598 12.7294V10V7.27058H9.94829H12.6848V10V12.7294H9.94829H7.22598ZM0.402451 9.31764V6.58823V3.85882H3.12476H5.86127V6.58823V9.31764H3.12476H0.402451ZM7.22598 9.31764V6.58823V3.85882H9.94829H12.6848V6.58823V9.31764H9.94829H7.22598ZM3.81422 7.61176V4.88235V2.15294H6.53652H9.27304V4.88235V7.61176H6.53652H3.81422ZM7.22598 5.90588V3.17647V0.447056H9.94829H12.6848V3.17647V5.90588H9.94829H7.22598ZM27.7166 40.0235V37.2941V34.5647H30.4389H33.1754V37.2941V40.0235H30.4389H27.7166ZM31.1283 40.0235V37.2941V34.5647H33.8506H36.5871V37.2941V40.0235H33.8506H31.1283ZM34.5401 40.0235V37.2941V34.5647H37.2624H39.9989V37.2941V40.0235H37.2624H34.5401ZM24.3048 36.6118V33.8824V31.1529H27.0271H29.7636V33.8824V36.6118H27.0271H24.3048ZM37.9519 36.6118V33.8824V31.1529H40.6742H43.4107V33.8824V36.6118H40.6742H37.9519ZM24.3048 33.2V30.4706V27.7412H27.0271H29.7636V30.4706V33.2H27.0271H24.3048ZM37.9519 33.2V30.4706V27.7412H40.6742H43.4107V30.4706V33.2H40.6742H37.9519ZM37.9519 29.7882V27.0588V24.3294H40.6742H43.4107V27.0588V29.7882H40.6742H37.9519ZM37.9519 26.3765V23.6471V20.9176H40.6742H43.4107V23.6471V26.3765H40.6742H37.9519ZM24.3048 22.9647V20.2353V17.5059H27.0271H29.7636V20.2353V22.9647H27.0271H24.3048ZM37.9519 22.9647V20.2353V17.5059H40.6742H43.4107V20.2353V22.9647H40.6742H37.9519ZM27.7166 21.2588V18.5294V15.8H30.4389H33.1754V18.5294V21.2588H30.4389H27.7166ZM24.3048 19.5529V16.8235V14.0941H27.0271H29.7636V16.8235V19.5529H27.0271H24.3048ZM31.1283 19.5529V16.8235V14.0941H33.8506H36.5871V16.8235V19.5529H33.8506H31.1283ZM34.5401 19.5529V16.8235V14.0941H37.2624H39.9989V16.8235V19.5529H37.2624H34.5401ZM24.3048 16.1412V13.4118V10.6824H27.0271H29.7636V13.4118V16.1412H27.0271H24.3048ZM24.3048 12.7294V10V7.27058H27.0271H29.7636V10V12.7294H27.0271H24.3048ZM24.3048 9.31764V6.58823V3.85882H27.0271H29.7636V6.58823V9.31764H27.0271H24.3048ZM24.3048 5.90588V3.17647V0.447056H27.0271H29.7636V3.17647V5.90588H27.0271H24.3048ZM27.7166 5.90588V3.17647V0.447056H30.4389H33.1754V3.17647V5.90588H30.4389H27.7166ZM31.1283 5.90588V3.17647V0.447056H33.8506H36.5871V3.17647V5.90588H33.8506H31.1283ZM34.5401 5.90588V3.17647V0.447056H37.2624H39.9989V3.17647V5.90588H37.2624H34.5401ZM37.9519 5.90588V3.17647V0.447056H40.6742H43.4107V3.17647V5.90588H40.6742H37.9519ZM51.6189 40.0235V37.2941V34.5647H54.3412H57.0777V37.2941V40.0235H54.3412H51.6189ZM55.0307 40.0235V37.2941V34.5647H57.753H60.4895V37.2941V40.0235H57.753H55.0307ZM58.4424 40.0235V37.2941V34.5647H61.1647H63.9013V37.2941V40.0235H61.1647H58.4424ZM48.2071 36.6118V33.8824V31.1529H50.9294H53.666V33.8824V36.6118H50.9294H48.2071ZM61.8542 36.6118V33.8824V31.1529H64.5765H67.313V33.8824V36.6118H64.5765H61.8542ZM48.2071 33.2V30.4706V27.7412H50.9294H53.666V30.4706V33.2H50.9294H48.2071ZM61.8542 33.2V30.4706V27.7412H64.5765H67.313V30.4706V33.2H64.5765H61.8542ZM48.2071 29.7882V27.0588V24.3294H50.9294H53.666V27.0588V29.7882H50.9294H48.2071ZM61.8542 29.7882V27.0588V24.3294H64.5765H67.313V27.0588V29.7882H64.5765H61.8542ZM48.2071 26.3765V23.6471V20.9176H50.9294H53.666V23.6471V26.3765H50.9294H48.2071ZM61.8542 26.3765V23.6471V20.9176H64.5765H67.313V23.6471V26.3765H64.5765H61.8542ZM48.2071 22.9647V20.2353V17.5059H50.9294H53.666V20.2353V22.9647H50.9294H48.2071ZM61.8542 22.9647V20.2353V17.5059H64.5765H67.313V20.2353V22.9647H64.5765H61.8542ZM48.2071 19.5529V16.8235V14.0941H50.9294H53.666V16.8235V19.5529H50.9294H48.2071ZM61.8542 19.5529V16.8235V14.0941H64.5765H67.313V16.8235V19.5529H64.5765H61.8542ZM48.2071 16.1412V13.4118V10.6824H50.9294H53.666V13.4118V16.1412H50.9294H48.2071ZM61.8542 16.1412V13.4118V10.6824H64.5765H67.313V13.4118V16.1412H64.5765H61.8542ZM48.2071 12.7294V10V7.27058H50.9294H53.666V10V12.7294H50.9294H48.2071ZM61.8542 12.7294V10V7.27058H64.5765H67.313V10V12.7294H64.5765H61.8542ZM48.2071 9.31764V6.58823V3.85882H50.9294H53.666V6.58823V9.31764H50.9294H48.2071ZM61.8542 9.31764V6.58823V3.85882H64.5765H67.313V6.58823V9.31764H64.5765H61.8542ZM51.6189 5.90588V3.17647V0.447056H54.3412H57.0777V3.17647V5.90588H54.3412H51.6189ZM55.0307 5.90588V3.17647V0.447056H57.753H60.4895V3.17647V5.90588H57.753H55.0307ZM58.4424 5.90588V3.17647V0.447056H61.1647H63.9013V3.17647V5.90588H61.1647H58.4424ZM55.0307 26.3765V23.6471V20.9176H57.753H60.4895V23.6471V26.3765H57.753H55.0307ZM55.0307 22.9647V20.2353V17.5059H57.753H60.4895V20.2353V22.9647H57.753H55.0307ZM55.0307 19.5529V16.8235V14.0941H57.753H60.4895V16.8235V19.5529H57.753H55.0307ZM78.933 33.2V30.4706V27.7412H81.6553H84.3918V30.4706V33.2H81.6553H78.933ZM78.933 29.7882V27.0588V24.3294H81.6553H84.3918V27.0588V29.7882H81.6553H78.933ZM72.1095 26.3765V23.6471V20.9176H74.8318H77.5683V23.6471V26.3765H74.8318H72.1095ZM75.5212 26.3765V23.6471V20.9176H78.2436H80.9801V23.6471V26.3765H78.2436H75.5212ZM78.933 26.3765V23.6471V20.9176H81.6553H84.3918V23.6471V26.3765H81.6553H78.933ZM82.3448 26.3765V23.6471V20.9176H85.0671H87.8036V23.6471V26.3765H85.0671H82.3448ZM85.7565 26.3765V23.6471V20.9176H88.4788H91.2154V23.6471V26.3765H88.4788H85.7565ZM78.933 22.9647V20.2353V17.5059H81.6553H84.3918V20.2353V22.9647H81.6553H78.933ZM78.933 19.5529V16.8235V14.0941H81.6553H84.3918V16.8235V19.5529H81.6553H78.933Z" fill="#AA80F1"/>
</svg>
