<svg width="293" height="248" viewBox="0 0 293 248" fill="none" xmlns="http://www.w3.org/2000/svg">
<path d="M168.775 88.3641L169.568 87.7557L168.775 88.3641ZM119.607 148.273L120.058 147.38L119.607 148.273ZM123.047 59.1775L122.326 58.4846L123.047 59.1775ZM292.359 26.652C292.366 27.2043 291.923 27.6571 291.371 27.6635L282.371 27.7671C281.819 27.7735 281.366 27.331 281.36 26.7787C281.354 26.2265 281.796 25.7736 282.348 25.7673L290.348 25.6751L290.256 17.6756C290.249 17.1234 290.692 16.6706 291.244 16.6642C291.796 16.6578 292.249 17.1004 292.256 17.6526L292.359 26.652ZM1.39077 240.451C1.47447 239.905 1.98487 239.53 2.53078 239.614C3.07668 239.698 3.45137 240.208 3.36767 240.754L1.39077 240.451ZM5.71339 226.996C5.61121 227.539 5.08838 227.896 4.54563 227.794C4.00288 227.692 3.64574 227.169 3.74792 226.626L5.71339 226.996ZM6.59379 212.893C6.716 212.355 7.25169 212.017 7.79028 212.139C8.32888 212.262 8.66642 212.797 8.54421 213.336L6.59379 212.893ZM11.9032 199.792C11.7592 200.325 11.2103 200.641 10.6771 200.497C10.1439 200.353 9.82836 199.804 9.97232 199.271L11.9032 199.792ZM13.932 185.789C14.0996 185.263 14.6621 184.972 15.1884 185.14C15.7146 185.307 16.0053 185.87 15.8377 186.396L13.932 185.789ZM20.3987 173.192C20.2053 173.709 19.6292 173.972 19.1119 173.778C18.5945 173.585 18.3319 173.009 18.5252 172.491L20.3987 173.192ZM23.8064 159.44C24.0277 158.934 24.6173 158.703 25.1233 158.925C25.6293 159.146 25.8601 159.736 25.6388 160.242L23.8064 159.44ZM31.6108 147.626C31.3591 148.118 30.7566 148.313 30.265 148.061C29.7733 147.809 29.5788 147.207 29.8304 146.715L31.6108 147.626ZM36.649 134.418C36.9333 133.945 37.5476 133.791 38.0211 134.076C38.4946 134.36 38.6479 134.974 38.3636 135.448L36.649 134.418ZM45.948 123.817C45.6288 124.268 45.0046 124.374 44.554 124.055C44.1033 123.736 43.9968 123.111 44.3161 122.661L45.948 123.817ZM52.9671 111.474C53.3237 111.053 53.9546 111 54.3764 111.356C54.7981 111.713 54.851 112.344 54.4944 112.766L52.9671 111.474ZM63.9296 102.61C63.5345 102.996 62.9013 102.988 62.5155 102.593C62.1297 102.198 62.1372 101.565 62.5324 101.179L63.9296 102.61ZM73.1682 91.8435C73.6027 91.5026 74.2313 91.5785 74.5722 92.0131C74.913 92.4476 74.8371 93.0762 74.4025 93.4171L73.1682 91.8435ZM85.8121 85.5195C85.3393 85.805 84.7246 85.6531 84.4391 85.1804C84.1536 84.7076 84.3054 84.0929 84.7782 83.8074L85.8121 85.5195ZM97.3391 77.3356C97.8466 77.1177 98.4346 77.3526 98.6524 77.8601C98.8702 78.3677 98.6353 78.9557 98.1278 79.1735L97.3391 77.3356ZM111.229 74.7066C110.694 74.8423 110.15 74.5183 110.014 73.9829C109.879 73.4476 110.203 72.9036 110.738 72.7679L111.229 74.7066ZM124.734 70.5118C125.285 70.4749 125.761 70.8916 125.798 71.4427C125.835 71.9937 125.419 72.4704 124.867 72.5073L124.734 70.5118ZM138.608 73.011C138.061 72.9303 137.684 72.422 137.765 71.8756C137.845 71.3292 138.354 70.9518 138.9 71.0325L138.608 73.011ZM152.626 74.8698C153.133 75.0887 153.366 75.6772 153.147 76.1843C152.928 76.6913 152.34 76.9249 151.833 76.7059L152.626 74.8698ZM163.352 83.9846C162.941 83.6158 162.907 82.9836 163.276 82.5724C163.644 82.1613 164.276 82.1269 164.688 82.4956L163.352 83.9846ZM173.467 93.5057C173.748 93.9811 173.591 94.5943 173.116 94.8755C172.64 95.1566 172.027 94.9991 171.746 94.5237L173.467 93.5057ZM176.736 106.757C176.613 106.219 176.95 105.683 177.489 105.56C178.027 105.437 178.563 105.775 178.686 106.313L176.736 106.757ZM179.147 120.211C179.056 120.755 178.541 121.124 177.996 121.033C177.451 120.942 177.083 120.427 177.174 119.882L179.147 120.211ZM172.511 132.158C172.801 131.688 173.418 131.543 173.887 131.833C174.357 132.124 174.502 132.74 174.212 133.21L172.511 132.158ZM164.981 143.569C164.55 143.915 163.921 143.846 163.575 143.416C163.229 142.985 163.297 142.356 163.728 142.01L164.981 143.569ZM152.245 148.605C152.76 148.406 153.339 148.663 153.537 149.179C153.736 149.694 153.479 150.273 152.964 150.471L152.245 148.605ZM139.411 153.382C138.859 153.41 138.389 152.986 138.36 152.435C138.332 151.883 138.756 151.413 139.307 151.385L139.411 153.382ZM126.203 149.835C126.732 149.994 127.033 150.552 126.874 151.08C126.715 151.609 126.158 151.91 125.629 151.751L126.203 149.835ZM113.602 145.717C113.162 145.384 113.074 144.757 113.407 144.317C113.74 143.876 114.368 143.789 114.808 144.122L113.602 145.717ZM106.708 134.958C106.983 135.436 106.819 136.048 106.34 136.323C105.862 136.599 105.25 136.435 104.975 135.956L106.708 134.958ZM100.608 123.717C100.509 123.174 100.869 122.653 101.413 122.554C101.956 122.455 102.477 122.816 102.576 123.359L100.608 123.717ZM101.926 110.928C101.892 111.479 101.419 111.899 100.867 111.865C100.316 111.832 99.8961 111.358 99.9294 110.807L101.926 110.928ZM101.859 98.0753C101.986 97.5379 102.525 97.2054 103.063 97.3326C103.6 97.4599 103.932 97.9987 103.805 98.5361L101.859 98.0753ZM107.561 86.54C107.361 87.0547 106.781 87.3096 106.266 87.1094C105.752 86.9092 105.497 86.3296 105.697 85.8149L107.561 86.54ZM111.123 74.1724C111.388 73.6883 111.996 73.5113 112.48 73.7771C112.964 74.0429 113.141 74.6508 112.876 75.1349L111.123 74.1724ZM119.71 64.6057C119.372 65.0428 118.744 65.1236 118.307 64.786C117.87 64.4485 117.789 63.8205 118.127 63.3834L119.71 64.6057ZM127.173 53.5754C127.566 53.1876 128.199 53.192 128.587 53.5853C128.975 53.9785 128.97 54.6117 128.577 54.9995L127.173 53.5754ZM138.585 45.6555C138.171 46.0211 137.539 45.9819 137.174 45.568C136.808 45.154 136.847 44.522 137.261 44.1564L138.585 45.6555ZM147.868 35.3165C148.303 34.9756 148.931 35.0514 149.272 35.4858C149.613 35.9203 149.537 36.5489 149.103 36.8899L147.868 35.3165ZM160.126 28.7797C159.671 29.0925 159.049 28.9771 158.736 28.5219C158.423 28.0668 158.538 27.4442 158.993 27.1314L160.126 28.7797ZM170.644 19.7061C171.12 19.4263 171.733 19.5855 172.013 20.0616C172.293 20.5378 172.133 21.1506 171.657 21.4304L170.644 19.7061ZM183.708 14.9786C183.211 15.2188 182.613 15.0103 182.373 14.513C182.132 14.0156 182.341 13.4178 182.838 13.1776L183.708 14.9786ZM195.568 7.74166C196.086 7.54981 196.661 7.81413 196.853 8.33203C197.045 8.84993 196.78 9.42528 196.263 9.61711L195.568 7.74166ZM209.279 5.58856C208.743 5.72109 208.201 5.39389 208.068 4.85774C207.936 4.3216 208.263 3.77953 208.799 3.64699L209.279 5.58856ZM222.455 1.19507C223.004 1.13475 223.498 1.53088 223.558 2.07987C223.618 2.62885 223.222 3.12279 222.673 3.18311L222.455 1.19507ZM236.246 2.71919C235.694 2.69464 235.267 2.22746 235.291 1.67574C235.316 1.12399 235.783 0.696611 236.335 0.721162L236.246 2.71919ZM250.12 2.50443C250.659 2.62215 251.001 3.15502 250.884 3.6946C250.766 4.23419 250.233 4.57619 249.693 4.45845L250.12 2.50443ZM262.625 8.49906C262.115 8.28876 261.871 7.70429 262.081 7.19361C262.292 6.68292 262.876 6.43942 263.387 6.64974L262.625 8.49906ZM275.749 13.0186C276.217 13.3113 276.359 13.9282 276.067 14.3966C275.774 14.8649 275.157 15.0074 274.689 14.7148L275.749 13.0186ZM285.638 22.7811C285.219 22.422 285.169 21.7908 285.529 21.3711C285.888 20.9515 286.519 20.9023 286.938 21.2614L285.638 22.7811ZM0.368602 247.501C0.693872 245.123 1.03473 242.773 1.39077 240.451L3.36767 240.754C3.01328 243.065 2.67397 245.405 2.35015 247.772L0.368602 247.501ZM3.74792 226.626C4.63279 221.926 5.58268 217.349 6.59379 212.893L8.54421 213.336C7.53868 217.767 6.59378 222.32 5.71339 226.996L3.74792 226.626ZM9.97232 199.271C11.2243 194.634 12.5459 190.141 13.932 185.789L15.8377 186.396C14.4608 190.719 13.1476 195.183 11.9032 199.792L9.97232 199.271ZM18.5252 172.491C20.2146 167.971 21.9773 163.622 23.8064 159.44L25.6388 160.242C23.8247 164.389 22.0756 168.705 20.3987 173.192L18.5252 172.491ZM29.8304 146.715C32.0324 142.413 34.3086 138.316 36.649 134.418L38.3636 135.448C36.047 139.306 33.7927 143.363 31.6108 147.626L29.8304 146.715ZM44.3161 122.661C47.1347 118.682 50.0233 114.956 52.9671 111.474L54.4944 112.766C51.5883 116.203 48.7345 119.884 45.948 123.817L44.3161 122.661ZM62.5324 101.179C66.0335 97.7605 69.5864 94.653 73.1682 91.8435L74.4025 93.4171C70.8789 96.1811 67.3803 99.2408 63.9296 102.61L62.5324 101.179ZM84.7782 83.8074C88.9712 81.2752 93.1701 79.1247 97.3391 77.3356L98.1278 79.1735C94.0454 80.9254 89.9283 83.0336 85.8121 85.5195L84.7782 83.8074ZM110.738 72.7679C115.518 71.5566 120.202 70.8154 124.734 70.5118L124.867 72.5073C120.461 72.8025 115.896 73.524 111.229 74.7066L110.738 72.7679ZM138.9 71.0325C143.815 71.7588 148.424 73.0558 152.626 74.8698L151.833 76.7059C147.802 74.9653 143.362 73.7135 138.608 73.011L138.9 71.0325ZM164.688 82.4956C166.485 84.1078 168.118 85.8645 169.568 87.7557L167.981 88.9725C166.609 87.1825 165.06 85.5164 163.352 83.9846L164.688 82.4956ZM169.568 87.7557C171.041 89.6762 172.337 91.5947 173.467 93.5057L171.746 94.5237C170.658 92.6849 169.407 90.8326 167.981 88.9725L169.568 87.7557ZM178.686 106.313C179.785 111.138 179.88 115.807 179.147 120.211L177.174 119.882C177.864 115.737 177.777 111.33 176.736 106.757L178.686 106.313ZM174.212 133.21C171.776 137.146 168.626 140.64 164.981 143.569L163.728 142.01C167.208 139.214 170.203 135.888 172.511 132.158L174.212 133.21ZM152.964 150.471C148.656 152.13 144.072 153.14 139.411 153.382L139.307 151.385C143.749 151.154 148.126 150.191 152.245 148.605L152.964 150.471ZM125.629 151.751C123.436 151.093 121.271 150.235 119.155 149.165L120.058 147.38C122.067 148.396 124.122 149.211 126.203 149.835L125.629 151.751ZM119.155 149.165C117.129 148.14 115.281 146.986 113.602 145.717L114.808 144.122C116.388 145.316 118.134 146.407 120.058 147.38L119.155 149.165ZM104.975 135.956C102.815 132.207 101.4 128.073 100.608 123.717L102.576 123.359C103.333 127.522 104.678 131.434 106.708 134.958L104.975 135.956ZM99.9294 110.807C100.184 106.594 100.856 102.312 101.859 98.0753L103.805 98.5361C102.825 102.676 102.173 106.843 101.926 110.928L99.9294 110.807ZM105.697 85.8149C107.28 81.746 109.116 77.827 111.123 74.1724L112.876 75.1349C110.911 78.7131 109.112 82.5528 107.561 86.54L105.697 85.8149ZM118.127 63.3834C119.501 61.604 120.907 59.9622 122.326 58.4846L123.769 59.8703C122.404 61.2906 121.045 62.8769 119.71 64.6057L118.127 63.3834ZM122.326 58.4846C123.91 56.8364 125.526 55.1988 127.173 53.5754L128.577 54.9995C126.943 56.6102 125.34 58.235 123.769 59.8703L122.326 58.4846ZM137.261 44.1564C140.699 41.1199 144.24 38.1643 147.868 35.3165L149.103 36.8899C145.506 39.7128 141.995 42.6436 138.585 45.6555L137.261 44.1564ZM158.993 27.1314C162.806 24.511 166.695 22.0266 170.644 19.7061L171.657 21.4304C167.751 23.7257 163.902 26.1844 160.126 28.7797L158.993 27.1314ZM182.838 13.1776C187.036 11.1506 191.285 9.32825 195.568 7.74166L196.263 9.61711C192.043 11.1802 187.853 12.9772 183.708 14.9786L182.838 13.1776ZM208.799 3.64699C213.336 2.52547 217.894 1.69618 222.455 1.19507L222.673 3.18311C218.207 3.67388 213.736 4.48676 209.279 5.58856L208.799 3.64699ZM236.335 0.721162C240.954 0.926713 245.556 1.5087 250.12 2.50443L249.693 4.45845C245.245 3.48792 240.756 2.91989 236.246 2.71919L236.335 0.721162ZM263.387 6.64974C267.566 8.37071 271.692 10.484 275.749 13.0186L274.689 14.7148C270.726 12.2386 266.699 10.1768 262.625 8.49906L263.387 6.64974ZM286.938 21.2614C288.662 22.7361 290.369 24.2976 292.058 25.9483L290.66 27.3787C289.002 25.7581 287.328 24.2265 285.638 22.7811L286.938 21.2614Z" fill="black"/>
</svg>
