<svg width="28" height="28" viewBox="0 0 28 28" fill="none" xmlns="http://www.w3.org/2000/svg">
<path fill-rule="evenodd" clip-rule="evenodd" d="M14 4C15.1115 4 16.2516 4.0286 17.3566 4.0754L18.6618 4.1378L19.9111 4.2119L21.0811 4.2912L22.1497 4.3744C23.3094 4.46316 24.4006 4.95803 25.2314 5.77195C26.0622 6.58587 26.5794 7.6667 26.6919 8.8243L26.7439 9.3768L26.8414 10.5598C26.9324 11.7857 27 13.1221 27 14.4C27 15.6779 26.9324 17.0143 26.8414 18.2402L26.7439 19.4232C26.727 19.613 26.7101 19.7963 26.6919 19.9757C26.5793 21.1335 26.062 22.2145 25.2309 23.0284C24.3998 23.8424 23.3083 24.3371 22.1484 24.4256L21.0824 24.5075L19.9124 24.5881L18.6618 24.6622L17.3566 24.7246C16.2384 24.7732 15.1193 24.7983 14 24.8C12.8807 24.7983 11.7616 24.7732 10.6434 24.7246L9.3382 24.6622L8.0889 24.5881L6.9189 24.5075L5.8503 24.4256C4.69064 24.3368 3.59942 23.842 2.76861 23.028C1.93781 22.2141 1.42065 21.1333 1.3081 19.9757L1.2561 19.4232L1.1586 18.2402C1.0592 16.9625 1.0063 15.6816 1 14.4C1 13.1221 1.0676 11.7857 1.1586 10.5598L1.2561 9.3768C1.273 9.187 1.2899 9.0037 1.3081 8.8243C1.4206 7.66691 1.93758 6.58624 2.76812 5.77235C3.59866 4.95845 4.68957 4.46345 5.849 4.3744L6.9163 4.2912L8.0863 4.2119L9.3369 4.1378L10.6421 4.0754C11.7607 4.02682 12.8803 4.00168 14 4ZM11.4 11.2475V17.5525C11.4 18.1531 12.05 18.5275 12.57 18.2285L18.03 15.076C18.1488 15.0076 18.2475 14.9091 18.3161 14.7904C18.3847 14.6718 18.4209 14.5371 18.4209 14.4C18.4209 14.2629 18.3847 14.1282 18.3161 14.0096C18.2475 13.8909 18.1488 13.7924 18.03 13.724L12.57 10.5728C12.4514 10.5043 12.3168 10.4683 12.1799 10.4683C12.0429 10.4683 11.9084 10.5044 11.7898 10.5729C11.6712 10.6414 11.5727 10.74 11.5043 10.8586C11.4359 10.9773 11.3999 11.1118 11.4 11.2488V11.2475Z" fill="white"/>
</svg>
