<svg width="28" height="28" viewBox="0 0 28 28" fill="none" xmlns="http://www.w3.org/2000/svg">
<path d="M14.653 3C15.909 3.00335 16.5465 3.01005 17.0969 3.02568L17.3135 3.03349C17.5636 3.04243 17.8103 3.05359 18.1084 3.06699C19.2964 3.12281 20.1069 3.31038 20.8181 3.58615C21.555 3.86973 22.1758 4.2538 22.7965 4.87344C23.3642 5.43156 23.8035 6.10669 24.0838 6.85183C24.3596 7.56303 24.5472 8.37359 24.603 9.56263C24.6164 9.85962 24.6275 10.1064 24.6365 10.3576L24.6432 10.5742C24.6599 11.1235 24.6666 11.761 24.6689 13.017L24.67 13.8499V15.3125C24.6727 16.1268 24.6641 16.9412 24.6443 17.7553L24.6376 17.9719C24.6287 18.2231 24.6175 18.4699 24.6041 18.7668C24.5483 19.9559 24.3585 20.7653 24.0838 21.4776C23.8043 22.2232 23.3649 22.8985 22.7965 23.456C22.2382 24.0236 21.5632 24.4628 20.8181 24.7433C20.1069 25.0191 19.2964 25.2067 18.1084 25.2625C17.8435 25.275 17.5786 25.2861 17.3135 25.296L17.0969 25.3027C16.5465 25.3183 15.909 25.3261 14.653 25.3284L13.8201 25.3295H12.3586C11.5439 25.3323 10.7291 25.3237 9.91465 25.3038L9.69805 25.2971C9.43301 25.2871 9.16803 25.2755 8.90312 25.2625C7.71519 25.2067 6.90463 25.0191 6.19232 24.7433C5.44727 24.4635 4.77241 24.0242 4.21505 23.456C3.64681 22.8981 3.20712 22.223 2.92664 21.4776C2.65087 20.7664 2.4633 19.9559 2.40748 18.7668C2.39504 18.5019 2.38387 18.2369 2.37398 17.9719L2.3684 17.7553C2.34783 16.9412 2.33852 16.1268 2.34049 15.3125V13.017C2.33737 12.2026 2.34556 11.3883 2.36505 10.5742L2.37287 10.3576C2.3818 10.1064 2.39296 9.85962 2.40636 9.56263C2.46218 8.37359 2.64975 7.56415 2.92552 6.85183C3.20588 6.10592 3.64645 5.43059 4.21616 4.87344C4.77339 4.30569 5.4478 3.86637 6.19232 3.58615C6.90463 3.31038 7.71408 3.12281 8.90312 3.06699C9.2001 3.05359 9.44796 3.04243 9.69805 3.03349L9.91465 3.0268C10.7288 3.00696 11.5431 2.9984 12.3575 3.00112L14.653 3ZM13.5052 8.58237C12.0247 8.58237 10.6048 9.17051 9.5579 10.2174C8.511 11.2643 7.92286 12.6842 7.92286 14.1647C7.92286 15.6453 8.511 17.0652 9.5579 18.1121C10.6048 19.159 12.0247 19.7471 13.5052 19.7471C14.9858 19.7471 16.4057 19.159 17.4526 18.1121C18.4995 17.0652 19.0876 15.6453 19.0876 14.1647C19.0876 12.6842 18.4995 11.2643 17.4526 10.2174C16.4057 9.17051 14.9858 8.58237 13.5052 8.58237ZM13.5052 10.8153C13.9451 10.8152 14.3806 10.9018 14.787 11.0701C15.1934 11.2383 15.5627 11.485 15.8738 11.7959C16.1849 12.1069 16.4316 12.4761 16.6 12.8825C16.7684 13.2888 16.8551 13.7243 16.8552 14.1642C16.8553 14.604 16.7687 15.0396 16.6005 15.446C16.4322 15.8524 16.1855 16.2217 15.8746 16.5327C15.5636 16.8438 15.1944 17.0906 14.7881 17.259C14.3817 17.4274 13.9462 17.5141 13.5063 17.5142C12.618 17.5142 11.7661 17.1613 11.1379 16.5331C10.5098 15.905 10.1569 15.0531 10.1569 14.1647C10.1569 13.2764 10.5098 12.4245 11.1379 11.7963C11.7661 11.1682 12.618 10.8153 13.5063 10.8153M19.3678 6.90766C18.9977 6.90766 18.6427 7.05469 18.381 7.31642C18.1193 7.57814 17.9722 7.93312 17.9722 8.30325C17.9722 8.67339 18.1193 9.02836 18.381 9.29008C18.6427 9.55181 18.9977 9.69884 19.3678 9.69884C19.738 9.69884 20.0929 9.55181 20.3547 9.29008C20.6164 9.02836 20.7634 8.67339 20.7634 8.30325C20.7634 7.93312 20.6164 7.57814 20.3547 7.31642C20.0929 7.05469 19.738 6.90766 19.3678 6.90766Z" fill="white"/>
</svg>
