<svg width="260" height="80" viewBox="0 0 260 80" fill="none" xmlns="http://www.w3.org/2000/svg">
<rect x="31.7129" width="10.6489" height="21.1554" fill="#AA80F1"/>
<rect x="31.7129" y="52.3276" width="10.6489" height="21.1554" fill="#AA80F1"/>
<rect y="42.0505" width="10.5777" height="21.2978" transform="rotate(-90 0 42.0505)" fill="#AA80F1"/>
<rect x="21.1445" y="31.6289" width="10.5777" height="10.6489" transform="rotate(-90 21.1445 31.6289)" fill="#AA80F1"/>
<rect x="21.1445" y="52.3276" width="10.5777" height="10.6489" transform="rotate(-90 21.1445 52.3276)" fill="#AA80F1"/>
<rect x="42.2168" y="31.6289" width="10.5777" height="10.6489" transform="rotate(-90 42.2168 31.6289)" fill="#AA80F1"/>
<rect x="42.2168" y="52.3276" width="10.5777" height="10.6489" transform="rotate(-90 42.2168 52.3276)" fill="#AA80F1"/>
<rect x="52.7812" y="42.0505" width="10.5777" height="21.2978" transform="rotate(-90 52.7812 42.0505)" fill="#AA80F1"/>
<path d="M115.11 50.5533C111.022 50.5533 107.897 49.3831 105.734 47.0427C103.571 44.6728 102.49 41.4881 102.49 37.4888C102.49 34.8522 102.949 32.5711 103.868 30.6455C104.816 28.6903 106.223 27.1794 108.089 26.1129C109.955 25.0168 112.296 24.4688 115.11 24.4688C119.228 24.4688 122.353 25.6537 124.486 28.0237C126.619 30.3641 127.686 33.5191 127.686 37.4888C127.686 40.0661 127.212 42.3472 126.264 44.3321C125.316 46.2873 123.909 47.813 122.042 48.9091C120.176 50.0052 117.865 50.5533 115.11 50.5533ZM115.066 45.3541C116.695 45.3541 118.058 45.0135 119.154 44.3321C120.25 43.6211 121.065 42.6731 121.598 41.4881C122.131 40.3031 122.398 38.97 122.398 37.4888C122.398 36.0076 122.131 34.6596 121.598 33.445C121.065 32.2304 120.25 31.2676 119.154 30.5566C118.058 29.8456 116.695 29.4901 115.066 29.4901C112.666 29.4901 110.844 30.2456 109.6 31.7564C108.356 33.2377 107.734 35.1484 107.734 37.4888C107.734 38.9404 108 40.2587 108.533 41.4437C109.067 42.6287 109.867 43.5767 110.933 44.2877C112.029 44.9986 113.407 45.3541 115.066 45.3541ZM138.717 50.3755C138.183 50.3755 137.443 50.2866 136.495 50.1089C135.576 49.9312 134.628 49.6053 133.651 49.1313C132.703 48.6573 131.888 47.9759 131.207 47.0872C130.555 46.1688 130.229 44.9838 130.229 43.5322H135.162C135.162 43.5618 135.176 43.7396 135.206 44.0655C135.236 44.3617 135.339 44.7024 135.517 45.0875C135.695 45.4726 136.021 45.8133 136.495 46.1096C136.969 46.3762 137.665 46.5095 138.583 46.5095C139.65 46.5095 140.39 46.3169 140.805 45.9318C141.22 45.5467 141.427 45.1616 141.427 44.7765C141.427 44.2432 141.161 43.8137 140.627 43.4878C140.124 43.1619 139.457 42.8953 138.628 42.6879C137.798 42.4509 136.909 42.1991 135.962 41.9325C135.043 41.6362 134.169 41.2807 133.34 40.866C132.54 40.4216 131.873 39.8291 131.34 39.0885C130.807 38.3479 130.555 37.3999 130.585 36.2446C130.585 34.4671 131.266 33.1488 132.629 32.2897C134.021 31.4009 135.784 30.9566 137.917 30.9566C139.516 30.9566 140.968 31.2232 142.272 31.7564C143.605 32.26 144.656 33.0303 145.427 34.0671C146.197 35.104 146.597 36.4075 146.626 37.9776H141.738C141.768 37.1777 141.59 36.5704 141.205 36.1557C140.85 35.7113 140.39 35.4151 139.828 35.2669C139.265 35.0892 138.702 35.0003 138.139 35.0003C137.161 35.0003 136.465 35.1781 136.05 35.5336C135.665 35.8594 135.473 36.2297 135.473 36.6445C135.473 37.2666 135.739 37.7554 136.273 38.1109C136.806 38.4368 137.487 38.7182 138.317 38.9552C139.176 39.1922 140.079 39.444 141.027 39.7106C141.975 39.9773 142.864 40.3179 143.694 40.7327C144.523 41.1474 145.204 41.7103 145.738 42.4213C146.301 43.1027 146.582 44.0062 146.582 45.132C146.582 46.8798 145.871 48.1981 144.449 49.0868C143.027 49.946 141.116 50.3755 138.717 50.3755ZM161.953 31.6231H167.196V32.3785L161.197 49.9312H153.776L147.733 32.423V31.6231H152.932L157.509 45.4875H157.598L161.953 31.6231ZM173.411 29.5346C172.315 29.5642 171.575 29.3124 171.19 28.7791C170.834 28.2163 170.656 27.5497 170.656 26.7795C170.656 26.0389 170.834 25.4019 171.19 24.8687C171.575 24.3354 172.315 24.0688 173.411 24.0688C174.478 24.0688 175.189 24.3354 175.544 24.8687C175.93 25.4019 176.122 26.0389 176.122 26.7795C176.122 27.5793 175.93 28.2459 175.544 28.7791C175.189 29.2828 174.478 29.5346 173.411 29.5346ZM170.745 49.9312V31.6231H176.122V49.9312H170.745ZM178.773 29.4901V24.9131H198.325V29.4901H191.215V49.9312H185.839V29.4901H178.773ZM206.387 50.3755C204.224 50.3755 202.462 49.9312 201.099 49.0424C199.766 48.1537 198.773 47.0131 198.122 45.6208C197.499 44.1988 197.174 42.7027 197.144 41.1326C197.114 39.207 197.47 37.5184 198.21 36.0668C198.951 34.6152 200.003 33.4895 201.365 32.6896C202.758 31.8897 204.372 31.4898 206.209 31.4898C207.898 31.4898 209.409 31.8453 210.742 32.5563C212.075 33.2673 213.126 34.2893 213.897 35.6224C214.667 36.9259 215.067 38.4812 215.097 40.2883C215.097 40.3179 215.097 40.4809 215.097 40.7771C215.097 41.0734 215.097 41.2956 215.097 41.4437H202.254C202.254 42.9545 202.61 44.0803 203.321 44.8209C204.061 45.5615 205.054 45.9318 206.298 45.9318C207.276 45.9318 208.075 45.6948 208.698 45.2208C209.349 44.7468 209.734 44.1247 209.853 43.3545H215.052C214.874 45.2801 214.045 46.9391 212.564 48.3314C211.112 49.6942 209.053 50.3755 206.387 50.3755ZM202.343 39.1774H209.72C209.72 39.0589 209.69 38.8219 209.631 38.4664C209.572 38.1109 209.423 37.7406 209.186 37.3555C208.949 36.9407 208.579 36.5852 208.075 36.289C207.601 35.9927 206.935 35.8446 206.076 35.8446C204.95 35.8446 204.121 36.0816 203.587 36.5556C203.084 37 202.758 37.5036 202.61 38.0665C202.462 38.5997 202.373 38.97 202.343 39.1774ZM227.529 50.3755C225.811 50.3755 224.226 50.0348 222.774 49.3535C221.352 48.6425 220.212 47.6056 219.352 46.2429C218.523 44.8505 218.108 43.1323 218.108 41.0882C218.138 39.1033 218.567 37.3999 219.397 35.9779C220.256 34.5263 221.382 33.4302 222.774 32.6896C224.196 31.9194 225.796 31.5342 227.573 31.5342C229.528 31.5342 231.173 31.9045 232.506 32.6452C233.839 33.3858 234.846 34.3338 235.527 35.4891C236.238 36.6445 236.624 37.8295 236.683 39.0441H231.795C231.41 37.0889 230.077 36.1112 227.795 36.1112C226.314 36.1112 225.188 36.5408 224.418 37.3999C223.678 38.2294 223.307 39.3107 223.307 40.6438C223.307 42.2139 223.678 43.4582 224.418 44.3765C225.159 45.2949 226.299 45.7541 227.84 45.7541C228.788 45.7541 229.632 45.5023 230.373 44.9986C231.113 44.4654 231.587 43.6655 231.795 42.599H236.683C236.624 43.8729 236.238 45.1171 235.527 46.3318C234.846 47.5167 233.824 48.4944 232.461 49.2646C231.128 50.0052 229.484 50.3755 227.529 50.3755ZM240.04 49.9312V24.9131H245.594V35.2669H245.683C245.683 35.2373 245.757 35.0299 245.905 34.6448C246.083 34.2597 246.379 33.845 246.794 33.4006C247.209 32.9266 247.786 32.5118 248.527 32.1564C249.268 31.8009 250.216 31.6231 251.371 31.6231C252.645 31.6231 253.697 31.8601 254.526 32.3341C255.356 32.7785 256.007 33.3858 256.481 34.156C256.955 34.8966 257.296 35.6965 257.503 36.5556C257.711 37.4147 257.844 38.2442 257.903 39.0441C257.962 39.844 257.992 40.5253 257.992 41.0882V49.9312H252.749V41.0438C252.749 40.2439 252.674 39.4885 252.526 38.7775C252.378 38.0665 252.052 37.4888 251.549 37.0444C251.075 36.5704 250.304 36.3334 249.238 36.3334C248.172 36.3334 247.372 36.5704 246.838 37.0444C246.305 37.5184 245.964 38.1257 245.816 38.8663C245.668 39.607 245.594 40.3624 245.594 41.1326V49.9312H240.04Z" fill="white"/>
<path d="M63.512 72.1918H70.8923V73.4219H62.077V60.5975H70.6645V61.8959H63.512V66.3149H69.1839V67.545H63.512V72.1918ZM76.7582 73.6497C75.8622 73.6497 75.1105 73.4447 74.5031 73.0346C73.9108 72.6246 73.4628 72.0628 73.1591 71.349C72.8706 70.6201 72.7263 69.8077 72.7263 68.9117C72.7263 67.5298 73.068 66.3909 73.7514 65.4949C74.4347 64.599 75.4446 64.151 76.7809 64.151C77.4036 64.151 77.9199 64.2573 78.3299 64.4699C78.7551 64.6673 79.0968 64.9103 79.3549 65.1988C79.6131 65.4873 79.8029 65.7531 79.9244 65.996C80.0459 66.239 80.1218 66.3985 80.1522 66.4744H80.1977L80.2205 60.5975H81.7239V73.4219H80.4483L80.2205 71.3718H80.175C80.1446 71.4477 80.0611 71.6072 79.9244 71.8501C79.7877 72.0931 79.5827 72.3513 79.3094 72.6246C79.0512 72.898 78.7095 73.1409 78.2843 73.3535C77.8743 73.551 77.3656 73.6497 76.7582 73.6497ZM77.1226 72.3513C78.0186 72.3513 78.7475 72.0476 79.3094 71.4401C79.8864 70.8175 80.175 69.9747 80.175 68.9117C80.175 67.8639 79.9092 67.0363 79.3777 66.4288C78.8462 65.8062 78.1325 65.4949 77.2365 65.4949C76.5228 65.4949 75.9381 65.662 75.4826 65.996C75.027 66.3149 74.6929 66.7326 74.4803 67.2489C74.2677 67.7652 74.1614 68.3195 74.1614 68.9117C74.1614 69.4888 74.2601 70.043 74.4575 70.5745C74.6549 71.0909 74.9662 71.5161 75.3914 71.8501C75.8166 72.1842 76.3937 72.3513 77.1226 72.3513ZM87.0838 73.6497C86.3245 73.6497 85.7095 73.513 85.2387 73.2396C84.7832 72.9663 84.4339 72.6018 84.1909 72.1463C83.948 71.6755 83.7809 71.1668 83.6898 70.6201C83.6139 70.0582 83.5759 69.4964 83.5759 68.9345V64.151H85.0337V68.9573C85.0337 69.5647 85.0945 70.1266 85.216 70.6429C85.3375 71.1592 85.5804 71.5692 85.9449 71.8729C86.3245 72.1766 86.8712 72.3285 87.5849 72.3285C88.2683 72.3285 88.7998 72.1766 89.1795 71.8729C89.5743 71.554 89.8628 71.144 90.045 70.6429C90.2273 70.1418 90.3336 69.6178 90.3639 69.0712V64.151H91.8673V73.4219H90.6145L90.3639 71.349H90.3184C90.2425 71.6072 90.083 71.9185 89.84 72.2829C89.5971 72.6474 89.2478 72.9663 88.7922 73.2396C88.3518 73.513 87.7824 73.6497 87.0838 73.6497ZM98.0475 73.6497C97.1819 73.6497 96.4074 73.4674 95.724 73.103C95.0407 72.7385 94.5016 72.207 94.1068 71.5085C93.7119 70.8099 93.5145 69.9671 93.5145 68.98C93.5449 68.0082 93.7499 67.1578 94.1295 66.4288C94.5244 65.6999 95.0635 65.138 95.7468 64.7432C96.4302 64.3332 97.2122 64.1282 98.093 64.1282C98.913 64.1282 99.6268 64.2801 100.234 64.5838C100.842 64.8875 101.328 65.2975 101.692 65.8138C102.056 66.3301 102.284 66.8996 102.375 67.5222H101.031C100.88 66.854 100.546 66.3377 100.029 65.9733C99.5281 65.6088 98.8979 65.4266 98.1386 65.4266C97.1667 65.4266 96.3922 65.7531 95.8151 66.4061C95.2533 67.0439 94.9647 67.8791 94.9496 68.9117C94.9496 69.9595 95.2229 70.7947 95.7696 71.4174C96.3315 72.0248 97.1135 72.3285 98.1158 72.3285C98.8447 72.3285 99.4749 72.1463 100.006 71.7818C100.538 71.4174 100.88 70.8934 101.031 70.2101H102.375C102.284 70.8479 102.049 71.4249 101.669 71.9413C101.305 72.4576 100.811 72.8752 100.189 73.1941C99.5812 73.4978 98.8675 73.6497 98.0475 73.6497ZM107.345 73.6269C106.494 73.6269 105.796 73.4219 105.249 73.0119C104.702 72.5867 104.292 72.0172 104.019 71.3035C103.761 70.5897 103.632 69.7773 103.632 68.8661C103.632 67.4691 103.935 66.3225 104.543 65.4266C105.165 64.5154 106.099 64.0599 107.345 64.0599C107.982 64.0599 108.514 64.1738 108.939 64.4015C109.379 64.6141 109.729 64.8799 109.987 65.1988C110.26 65.5177 110.458 65.8214 110.579 66.1099H110.602V64.151H112.105V73.4219H110.852L110.625 71.6224H110.579C110.442 71.9261 110.245 72.2374 109.987 72.5563C109.729 72.86 109.379 73.1182 108.939 73.3308C108.514 73.5282 107.982 73.6269 107.345 73.6269ZM107.914 72.3285C108.855 72.3285 109.531 72.0172 109.941 71.3946C110.366 70.772 110.579 69.9367 110.579 68.8889C110.579 67.7652 110.359 66.9072 109.919 66.3149C109.493 65.7227 108.825 65.4266 107.914 65.4266C106.912 65.4266 106.19 65.7607 105.75 66.4288C105.325 67.0818 105.112 67.8943 105.112 68.8661C105.112 69.8836 105.332 70.7188 105.773 71.3718C106.213 72.0096 106.927 72.3285 107.914 72.3285ZM116.132 73.4219C115.57 73.4219 115.175 73.27 114.947 72.9663C114.734 72.6626 114.628 72.245 114.628 71.7135V65.2443H113.17V64.151C113.656 64.151 114.013 64.113 114.241 64.0371C114.484 63.946 114.636 63.7334 114.696 63.3993C114.757 63.0652 114.788 62.5185 114.788 61.7592H116.04V64.151H118.182V65.2443H116.04V72.2374H118.204V73.4219H116.132ZM121.265 63.1487C120.931 63.1487 120.703 63.0652 120.582 62.8981C120.475 62.7159 120.422 62.4881 120.422 62.2148C120.422 61.987 120.475 61.7896 120.582 61.6225C120.703 61.4403 120.931 61.3492 121.265 61.3492C121.599 61.3492 121.819 61.4403 121.926 61.6225C122.047 61.7896 122.108 61.987 122.108 62.2148C122.108 62.4881 122.047 62.7159 121.926 62.8981C121.819 63.0652 121.599 63.1487 121.265 63.1487ZM120.536 73.4219V64.151H121.994V73.4219H120.536ZM128.321 73.6497C126.833 73.6497 125.717 73.2093 124.973 72.3285C124.244 71.4325 123.879 70.2936 123.879 68.9117C123.864 67.5146 124.228 66.3757 124.973 65.4949C125.732 64.599 126.848 64.1434 128.321 64.1282C129.779 64.1282 130.88 64.5686 131.624 65.4494C132.383 66.3149 132.763 67.4691 132.763 68.9117C132.763 69.8077 132.603 70.6125 132.284 71.3262C131.966 72.04 131.48 72.6094 130.827 73.0346C130.174 73.4447 129.338 73.6497 128.321 73.6497ZM128.321 72.3741C129.111 72.3741 129.718 72.1994 130.143 71.8501C130.584 71.5009 130.887 71.0605 131.054 70.529C131.237 69.9823 131.328 69.428 131.328 68.8661C131.328 68.3043 131.237 67.75 131.054 67.2033C130.887 66.6566 130.584 66.2086 130.143 65.8594C129.718 65.5101 129.111 65.3355 128.321 65.3355C127.531 65.3355 126.916 65.5101 126.476 65.8594C126.051 66.2086 125.747 66.6566 125.565 67.2033C125.398 67.75 125.314 68.3043 125.314 68.8661C125.314 69.428 125.398 69.9823 125.565 70.529C125.747 71.0605 126.051 71.5009 126.476 71.8501C126.916 72.1994 127.531 72.3741 128.321 72.3741ZM134.54 73.4219V64.151H135.793L136.044 66.4516H136.089C136.104 66.3757 136.173 66.2162 136.294 65.9733C136.416 65.7303 136.598 65.4721 136.841 65.1988C137.099 64.9103 137.433 64.6673 137.843 64.4699C138.253 64.2573 138.777 64.151 139.415 64.151C140.22 64.151 140.85 64.2952 141.305 64.5838C141.776 64.8723 142.126 65.2595 142.353 65.7455C142.581 66.2162 142.725 66.725 142.786 67.2716C142.847 67.8183 142.877 68.3422 142.877 68.8434V73.4219H141.465V68.8434C141.465 67.8411 141.29 67.0287 140.941 66.4061C140.607 65.7834 139.939 65.4721 138.937 65.4721C138.253 65.4721 137.691 65.6392 137.251 65.9733C136.826 66.2922 136.514 66.725 136.317 67.2716C136.135 67.8031 136.044 68.3878 136.044 69.0256V73.4219H134.54ZM151.273 63.1487C150.939 63.1487 150.711 63.0652 150.59 62.8981C150.484 62.7159 150.43 62.4881 150.43 62.2148C150.43 61.987 150.484 61.7896 150.59 61.6225C150.711 61.4403 150.939 61.3492 151.273 61.3492C151.607 61.3492 151.828 61.4403 151.934 61.6225C152.055 61.7896 152.116 61.987 152.116 62.2148C152.116 62.4881 152.055 62.7159 151.934 62.8981C151.828 63.0652 151.607 63.1487 151.273 63.1487ZM150.544 73.4219V64.151H152.002V73.4219H150.544ZM154.138 73.4219V64.151H155.391L155.641 66.4516H155.687C155.702 66.3757 155.77 66.2162 155.892 65.9733C156.013 65.7303 156.196 65.4721 156.439 65.1988C156.697 64.9103 157.031 64.6673 157.441 64.4699C157.851 64.2573 158.375 64.151 159.012 64.151C159.817 64.151 160.448 64.2952 160.903 64.5838C161.374 64.8723 161.723 65.2595 161.951 65.7455C162.179 66.2162 162.323 66.725 162.384 67.2716C162.444 67.8183 162.475 68.3422 162.475 68.8434V73.4219H161.063V68.8434C161.063 67.8411 160.888 67.0287 160.539 66.4061C160.205 65.7834 159.536 65.4721 158.534 65.4721C157.851 65.4721 157.289 65.6392 156.849 65.9733C156.423 66.2922 156.112 66.725 155.915 67.2716C155.732 67.8031 155.641 68.3878 155.641 69.0256V73.4219H154.138ZM173.923 73.6497C172.906 73.6497 172.063 73.4219 171.395 72.9663C170.742 72.4955 170.256 71.8957 169.937 71.1668C169.633 70.4227 169.481 69.6558 169.481 68.8661C169.481 68.0006 169.648 67.2109 169.983 66.4972C170.332 65.7683 170.833 65.1912 171.486 64.766C172.154 64.3408 172.951 64.1282 173.878 64.1282C175.062 64.1282 176.049 64.5154 176.839 65.2899C177.629 66.0492 178.054 67.0742 178.115 68.365C178.13 68.4258 178.137 68.5169 178.137 68.6384C178.137 68.7447 178.137 68.8434 178.137 68.9345H170.894C170.894 70.0127 171.152 70.8631 171.668 71.4857C172.2 72.0931 172.944 72.3968 173.9 72.3968C174.614 72.3968 175.222 72.2146 175.723 71.8501C176.239 71.4857 176.558 70.9922 176.679 70.3695H178.115C177.963 71.3111 177.515 72.0931 176.771 72.7157C176.026 73.3384 175.077 73.6497 173.923 73.6497ZM170.939 68.1372H176.634C176.634 67.8183 176.543 67.4387 176.361 66.9983C176.194 66.5579 175.905 66.1783 175.495 65.8594C175.1 65.5253 174.553 65.3582 173.855 65.3582C173.217 65.3582 172.693 65.4949 172.283 65.7683C171.873 66.0416 171.562 66.3909 171.349 66.8161C171.137 67.2413 171 67.6817 170.939 68.1372ZM186.615 64.151H188.073V64.4699L184.565 73.4219H182.492L178.961 64.4699V64.151H180.419L183.517 72.2146H183.563L186.615 64.151ZM193.432 73.6497C192.414 73.6497 191.572 73.4219 190.903 72.9663C190.25 72.4955 189.765 71.8957 189.446 71.1668C189.142 70.4227 188.99 69.6558 188.99 68.8661C188.99 68.0006 189.157 67.2109 189.491 66.4972C189.84 65.7683 190.342 65.1912 190.995 64.766C191.663 64.3408 192.46 64.1282 193.386 64.1282C194.571 64.1282 195.558 64.5154 196.348 65.2899C197.137 66.0492 197.562 67.0742 197.623 68.365C197.638 68.4258 197.646 68.5169 197.646 68.6384C197.646 68.7447 197.646 68.8434 197.646 68.9345H190.402C190.402 70.0127 190.66 70.8631 191.177 71.4857C191.708 72.0931 192.452 72.3968 193.409 72.3968C194.123 72.3968 194.73 72.2146 195.231 71.8501C195.748 71.4857 196.067 70.9922 196.188 70.3695H197.623C197.471 71.3111 197.023 72.0931 196.279 72.7157C195.535 73.3384 194.586 73.6497 193.432 73.6497ZM190.448 68.1372H196.143C196.143 67.8183 196.051 67.4387 195.869 66.9983C195.702 66.5579 195.414 66.1783 195.004 65.8594C194.609 65.5253 194.062 65.3582 193.364 65.3582C192.726 65.3582 192.202 65.4949 191.792 65.7683C191.382 66.0416 191.071 66.3909 190.858 66.8161C190.645 67.2413 190.509 67.6817 190.448 68.1372ZM199.723 73.4219V64.151H201.044L201.203 66.5883C201.294 66.1783 201.477 65.7834 201.75 65.4038C202.023 65.0242 202.395 64.7204 202.866 64.4927C203.352 64.2497 203.952 64.1358 204.666 64.151H205.098V65.7683H204.643C203.671 65.7683 202.934 65.9125 202.433 66.2011C201.947 66.4744 201.613 66.8616 201.431 67.3628C201.264 67.8639 201.181 68.4409 201.181 69.0939V73.4219H199.723ZM206.035 77.5676V76.3831H207.311C207.615 76.3831 207.865 76.2996 208.063 76.1325C208.26 75.9807 208.503 75.601 208.791 74.9936L209.771 72.8752L206.126 64.151H207.653L210.5 71.3262L213.529 64.151H215.078L210.113 75.1986C209.809 75.882 209.536 76.3907 209.293 76.7248C209.065 77.074 208.807 77.3018 208.518 77.4081C208.23 77.5144 207.865 77.5676 207.425 77.5676H206.035ZM226.821 73.6497C226.229 73.6497 225.72 73.551 225.295 73.3535C224.885 73.1409 224.551 72.898 224.293 72.6246C224.035 72.3513 223.837 72.0931 223.701 71.8501C223.579 71.6072 223.503 71.4477 223.473 71.3718H223.427V77.2487H221.924V64.151H223.177L223.427 66.4744H223.473C223.503 66.3985 223.579 66.239 223.701 65.996C223.822 65.7531 224.004 65.4873 224.247 65.1988C224.506 64.9103 224.84 64.6673 225.25 64.4699C225.675 64.2573 226.199 64.151 226.821 64.151C227.717 64.151 228.462 64.356 229.054 64.766C229.661 65.176 230.117 65.7455 230.42 66.4744C230.739 67.1881 230.899 68.0082 230.899 68.9345C230.899 70.3164 230.55 71.4477 229.851 72.3285C229.152 73.2093 228.143 73.6497 226.821 73.6497ZM226.525 72.3513C227.239 72.3513 227.809 72.1842 228.234 71.8501C228.674 71.5161 228.985 71.0909 229.168 70.5745C229.365 70.043 229.464 69.4888 229.464 68.9117C229.464 68.3195 229.357 67.7652 229.145 67.2489C228.932 66.7326 228.598 66.3149 228.143 65.996C227.702 65.662 227.118 65.4949 226.389 65.4949C225.508 65.4949 224.802 65.8062 224.27 66.4288C223.739 67.0363 223.473 67.8639 223.473 68.9117C223.473 69.9747 223.754 70.8175 224.316 71.4401C224.878 72.0476 225.614 72.3513 226.525 72.3513ZM233.623 63.1487C233.289 63.1487 233.061 63.0652 232.94 62.8981C232.834 62.7159 232.781 62.4881 232.781 62.2148C232.781 61.987 232.834 61.7896 232.94 61.6225C233.061 61.4403 233.289 61.3492 233.623 61.3492C233.957 61.3492 234.178 61.4403 234.284 61.6225C234.405 61.7896 234.466 61.987 234.466 62.2148C234.466 62.4881 234.405 62.7159 234.284 62.8981C234.178 63.0652 233.957 63.1487 233.623 63.1487ZM232.894 73.4219V64.151H234.352V73.4219H232.894ZM235.85 73.4219L239.244 68.6384L236.01 64.151H237.672L240.178 67.7044L242.684 64.151H244.347L241.112 68.6384L244.552 73.4219H242.866L240.178 69.5951L237.49 73.4219H235.85ZM250.223 73.6497C249.205 73.6497 248.362 73.4219 247.694 72.9663C247.041 72.4955 246.555 71.8957 246.236 71.1668C245.933 70.4227 245.781 69.6558 245.781 68.8661C245.781 68.0006 245.948 67.2109 246.282 66.4972C246.631 65.7683 247.132 65.1912 247.785 64.766C248.454 64.3408 249.251 64.1282 250.177 64.1282C251.362 64.1282 252.349 64.5154 253.138 65.2899C253.928 66.0492 254.353 67.0742 254.414 68.365C254.429 68.4258 254.437 68.5169 254.437 68.6384C254.437 68.7447 254.437 68.8434 254.437 68.9345H247.193C247.193 70.0127 247.451 70.8631 247.968 71.4857C248.499 72.0931 249.243 72.3968 250.2 72.3968C250.914 72.3968 251.521 72.2146 252.022 71.8501C252.539 71.4857 252.857 70.9922 252.979 70.3695H254.414C254.262 71.3111 253.814 72.0931 253.07 72.7157C252.326 73.3384 251.377 73.6497 250.223 73.6497ZM247.239 68.1372H252.933C252.933 67.8183 252.842 67.4387 252.66 66.9983C252.493 66.5579 252.204 66.1783 251.794 65.8594C251.4 65.5253 250.853 65.3582 250.154 65.3582C249.517 65.3582 248.993 65.4949 248.583 65.7683C248.173 66.0416 247.861 66.3909 247.649 66.8161C247.436 67.2413 247.299 67.6817 247.239 68.1372ZM256.605 73.4219V60.5975H258.04V73.4219H256.605Z" fill="white"/>
</svg>
