<svg width="18" height="18" viewBox="0 0 18 18" fill="none" xmlns="http://www.w3.org/2000/svg">
<path d="M14.9961 3H2.99609C2.17109 3 1.50359 3.675 1.50359 4.5L1.49609 13.5C1.49609 14.325 2.17109 15 2.99609 15H14.9961C15.8211 15 16.4961 14.325 16.4961 13.5V4.5C16.4961 3.675 15.8211 3 14.9961 3ZM14.6961 6.1875L9.39359 9.5025C9.15359 9.6525 8.83859 9.6525 8.59859 9.5025L3.29609 6.1875C3.22089 6.14528 3.15503 6.08825 3.10251 6.01984C3.04999 5.95144 3.01189 5.87308 2.99053 5.78953C2.96916 5.70597 2.96497 5.61895 2.97821 5.53373C2.99145 5.44851 3.02185 5.36686 3.06755 5.29373C3.11326 5.22059 3.17334 5.15749 3.24414 5.10825C3.31494 5.059 3.395 5.02463 3.47947 5.00722C3.56393 4.98981 3.65106 4.98973 3.73556 5.00696C3.82006 5.0242 3.90019 5.0584 3.97109 5.1075L8.99609 8.25L14.0211 5.1075C14.092 5.0584 14.1721 5.0242 14.2566 5.00696C14.3411 4.98973 14.4283 4.98981 14.5127 5.00722C14.5972 5.02463 14.6772 5.059 14.748 5.10825C14.8188 5.15749 14.8789 5.22059 14.9246 5.29373C14.9703 5.36686 15.0007 5.44851 15.014 5.53373C15.0272 5.61895 15.023 5.70597 15.0017 5.78953C14.9803 5.87308 14.9422 5.95144 14.8897 6.01984C14.8372 6.08825 14.7713 6.14528 14.6961 6.1875Z" fill="white"/>
</svg>
