<svg width="28" height="28" viewBox="0 0 28 28" fill="none" xmlns="http://www.w3.org/2000/svg">
<path d="M13.9987 2.33203C7.5587 2.33203 2.33203 7.5587 2.33203 13.9987C2.33203 20.4387 7.5587 25.6654 13.9987 25.6654C20.4387 25.6654 25.6654 20.4387 25.6654 13.9987C25.6654 7.5587 20.4387 2.33203 13.9987 2.33203ZM19.412 10.2654C19.237 12.1087 18.4787 16.5887 18.0937 18.6537C17.9304 19.5287 17.6037 19.8204 17.3004 19.8554C16.6237 19.9137 16.1104 19.412 15.457 18.9804C14.4304 18.3037 13.847 17.8837 12.8554 17.2304C11.7004 16.472 12.447 16.052 13.112 15.3754C13.287 15.2004 16.2737 12.482 16.332 12.237C16.3401 12.1999 16.3391 12.1614 16.3289 12.1248C16.3187 12.0882 16.2998 12.0546 16.2737 12.027C16.2037 11.9687 16.1104 11.992 16.0287 12.0037C15.9237 12.027 14.2904 13.112 11.1054 15.2587C10.6387 15.5737 10.2187 15.737 9.84536 15.7254C9.42536 15.7137 8.63203 15.492 8.03703 15.2937C7.30203 15.0604 6.73036 14.932 6.77703 14.5237C6.80036 14.3137 7.09203 14.1037 7.64037 13.882C11.047 12.4004 13.3104 11.4204 14.442 10.9537C17.6854 9.60037 18.3504 9.36703 18.7937 9.36703C18.887 9.36703 19.1087 9.39036 19.2487 9.50703C19.3654 9.60036 19.4004 9.7287 19.412 9.82203C19.4004 9.89203 19.4237 10.102 19.412 10.2654Z" fill="white"/>
</svg>
