<?xml version="1.0" encoding="UTF-8"?>

<svg xmlns="http://www.w3.org/2000/svg" xmlns:xlink="http://www.w3.org/1999/xlink" width="0" height="0">

  <symbol id="footer-instagram" viewBox="0 0 28 28">
    <path d="M14.653 3C15.909 3.00335 16.5465 3.01005 17.0969 3.02568L17.3135 3.03349C17.5636 3.04243 17.8103 3.05359 18.1084 3.06699C19.2964 3.12281 20.1069 3.31038 20.8181 3.58615C21.555 3.86973 22.1758 4.2538 22.7965 4.87344C23.3642 5.43156 23.8035 6.10669 24.0838 6.85183C24.3596 7.56303 24.5472 8.37359 24.603 9.56263C24.6164 9.85962 24.6275 10.1064 24.6365 10.3576L24.6432 10.5742C24.6599 11.1235 24.6666 11.761 24.6689 13.017L24.67 13.8499V15.3125C24.6727 16.1268 24.6641 16.9412 24.6443 17.7553L24.6376 17.9719C24.6287 18.2231 24.6175 18.4699 24.6041 18.7668C24.5483 19.9559 24.3585 20.7653 24.0838 21.4776C23.8043 22.2232 23.3649 22.8985 22.7965 23.456C22.2382 24.0236 21.5632 24.4628 20.8181 24.7433C20.1069 25.0191 19.2964 25.2067 18.1084 25.2625C17.8435 25.275 17.5786 25.2861 17.3135 25.296L17.0969 25.3027C16.5465 25.3183 15.909 25.3261 14.653 25.3284L13.8201 25.3295H12.3586C11.5439 25.3323 10.7291 25.3237 9.91465 25.3038L9.69805 25.2971C9.43301 25.2871 9.16803 25.2755 8.90312 25.2625C7.71519 25.2067 6.90463 25.0191 6.19232 24.7433C5.44727 24.4635 4.77241 24.0242 4.21505 23.456C3.64681 22.8981 3.20712 22.223 2.92664 21.4776C2.65087 20.7664 2.4633 19.9559 2.40748 18.7668C2.39504 18.5019 2.38387 18.2369 2.37398 17.9719L2.3684 17.7553C2.34783 16.9412 2.33852 16.1268 2.34049 15.3125V13.017C2.33737 12.2026 2.34556 11.3883 2.36505 10.5742L2.37287 10.3576C2.3818 10.1064 2.39296 9.85962 2.40636 9.56263C2.46218 8.37359 2.64975 7.56415 2.92552 6.85183C3.20588 6.10592 3.64645 5.43059 4.21616 4.87344C4.77339 4.30569 5.4478 3.86637 6.19232 3.58615C6.90463 3.31038 7.71408 3.12281 8.90312 3.06699C9.2001 3.05359 9.44796 3.04243 9.69805 3.03349L9.91465 3.0268C10.7288 3.00696 11.5431 2.9984 12.3575 3.00112L14.653 3ZM13.5052 8.58237C12.0247 8.58237 10.6048 9.17051 9.5579 10.2174C8.511 11.2643 7.92286 12.6842 7.92286 14.1647C7.92286 15.6453 8.511 17.0652 9.5579 18.1121C10.6048 19.159 12.0247 19.7471 13.5052 19.7471C14.9858 19.7471 16.4057 19.159 17.4526 18.1121C18.4995 17.0652 19.0876 15.6453 19.0876 14.1647C19.0876 12.6842 18.4995 11.2643 17.4526 10.2174C16.4057 9.17051 14.9858 8.58237 13.5052 8.58237ZM13.5052 10.8153C13.9451 10.8152 14.3806 10.9018 14.787 11.0701C15.1934 11.2383 15.5627 11.485 15.8738 11.7959C16.1849 12.1069 16.4316 12.4761 16.6 12.8825C16.7684 13.2888 16.8551 13.7243 16.8552 14.1642C16.8553 14.604 16.7687 15.0396 16.6005 15.446C16.4322 15.8524 16.1855 16.2217 15.8746 16.5327C15.5636 16.8438 15.1944 17.0906 14.7881 17.259C14.3817 17.4274 13.9462 17.5141 13.5063 17.5142C12.618 17.5142 11.7661 17.1613 11.1379 16.5331C10.5098 15.905 10.1569 15.0531 10.1569 14.1647C10.1569 13.2764 10.5098 12.4245 11.1379 11.7963C11.7661 11.1682 12.618 10.8153 13.5063 10.8153M19.3678 6.90766C18.9977 6.90766 18.6427 7.05469 18.381 7.31642C18.1193 7.57814 17.9722 7.93312 17.9722 8.30325C17.9722 8.67339 18.1193 9.02836 18.381 9.29008C18.6427 9.55181 18.9977 9.69884 19.3678 9.69884C19.738 9.69884 20.0929 9.55181 20.3547 9.29008C20.6164 9.02836 20.7634 8.67339 20.7634 8.30325C20.7634 7.93312 20.6164 7.57814 20.3547 7.31642C20.0929 7.05469 19.738 6.90766 19.3678 6.90766Z"/>
  </symbol>

  <symbol id="footer-telegram" viewBox="0 0 28 28">
    <path d="M13.9987 2.33203C7.5587 2.33203 2.33203 7.5587 2.33203 13.9987C2.33203 20.4387 7.5587 25.6654 13.9987 25.6654C20.4387 25.6654 25.6654 20.4387 25.6654 13.9987C25.6654 7.5587 20.4387 2.33203 13.9987 2.33203ZM19.412 10.2654C19.237 12.1087 18.4787 16.5887 18.0937 18.6537C17.9304 19.5287 17.6037 19.8204 17.3004 19.8554C16.6237 19.9137 16.1104 19.412 15.457 18.9804C14.4304 18.3037 13.847 17.8837 12.8554 17.2304C11.7004 16.472 12.447 16.052 13.112 15.3754C13.287 15.2004 16.2737 12.482 16.332 12.237C16.3401 12.1999 16.3391 12.1614 16.3289 12.1248C16.3187 12.0882 16.2998 12.0546 16.2737 12.027C16.2037 11.9687 16.1104 11.992 16.0287 12.0037C15.9237 12.027 14.2904 13.112 11.1054 15.2587C10.6387 15.5737 10.2187 15.737 9.84536 15.7254C9.42536 15.7137 8.63203 15.492 8.03703 15.2937C7.30203 15.0604 6.73036 14.932 6.77703 14.5237C6.80036 14.3137 7.09203 14.1037 7.64037 13.882C11.047 12.4004 13.3104 11.4204 14.442 10.9537C17.6854 9.60037 18.3504 9.36703 18.7937 9.36703C18.887 9.36703 19.1087 9.39036 19.2487 9.50703C19.3654 9.60036 19.4004 9.7287 19.412 9.82203C19.4004 9.89203 19.4237 10.102 19.412 10.2654Z"/>
  </symbol>

  <symbol id="footer-viber" viewBox="0 0 28 28">
    <path fill-rule="evenodd" clip-rule="evenodd" d="M19.4568 3.06459C15.7862 2.2441 11.9798 2.2441 8.30928 3.06459L7.91378 3.15209C6.8813 3.38293 5.93303 3.89547 5.1743 4.63278C4.41557 5.37009 3.87609 6.30331 3.61578 7.32875C2.68536 10.995 2.68536 14.8356 3.61578 18.5019C3.86402 19.4799 4.36642 20.3748 5.07206 21.096C5.77769 21.8173 6.66146 22.3391 7.63378 22.6086L8.17628 25.8473C8.1936 25.9501 8.23817 26.0464 8.30536 26.1262C8.37254 26.2059 8.45988 26.2662 8.55828 26.3008C8.65668 26.3353 8.76254 26.3429 8.86484 26.3226C8.96715 26.3023 9.06215 26.255 9.13995 26.1856L12.3261 23.3354C14.7179 23.4814 17.1183 23.2901 19.4568 22.7673L19.8535 22.6798C20.8859 22.4489 21.8342 21.9364 22.5929 21.1991C23.3517 20.4618 23.8911 19.5285 24.1515 18.5031C25.0818 14.8368 25.0818 10.9962 24.1515 7.32992C23.8911 6.30432 23.3514 5.37101 22.5925 4.63368C21.8335 3.89636 20.885 3.3839 19.8523 3.15325L19.4568 3.06459ZM9.29395 7.23425C9.07712 7.20269 8.85602 7.24634 8.66745 7.35792H8.65112C8.21362 7.61459 7.81928 7.93775 7.48328 8.31809C7.20328 8.64125 7.05162 8.96792 7.01195 9.28292C6.98862 9.46959 7.00495 9.65859 7.05978 9.83709L7.08078 9.84875C7.39578 10.7739 7.80645 11.6641 8.30812 12.5018C8.95498 13.6783 9.751 14.7665 10.6764 15.7393L10.7045 15.7789L10.7488 15.8116L10.7756 15.8431L10.8083 15.8711C11.7845 16.7993 12.8752 17.5991 14.0539 18.2511C15.4015 18.9849 16.2193 19.3314 16.7104 19.4761V19.4831C16.8539 19.5274 16.9846 19.5473 17.1164 19.5473C17.5348 19.5163 17.9307 19.3463 18.2411 19.0643C18.6203 18.7283 18.9411 18.3328 19.1908 17.8929V17.8848C19.4253 17.4414 19.3459 17.0238 19.0076 16.7403C18.328 16.1465 17.5932 15.6191 16.8131 15.1653C16.2904 14.8818 15.7596 15.0533 15.5449 15.3403L15.0864 15.9189C14.8508 16.2059 14.4238 16.1663 14.4238 16.1663L14.4121 16.1733C11.226 15.3601 10.3755 12.1343 10.3755 12.1343C10.3755 12.1343 10.3358 11.6956 10.631 11.4716L11.205 11.0096C11.4803 10.7856 11.6716 10.2559 11.3765 9.73325C10.9257 8.95248 10.3993 8.21784 9.80495 7.53992C9.67532 7.38037 9.49353 7.27171 9.29162 7.23309L9.29395 7.23425ZM14.677 5.83192C14.5222 5.83192 14.3739 5.89338 14.2645 6.00278C14.1551 6.11217 14.0936 6.26055 14.0936 6.41525C14.0936 6.56996 14.1551 6.71834 14.2645 6.82773C14.3739 6.93713 14.5222 6.99859 14.677 6.99859C16.1528 6.99859 17.3778 7.48042 18.3473 8.40442C18.8455 8.90959 19.2339 9.50809 19.4883 10.1638C19.7438 10.8206 19.8605 11.5218 19.8301 12.2241C19.8269 12.3007 19.8388 12.3772 19.8651 12.4492C19.8915 12.5212 19.9318 12.5873 19.9836 12.6437C20.0884 12.7577 20.2342 12.8254 20.389 12.8319C20.5437 12.8384 20.6946 12.7832 20.8086 12.6784C20.9226 12.5736 20.9903 12.4278 20.9968 12.2731C21.033 11.4092 20.8896 10.5471 20.5756 9.74142C20.2603 8.93191 19.7822 8.19573 19.1709 7.57842L19.1593 7.56675C17.9564 6.41759 16.434 5.83192 14.677 5.83192ZM14.6373 7.74992C14.4826 7.74992 14.3342 7.81138 14.2248 7.92078C14.1154 8.03017 14.0539 8.17854 14.0539 8.33325C14.0539 8.48796 14.1154 8.63634 14.2248 8.74573C14.3342 8.85513 14.4826 8.91659 14.6373 8.91659H14.6571C15.7211 8.99242 16.4958 9.34709 17.0383 9.92925C17.5948 10.5289 17.8829 11.2744 17.8608 12.1961C17.8572 12.3508 17.9153 12.5006 18.0222 12.6125C18.129 12.7244 18.276 12.7893 18.4307 12.7928C18.5854 12.7964 18.7352 12.7383 18.8471 12.6315C18.959 12.5246 19.0239 12.3776 19.0275 12.2229C19.0555 11.0131 18.6658 9.96892 17.8934 9.13592V9.13359C17.1036 8.28659 16.0198 7.83859 14.7155 7.75109L14.6956 7.74875L14.6373 7.74992ZM14.6151 9.70409C14.5371 9.6972 14.4584 9.70611 14.3839 9.73029C14.3093 9.75448 14.2404 9.79343 14.1812 9.84483C14.1221 9.89623 14.0739 9.95903 14.0395 10.0295C14.0052 10.0999 13.9854 10.1765 13.9813 10.2548C13.9772 10.3331 13.989 10.4114 14.0158 10.485C14.0426 10.5586 14.0841 10.6261 14.1375 10.6833C14.191 10.7406 14.2555 10.7865 14.3272 10.8183C14.3988 10.8501 14.4761 10.8672 14.5545 10.8684C15.0421 10.8941 15.3536 11.0411 15.5496 11.2383C15.7468 11.4366 15.8938 11.7551 15.9206 12.2533C15.9221 12.3315 15.9393 12.4087 15.9712 12.4802C16.0031 12.5517 16.0491 12.6161 16.1064 12.6694C16.1637 12.7227 16.2312 12.764 16.3048 12.7907C16.3784 12.8174 16.4566 12.8291 16.5348 12.8249C16.613 12.8208 16.6895 12.8009 16.7599 12.7666C16.8302 12.7322 16.8929 12.684 16.9443 12.6249C16.9956 12.5658 17.0345 12.4969 17.0587 12.4225C17.0829 12.348 17.0918 12.2694 17.0849 12.1914C17.0476 11.4914 16.8283 10.8731 16.3791 10.4181C15.9276 9.96309 15.3128 9.74142 14.6151 9.70409Z"/>
  </symbol>

  <symbol id="footer-youtube" viewBox="0 0 28 28">
    <path fill-rule="evenodd" clip-rule="evenodd" d="M14 4C15.1115 4 16.2516 4.0286 17.3566 4.0754L18.6618 4.1378L19.9111 4.2119L21.0811 4.2912L22.1497 4.3744C23.3094 4.46316 24.4006 4.95803 25.2314 5.77195C26.0622 6.58587 26.5794 7.6667 26.6919 8.8243L26.7439 9.3768L26.8414 10.5598C26.9324 11.7857 27 13.1221 27 14.4C27 15.6779 26.9324 17.0143 26.8414 18.2402L26.7439 19.4232C26.727 19.613 26.7101 19.7963 26.6919 19.9757C26.5793 21.1335 26.062 22.2145 25.2309 23.0284C24.3998 23.8424 23.3083 24.3371 22.1484 24.4256L21.0824 24.5075L19.9124 24.5881L18.6618 24.6622L17.3566 24.7246C16.2384 24.7732 15.1193 24.7983 14 24.8C12.8807 24.7983 11.7616 24.7732 10.6434 24.7246L9.3382 24.6622L8.0889 24.5881L6.9189 24.5075L5.8503 24.4256C4.69064 24.3368 3.59942 23.842 2.76861 23.028C1.93781 22.2141 1.42065 21.1333 1.3081 19.9757L1.2561 19.4232L1.1586 18.2402C1.0592 16.9625 1.0063 15.6816 1 14.4C1 13.1221 1.0676 11.7857 1.1586 10.5598L1.2561 9.3768C1.273 9.187 1.2899 9.0037 1.3081 8.8243C1.4206 7.66691 1.93758 6.58624 2.76812 5.77235C3.59866 4.95845 4.68957 4.46345 5.849 4.3744L6.9163 4.2912L8.0863 4.2119L9.3369 4.1378L10.6421 4.0754C11.7607 4.02682 12.8803 4.00168 14 4ZM11.4 11.2475V17.5525C11.4 18.1531 12.05 18.5275 12.57 18.2285L18.03 15.076C18.1488 15.0076 18.2475 14.9091 18.3161 14.7904C18.3847 14.6718 18.4209 14.5371 18.4209 14.4C18.4209 14.2629 18.3847 14.1282 18.3161 14.0096C18.2475 13.8909 18.1488 13.7924 18.03 13.724L12.57 10.5728C12.4514 10.5043 12.3168 10.4683 12.1799 10.4683C12.0429 10.4683 11.9084 10.5044 11.7898 10.5729C11.6712 10.6414 11.5727 10.74 11.5043 10.8586C11.4359 10.9773 11.3999 11.1118 11.4 11.2488V11.2475Z"/>
  </symbol>

  <symbol id="footer-ticktock" viewBox="0 0 28 28">
    <path fill-rule="evenodd" clip-rule="evenodd" d="M25.4405 6.15201C25.4405 4.44573 24.0573 3.0625 22.351 3.0625H6.65006C4.94377 3.0625 3.56055 4.44573 3.56055 6.15201V21.853C3.56055 23.5593 4.94377 24.9425 6.65006 24.9425H22.351C24.0573 24.9425 25.4405 23.5593 25.4405 21.853V6.15201ZM21.687 12.6054C20.2753 12.6211 18.9599 12.1944 17.805 11.4039V16.9526C17.805 19.4186 16.117 21.537 13.73 22.0902C10.4735 22.8332 7.71668 20.4778 7.36898 17.664C7.00539 14.8501 8.79999 12.3841 11.5506 11.8308C12.088 11.7201 12.8964 11.7201 13.3135 11.815V14.7869C13.1852 14.7553 13.065 14.7237 12.9386 14.7079C11.8636 14.5182 10.8225 15.0556 10.3956 16.0357C9.96884 17.0159 10.2545 18.154 11.1239 18.818C11.8511 19.3871 12.6579 19.4661 13.4799 19.0867C14.3019 18.7232 14.7437 18.0592 14.8385 17.1582C14.8543 17.0318 14.8534 16.8894 14.8534 16.7472V6.07663C14.8534 5.7763 14.8558 5.7894 15.1562 5.7894H17.5115C17.6855 5.7894 17.7487 5.81443 17.7645 6.02005C17.8909 7.85378 19.2832 9.41547 21.0694 9.65262C21.2592 9.68421 21.4624 9.69673 21.687 9.71252V12.6054Z" />
  </symbol>

</svg>
