<svg width="28" height="28" viewBox="0 0 28 28" fill="none" xmlns="http://www.w3.org/2000/svg">
<path fill-rule="evenodd" clip-rule="evenodd" d="M19.4568 3.06459C15.7862 2.2441 11.9798 2.2441 8.30928 3.06459L7.91378 3.15209C6.8813 3.38293 5.93303 3.89547 5.1743 4.63278C4.41557 5.37009 3.87609 6.30331 3.61578 7.32875C2.68536 10.995 2.68536 14.8356 3.61578 18.5019C3.86402 19.4799 4.36642 20.3748 5.07206 21.096C5.77769 21.8173 6.66146 22.3391 7.63378 22.6086L8.17628 25.8473C8.1936 25.9501 8.23817 26.0464 8.30536 26.1262C8.37254 26.2059 8.45988 26.2662 8.55828 26.3008C8.65668 26.3353 8.76254 26.3429 8.86484 26.3226C8.96715 26.3023 9.06215 26.255 9.13995 26.1856L12.3261 23.3354C14.7179 23.4814 17.1183 23.2901 19.4568 22.7673L19.8535 22.6798C20.8859 22.4489 21.8342 21.9364 22.5929 21.1991C23.3517 20.4618 23.8911 19.5285 24.1515 18.5031C25.0818 14.8368 25.0818 10.9962 24.1515 7.32992C23.8911 6.30432 23.3514 5.37101 22.5925 4.63368C21.8335 3.89636 20.885 3.3839 19.8523 3.15325L19.4568 3.06459ZM9.29395 7.23425C9.07712 7.20269 8.85602 7.24634 8.66745 7.35792H8.65112C8.21362 7.61459 7.81928 7.93775 7.48328 8.31809C7.20328 8.64125 7.05162 8.96792 7.01195 9.28292C6.98862 9.46959 7.00495 9.65859 7.05978 9.83709L7.08078 9.84875C7.39578 10.7739 7.80645 11.6641 8.30812 12.5018C8.95498 13.6783 9.751 14.7665 10.6764 15.7393L10.7045 15.7789L10.7488 15.8116L10.7756 15.8431L10.8083 15.8711C11.7845 16.7993 12.8752 17.5991 14.0539 18.2511C15.4015 18.9849 16.2193 19.3314 16.7104 19.4761V19.4831C16.8539 19.5274 16.9846 19.5473 17.1164 19.5473C17.5348 19.5163 17.9307 19.3463 18.2411 19.0643C18.6203 18.7283 18.9411 18.3328 19.1908 17.8929V17.8848C19.4253 17.4414 19.3459 17.0238 19.0076 16.7403C18.328 16.1465 17.5932 15.6191 16.8131 15.1653C16.2904 14.8818 15.7596 15.0533 15.5449 15.3403L15.0864 15.9189C14.8508 16.2059 14.4238 16.1663 14.4238 16.1663L14.4121 16.1733C11.226 15.3601 10.3755 12.1343 10.3755 12.1343C10.3755 12.1343 10.3358 11.6956 10.631 11.4716L11.205 11.0096C11.4803 10.7856 11.6716 10.2559 11.3765 9.73325C10.9257 8.95248 10.3993 8.21784 9.80495 7.53992C9.67532 7.38037 9.49353 7.27171 9.29162 7.23309L9.29395 7.23425ZM14.677 5.83192C14.5222 5.83192 14.3739 5.89338 14.2645 6.00278C14.1551 6.11217 14.0936 6.26055 14.0936 6.41525C14.0936 6.56996 14.1551 6.71834 14.2645 6.82773C14.3739 6.93713 14.5222 6.99859 14.677 6.99859C16.1528 6.99859 17.3778 7.48042 18.3473 8.40442C18.8455 8.90959 19.2339 9.50809 19.4883 10.1638C19.7438 10.8206 19.8605 11.5218 19.8301 12.2241C19.8269 12.3007 19.8388 12.3772 19.8651 12.4492C19.8915 12.5212 19.9318 12.5873 19.9836 12.6437C20.0884 12.7577 20.2342 12.8254 20.389 12.8319C20.5437 12.8384 20.6946 12.7832 20.8086 12.6784C20.9226 12.5736 20.9903 12.4278 20.9968 12.2731C21.033 11.4092 20.8896 10.5471 20.5756 9.74142C20.2603 8.93191 19.7822 8.19573 19.1709 7.57842L19.1593 7.56675C17.9564 6.41759 16.434 5.83192 14.677 5.83192ZM14.6373 7.74992C14.4826 7.74992 14.3342 7.81138 14.2248 7.92078C14.1154 8.03017 14.0539 8.17854 14.0539 8.33325C14.0539 8.48796 14.1154 8.63634 14.2248 8.74573C14.3342 8.85513 14.4826 8.91659 14.6373 8.91659H14.6571C15.7211 8.99242 16.4958 9.34709 17.0383 9.92925C17.5948 10.5289 17.8829 11.2744 17.8608 12.1961C17.8572 12.3508 17.9153 12.5006 18.0222 12.6125C18.129 12.7244 18.276 12.7893 18.4307 12.7928C18.5854 12.7964 18.7352 12.7383 18.8471 12.6315C18.959 12.5246 19.0239 12.3776 19.0275 12.2229C19.0555 11.0131 18.6658 9.96892 17.8934 9.13592V9.13359C17.1036 8.28659 16.0198 7.83859 14.7155 7.75109L14.6956 7.74875L14.6373 7.74992ZM14.6151 9.70409C14.5371 9.6972 14.4584 9.70611 14.3839 9.73029C14.3093 9.75448 14.2404 9.79343 14.1812 9.84483C14.1221 9.89623 14.0739 9.95903 14.0395 10.0295C14.0052 10.0999 13.9854 10.1765 13.9813 10.2548C13.9772 10.3331 13.989 10.4114 14.0158 10.485C14.0426 10.5586 14.0841 10.6261 14.1375 10.6833C14.191 10.7406 14.2555 10.7865 14.3272 10.8183C14.3988 10.8501 14.4761 10.8672 14.5545 10.8684C15.0421 10.8941 15.3536 11.0411 15.5496 11.2383C15.7468 11.4366 15.8938 11.7551 15.9206 12.2533C15.9221 12.3315 15.9393 12.4087 15.9712 12.4802C16.0031 12.5517 16.0491 12.6161 16.1064 12.6694C16.1637 12.7227 16.2312 12.764 16.3048 12.7907C16.3784 12.8174 16.4566 12.8291 16.5348 12.8249C16.613 12.8208 16.6895 12.8009 16.7599 12.7666C16.8302 12.7322 16.8929 12.684 16.9443 12.6249C16.9956 12.5658 17.0345 12.4969 17.0587 12.4225C17.0829 12.348 17.0918 12.2694 17.0849 12.1914C17.0476 11.4914 16.8283 10.8731 16.3791 10.4181C15.9276 9.96309 15.3128 9.74142 14.6151 9.70409Z" fill="white"/>
</svg>
