<svg width="187" height="51" viewBox="0 0 187 51" fill="none" xmlns="http://www.w3.org/2000/svg">
<path d="M0.402451 40.0235V37.2941V34.5647H3.12476H5.86127V37.2941V40.0235H3.12476H0.402451ZM3.81422 40.0235V37.2941V34.5647H6.53652H9.27304V37.2941V40.0235H6.53652H3.81422ZM7.22598 40.0235V37.2941V34.5647H9.94829H12.6848V37.2941V40.0235H9.94829H7.22598ZM10.6377 40.0235V37.2941V34.5647H13.36H16.0966V37.2941V40.0235H13.36H10.6377ZM0.402451 36.6118V33.8824V31.1529H3.12476H5.86127V33.8824V36.6118H3.12476H0.402451ZM14.0495 36.6118V33.8824V31.1529H16.7718H19.5083V33.8824V36.6118H16.7718H14.0495ZM0.402451 33.2V30.4706V27.7412H3.12476H5.86127V30.4706V33.2H3.12476H0.402451ZM14.0495 33.2V30.4706V27.7412H16.7718H19.5083V30.4706V33.2H16.7718H14.0495ZM0.402451 29.7882V27.0588V24.3294H3.12476H5.86127V27.0588V29.7882H3.12476H0.402451ZM14.0495 29.7882V27.0588V24.3294H16.7718H19.5083V27.0588V29.7882H16.7718H14.0495ZM3.81422 28.0824V25.3529V22.6235H6.53652H9.27304V25.3529V28.0824H6.53652H3.81422ZM7.22598 28.0824V25.3529V22.6235H9.94829H12.6848V25.3529V28.0824H9.94829H7.22598ZM10.6377 28.0824V25.3529V22.6235H13.36H16.0966V25.3529V28.0824H13.36H10.6377ZM0.402451 26.3765V23.6471V20.9176H3.12476H5.86127V23.6471V26.3765H3.12476H0.402451ZM0.402451 22.9647V20.2353V17.5059H3.12476H5.86127V20.2353V22.9647H3.12476H0.402451ZM14.0495 22.9647V20.2353V17.5059H16.7718H19.5083V20.2353V22.9647H16.7718H14.0495ZM0.402451 19.5529V16.8235V14.0941H3.12476H5.86127V16.8235V19.5529H3.12476H0.402451ZM14.0495 19.5529V16.8235V14.0941H16.7718H19.5083V16.8235V19.5529H16.7718H14.0495ZM0.402451 16.1412V13.4118V10.6824H3.12476H5.86127V13.4118V16.1412H3.12476H0.402451ZM3.81422 16.1412V13.4118V10.6824H6.53652H9.27304V13.4118V16.1412H6.53652H3.81422ZM7.22598 16.1412V13.4118V10.6824H9.94829H12.6848V13.4118V16.1412H9.94829H7.22598ZM10.6377 16.1412V13.4118V10.6824H13.36H16.0966V13.4118V16.1412H13.36H10.6377ZM24.3048 40.0235V37.2941V34.5647H27.0271H29.7636V37.2941V40.0235H27.0271H24.3048ZM24.3048 36.6118V33.8824V31.1529H27.0271H29.7636V33.8824V36.6118H27.0271H24.3048ZM24.3048 33.2V30.4706V27.7412H27.0271H29.7636V30.4706V33.2H27.0271H24.3048ZM24.3048 29.7882V27.0588V24.3294H27.0271H29.7636V27.0588V29.7882H27.0271H24.3048ZM24.3048 26.3765V23.6471V20.9176H27.0271H29.7636V23.6471V26.3765H27.0271H24.3048ZM24.3048 22.9647V20.2353V17.5059H27.0271H29.7636V20.2353V22.9647H27.0271H24.3048ZM24.3048 19.5529V16.8235V14.0941H27.0271H29.7636V16.8235V19.5529H27.0271H24.3048ZM24.3048 16.1412V13.4118V10.6824H27.0271H29.7636V13.4118V16.1412H27.0271H24.3048ZM24.3048 9.31764V6.58823V3.85882H27.0271H29.7636V6.58823V9.31764H27.0271H24.3048ZM24.3048 5.90588V3.17647V0.447056H27.0271H29.7636V3.17647V5.90588H27.0271H24.3048ZM31.145 46.8471V44.1176V41.3882H33.8673H36.6038V44.1176V46.8471H33.8673H31.145ZM51.6156 46.8471V44.1176V41.3882H54.3379H57.0744V44.1176V46.8471H54.3379H51.6156ZM31.145 43.4353V40.7059V37.9765H33.8673H36.6038V40.7059V43.4353H33.8673H31.145ZM51.6156 43.4353V40.7059V37.9765H54.3379H57.0744V40.7059V43.4353H54.3379H51.6156ZM31.145 40.0235V37.2941V34.5647H33.8673H36.6038V37.2941V40.0235H33.8673H31.145ZM34.5567 40.0235V37.2941V34.5647H37.2791H40.0156V37.2941V40.0235H37.2791H34.5567ZM37.9685 40.0235V37.2941V34.5647H40.6908H43.4273V37.2941V40.0235H40.6908H37.9685ZM41.3803 40.0235V37.2941V34.5647H44.1026H46.8391V37.2941V40.0235H44.1026H41.3803ZM44.792 40.0235V37.2941V34.5647H47.5143H50.2509V37.2941V40.0235H47.5143H44.792ZM48.2038 40.0235V37.2941V34.5647H50.9261H53.6626V37.2941V40.0235H50.9261H48.2038ZM51.6156 40.0235V37.2941V34.5647H54.3379H57.0744V37.2941V40.0235H54.3379H51.6156ZM34.5567 36.6118V33.8824V31.1529H37.2791H40.0156V33.8824V36.6118H37.2791H34.5567ZM48.2038 36.6118V33.8824V31.1529H50.9261H53.6626V33.8824V36.6118H50.9261H48.2038ZM34.5567 33.2V30.4706V27.7412H37.2791H40.0156V30.4706V33.2H37.2791H34.5567ZM48.2038 33.2V30.4706V27.7412H50.9261H53.6626V30.4706V33.2H50.9261H48.2038ZM34.5567 29.7882V27.0588V24.3294H37.2791H40.0156V27.0588V29.7882H37.2791H34.5567ZM48.2038 29.7882V27.0588V24.3294H50.9261H53.6626V27.0588V29.7882H50.9261H48.2038ZM34.5567 26.3765V23.6471V20.9176H37.2791H40.0156V23.6471V26.3765H37.2791H34.5567ZM48.2038 26.3765V23.6471V20.9176H50.9261H53.6626V23.6471V26.3765H50.9261H48.2038ZM34.5567 22.9647V20.2353V17.5059H37.2791H40.0156V20.2353V22.9647H37.2791H34.5567ZM48.2038 22.9647V20.2353V17.5059H50.9261H53.6626V20.2353V22.9647H50.9261H48.2038ZM36.2626 19.5529V16.8235V14.0941H38.9849H41.7215V16.8235V19.5529H38.9849H36.2626ZM48.2038 19.5529V16.8235V14.0941H50.9261H53.6626V16.8235V19.5529H50.9261H48.2038ZM37.9685 16.1412V13.4118V10.6824H40.6908H43.4273V13.4118V16.1412H40.6908H37.9685ZM41.3803 16.1412V13.4118V10.6824H44.1026H46.8391V13.4118V16.1412H44.1026H41.3803ZM44.792 16.1412V13.4118V10.6824H47.5143H50.2509V13.4118V16.1412H47.5143H44.792ZM48.2038 16.1412V13.4118V10.6824H50.9261H53.6626V13.4118V16.1412H50.9261H48.2038ZM72.1228 40.0235V37.2941V34.5647H74.8451H77.5816V37.2941V40.0235H74.8451H72.1228ZM75.5346 40.0235V37.2941V34.5647H78.2569H80.9934V37.2941V40.0235H78.2569H75.5346ZM78.9463 40.0235V37.2941V34.5647H81.6686H84.4052V37.2941V40.0235H81.6686H78.9463ZM68.711 36.6118V33.8824V31.1529H71.4333H74.1699V33.8824V36.6118H71.4333H68.711ZM82.3581 36.6118V33.8824V31.1529H85.0804H87.8169V33.8824V36.6118H85.0804H82.3581ZM68.711 33.2V30.4706V27.7412H71.4333H74.1699V30.4706V33.2H71.4333H68.711ZM82.3581 33.2V30.4706V27.7412H85.0804H87.8169V30.4706V33.2H85.0804H82.3581ZM82.3581 29.7882V27.0588V24.3294H85.0804H87.8169V27.0588V29.7882H85.0804H82.3581ZM82.3581 26.3765V23.6471V20.9176H85.0804H87.8169V23.6471V26.3765H85.0804H82.3581ZM72.1228 22.9647V20.2353V17.5059H74.8451H77.5816V20.2353V22.9647H74.8451H72.1228ZM75.5346 22.9647V20.2353V17.5059H78.2569H80.9934V20.2353V22.9647H78.2569H75.5346ZM78.9463 22.9647V20.2353V17.5059H81.6686H84.4052V20.2353V22.9647H81.6686H78.9463ZM82.3581 22.9647V20.2353V17.5059H85.0804H87.8169V20.2353V22.9647H85.0804H82.3581ZM68.711 19.5529V16.8235V14.0941H71.4333H74.1699V16.8235V19.5529H71.4333H68.711ZM82.3581 19.5529V16.8235V14.0941H85.0804H87.8169V16.8235V19.5529H85.0804H82.3581ZM68.711 16.1412V13.4118V10.6824H71.4333H74.1699V13.4118V16.1412H71.4333H68.711ZM82.3581 16.1412V13.4118V10.6824H85.0804H87.8169V13.4118V16.1412H85.0804H82.3581ZM68.711 12.7294V10V7.27058H71.4333H74.1699V10V12.7294H71.4333H68.711ZM82.3581 12.7294V10V7.27058H85.0804H87.8169V10V12.7294H85.0804H82.3581ZM68.711 9.31764V6.58823V3.85882H71.4333H74.1699V6.58823V9.31764H71.4333H68.711ZM82.3581 9.31764V6.58823V3.85882H85.0804H87.8169V6.58823V9.31764H85.0804H82.3581ZM72.1228 5.90588V3.17647V0.447056H74.8451H77.5816V3.17647V5.90588H74.8451H72.1228ZM75.5346 5.90588V3.17647V0.447056H78.2569H80.9934V3.17647V5.90588H78.2569H75.5346ZM78.9463 5.90588V3.17647V0.447056H81.6686H84.4052V3.17647V5.90588H81.6686H78.9463ZM96.0252 40.0235V37.2941V34.5647H98.7475H101.484V37.2941V40.0235H98.7475H96.0252ZM99.4369 40.0235V37.2941V34.5647H102.159H104.896V37.2941V40.0235H102.159H99.4369ZM102.849 40.0235V37.2941V34.5647H105.571H108.308V37.2941V40.0235H105.571H102.849ZM92.6134 36.6118V33.8824V31.1529H95.3357H98.0722V33.8824V36.6118H95.3357H92.6134ZM106.26 36.6118V33.8824V31.1529H108.983H111.719V33.8824V36.6118H108.983H106.26ZM92.6134 33.2V30.4706V27.7412H95.3357H98.0722V30.4706V33.2H95.3357H92.6134ZM106.26 33.2V30.4706V27.7412H108.983H111.719V30.4706V33.2H108.983H106.26ZM92.6134 29.7882V27.0588V24.3294H95.3357H98.0722V27.0588V29.7882H95.3357H92.6134ZM106.26 29.7882V27.0588V24.3294H108.983H111.719V27.0588V29.7882H108.983H106.26ZM92.6134 26.3765V23.6471V20.9176H95.3357H98.0722V23.6471V26.3765H95.3357H92.6134ZM106.26 26.3765V23.6471V20.9176H108.983H111.719V23.6471V26.3765H108.983H106.26ZM92.6134 22.9647V20.2353V17.5059H95.3357H98.0722V20.2353V22.9647H95.3357H92.6134ZM106.26 22.9647V20.2353V17.5059H108.983H111.719V20.2353V22.9647H108.983H106.26ZM92.6134 19.5529V16.8235V14.0941H95.3357H98.0722V16.8235V19.5529H95.3357H92.6134ZM106.26 19.5529V16.8235V14.0941H108.983H111.719V16.8235V19.5529H108.983H106.26ZM92.6134 16.1412V13.4118V10.6824H95.3357H98.0722V13.4118V16.1412H95.3357H92.6134ZM106.26 16.1412V13.4118V10.6824H108.983H111.719V13.4118V16.1412H108.983H106.26ZM92.6134 12.7294V10V7.27058H95.3357H98.0722V10V12.7294H95.3357H92.6134ZM106.26 12.7294V10V7.27058H108.983H111.719V10V12.7294H108.983H106.26ZM92.6134 9.31764V6.58823V3.85882H95.3357H98.0722V6.58823V9.31764H95.3357H92.6134ZM106.26 9.31764V6.58823V3.85882H108.983H111.719V6.58823V9.31764H108.983H106.26ZM96.0252 5.90588V3.17647V0.447056H98.7475H101.484V3.17647V5.90588H98.7475H96.0252ZM99.4369 5.90588V3.17647V0.447056H102.159H104.896V3.17647V5.90588H102.159H99.4369ZM102.849 5.90588V3.17647V0.447056H105.571H108.308V3.17647V5.90588H105.571H102.849ZM99.4369 26.3765V23.6471V20.9176H102.159H104.896V23.6471V26.3765H102.159H99.4369ZM99.4369 22.9647V20.2353V17.5059H102.159H104.896V20.2353V22.9647H102.159H99.4369ZM99.4369 19.5529V16.8235V14.0941H102.159H104.896V16.8235V19.5529H102.159H99.4369ZM126.768 40.0235V37.2941V34.5647H129.49H132.227V37.2941V40.0235H129.49H126.768ZM126.768 36.6118V33.8824V31.1529H129.49H132.227V33.8824V36.6118H129.49H126.768ZM126.768 33.2V30.4706V27.7412H129.49H132.227V30.4706V33.2H129.49H126.768ZM126.768 29.7882V27.0588V24.3294H129.49H132.227V27.0588V29.7882H129.49H126.768ZM126.768 26.3765V23.6471V20.9176H129.49H132.227V23.6471V26.3765H129.49H126.768ZM126.768 22.9647V20.2353V17.5059H129.49H132.227V20.2353V22.9647H129.49H126.768ZM126.768 19.5529V16.8235V14.0941H129.49H132.227V16.8235V19.5529H129.49H126.768ZM126.768 16.1412V13.4118V10.6824H129.49H132.227V13.4118V16.1412H129.49H126.768ZM130.179 16.1412V13.4118V10.6824H132.902H135.638V13.4118V16.1412H132.902H130.179ZM133.591 16.1412V13.4118V10.6824H136.314H139.05V13.4118V16.1412H136.314H133.591ZM137.003 16.1412V13.4118V10.6824H139.725H142.462V13.4118V16.1412H139.725H137.003ZM143.817 50.2588V47.5294V44.8H146.539H149.275V47.5294V50.2588H146.539H143.817ZM143.817 46.8471V44.1176V41.3882H146.539H149.275V44.1176V46.8471H146.539H143.817ZM143.817 43.4353V40.7059V37.9765H146.539H149.275V40.7059V43.4353H146.539H143.817ZM143.817 40.0235V37.2941V34.5647H146.539H149.275V37.2941V40.0235H146.539H143.817ZM150.64 40.0235V37.2941V34.5647H153.362H156.099V37.2941V40.0235H153.362H150.64ZM154.052 40.0235V37.2941V34.5647H156.774H159.511V37.2941V40.0235H156.774H154.052ZM143.817 36.6118V33.8824V31.1529H146.539H149.275V33.8824V36.6118H146.539H143.817ZM147.228 36.6118V33.8824V31.1529H149.951H152.687V33.8824V36.6118H149.951H147.228ZM157.464 36.6118V33.8824V31.1529H160.186H162.922V33.8824V36.6118H160.186H157.464ZM143.817 33.2V30.4706V27.7412H146.539H149.275V30.4706V33.2H146.539H143.817ZM157.464 33.2V30.4706V27.7412H160.186H162.922V30.4706V33.2H160.186H157.464ZM143.817 29.7882V27.0588V24.3294H146.539H149.275V27.0588V29.7882H146.539H143.817ZM157.464 29.7882V27.0588V24.3294H160.186H162.922V27.0588V29.7882H160.186H157.464ZM143.817 26.3765V23.6471V20.9176H146.539H149.275V23.6471V26.3765H146.539H143.817ZM157.464 26.3765V23.6471V20.9176H160.186H162.922V23.6471V26.3765H160.186H157.464ZM143.817 22.9647V20.2353V17.5059H146.539H149.275V20.2353V22.9647H146.539H143.817ZM157.464 22.9647V20.2353V17.5059H160.186H162.922V20.2353V22.9647H160.186H157.464ZM143.817 19.5529V16.8235V14.0941H146.539H149.275V16.8235V19.5529H146.539H143.817ZM147.228 19.5529V16.8235V14.0941H149.951H152.687V16.8235V19.5529H149.951H147.228ZM157.464 19.5529V16.8235V14.0941H160.186H162.922V16.8235V19.5529H160.186H157.464ZM143.817 16.1412V13.4118V10.6824H146.539H149.275V13.4118V16.1412H146.539H143.817ZM150.64 16.1412V13.4118V10.6824H153.362H156.099V13.4118V16.1412H153.362H150.64ZM154.052 16.1412V13.4118V10.6824H156.774H159.511V13.4118V16.1412H156.774H154.052ZM167.719 40.0235V37.2941V34.5647H170.441H173.178V37.2941V40.0235H170.441H167.719ZM181.366 40.0235V37.2941V34.5647H184.088H186.825V37.2941V40.0235H184.088H181.366ZM167.719 36.6118V33.8824V31.1529H170.441H173.178V33.8824V36.6118H170.441H167.719ZM181.366 36.6118V33.8824V31.1529H184.088H186.825V33.8824V36.6118H184.088H181.366ZM167.719 33.2V30.4706V27.7412H170.441H173.178V30.4706V33.2H170.441H167.719ZM181.366 33.2V30.4706V27.7412H184.088H186.825V30.4706V33.2H184.088H181.366ZM167.719 29.7882V27.0588V24.3294H170.441H173.178V27.0588V29.7882H170.441H167.719ZM181.366 29.7882V27.0588V24.3294H184.088H186.825V27.0588V29.7882H184.088H181.366ZM171.131 28.0824V25.3529V22.6235H173.853H176.589V25.3529V28.0824H173.853H171.131ZM174.542 28.0824V25.3529V22.6235H177.265H180.001V25.3529V28.0824H177.265H174.542ZM177.954 28.0824V25.3529V22.6235H180.676H183.413V25.3529V28.0824H180.676H177.954ZM167.719 26.3765V23.6471V20.9176H170.441H173.178V23.6471V26.3765H170.441H167.719ZM181.366 26.3765V23.6471V20.9176H184.088H186.825V23.6471V26.3765H184.088H181.366ZM167.719 22.9647V20.2353V17.5059H170.441H173.178V20.2353V22.9647H170.441H167.719ZM181.366 22.9647V20.2353V17.5059H184.088H186.825V20.2353V22.9647H184.088H181.366ZM167.719 19.5529V16.8235V14.0941H170.441H173.178V16.8235V19.5529H170.441H167.719ZM181.366 19.5529V16.8235V14.0941H184.088H186.825V16.8235V19.5529H184.088H181.366ZM167.719 16.1412V13.4118V10.6824H170.441H173.178V13.4118V16.1412H170.441H167.719ZM181.366 16.1412V13.4118V10.6824H184.088H186.825V13.4118V16.1412H184.088H181.366Z" fill="#AA80F1"/>
</svg>
