<svg width="211" height="51" viewBox="0 0 211 51" fill="none" xmlns="http://www.w3.org/2000/svg">
<path d="M0.402451 40.0235V37.2941V34.5647H3.12476H5.86127V37.2941V40.0235H3.12476H0.402451ZM3.81422 40.0235V37.2941V34.5647H6.53652H9.27304V37.2941V40.0235H6.53652H3.81422ZM7.22598 40.0235V37.2941V34.5647H9.94829H12.6848V37.2941V40.0235H9.94829H7.22598ZM10.6377 40.0235V37.2941V34.5647H13.36H16.0966V37.2941V40.0235H13.36H10.6377ZM0.402451 36.6118V33.8824V31.1529H3.12476H5.86127V33.8824V36.6118H3.12476H0.402451ZM14.0495 36.6118V33.8824V31.1529H16.7718H19.5083V33.8824V36.6118H16.7718H14.0495ZM0.402451 33.2V30.4706V27.7412H3.12476H5.86127V30.4706V33.2H3.12476H0.402451ZM14.0495 33.2V30.4706V27.7412H16.7718H19.5083V30.4706V33.2H16.7718H14.0495ZM0.402451 29.7882V27.0588V24.3294H3.12476H5.86127V27.0588V29.7882H3.12476H0.402451ZM14.0495 29.7882V27.0588V24.3294H16.7718H19.5083V27.0588V29.7882H16.7718H14.0495ZM3.81422 28.0824V25.3529V22.6235H6.53652H9.27304V25.3529V28.0824H6.53652H3.81422ZM7.22598 28.0824V25.3529V22.6235H9.94829H12.6848V25.3529V28.0824H9.94829H7.22598ZM10.6377 28.0824V25.3529V22.6235H13.36H16.0966V25.3529V28.0824H13.36H10.6377ZM0.402451 26.3765V23.6471V20.9176H3.12476H5.86127V23.6471V26.3765H3.12476H0.402451ZM0.402451 22.9647V20.2353V17.5059H3.12476H5.86127V20.2353V22.9647H3.12476H0.402451ZM14.0495 22.9647V20.2353V17.5059H16.7718H19.5083V20.2353V22.9647H16.7718H14.0495ZM0.402451 19.5529V16.8235V14.0941H3.12476H5.86127V16.8235V19.5529H3.12476H0.402451ZM14.0495 19.5529V16.8235V14.0941H16.7718H19.5083V16.8235V19.5529H16.7718H14.0495ZM0.402451 16.1412V13.4118V10.6824H3.12476H5.86127V13.4118V16.1412H3.12476H0.402451ZM3.81422 16.1412V13.4118V10.6824H6.53652H9.27304V13.4118V16.1412H6.53652H3.81422ZM7.22598 16.1412V13.4118V10.6824H9.94829H12.6848V13.4118V16.1412H9.94829H7.22598ZM10.6377 16.1412V13.4118V10.6824H13.36H16.0966V13.4118V16.1412H13.36H10.6377ZM24.3048 40.0235V37.2941V34.5647H27.0271H29.7636V37.2941V40.0235H27.0271H24.3048ZM24.3048 36.6118V33.8824V31.1529H27.0271H29.7636V33.8824V36.6118H27.0271H24.3048ZM24.3048 33.2V30.4706V27.7412H27.0271H29.7636V30.4706V33.2H27.0271H24.3048ZM24.3048 29.7882V27.0588V24.3294H27.0271H29.7636V27.0588V29.7882H27.0271H24.3048ZM24.3048 26.3765V23.6471V20.9176H27.0271H29.7636V23.6471V26.3765H27.0271H24.3048ZM24.3048 22.9647V20.2353V17.5059H27.0271H29.7636V20.2353V22.9647H27.0271H24.3048ZM24.3048 19.5529V16.8235V14.0941H27.0271H29.7636V16.8235V19.5529H27.0271H24.3048ZM24.3048 16.1412V13.4118V10.6824H27.0271H29.7636V13.4118V16.1412H27.0271H24.3048ZM24.3048 9.31764V6.58823V3.85882H27.0271H29.7636V6.58823V9.31764H27.0271H24.3048ZM24.3048 5.90588V3.17647V0.447056H27.0271H29.7636V3.17647V5.90588H27.0271H24.3048ZM31.145 46.8471V44.1176V41.3882H33.8673H36.6038V44.1176V46.8471H33.8673H31.145ZM51.6156 46.8471V44.1176V41.3882H54.3379H57.0744V44.1176V46.8471H54.3379H51.6156ZM31.145 43.4353V40.7059V37.9765H33.8673H36.6038V40.7059V43.4353H33.8673H31.145ZM51.6156 43.4353V40.7059V37.9765H54.3379H57.0744V40.7059V43.4353H54.3379H51.6156ZM31.145 40.0235V37.2941V34.5647H33.8673H36.6038V37.2941V40.0235H33.8673H31.145ZM34.5567 40.0235V37.2941V34.5647H37.2791H40.0156V37.2941V40.0235H37.2791H34.5567ZM37.9685 40.0235V37.2941V34.5647H40.6908H43.4273V37.2941V40.0235H40.6908H37.9685ZM41.3803 40.0235V37.2941V34.5647H44.1026H46.8391V37.2941V40.0235H44.1026H41.3803ZM44.792 40.0235V37.2941V34.5647H47.5143H50.2509V37.2941V40.0235H47.5143H44.792ZM48.2038 40.0235V37.2941V34.5647H50.9261H53.6626V37.2941V40.0235H50.9261H48.2038ZM51.6156 40.0235V37.2941V34.5647H54.3379H57.0744V37.2941V40.0235H54.3379H51.6156ZM34.5567 36.6118V33.8824V31.1529H37.2791H40.0156V33.8824V36.6118H37.2791H34.5567ZM48.2038 36.6118V33.8824V31.1529H50.9261H53.6626V33.8824V36.6118H50.9261H48.2038ZM34.5567 33.2V30.4706V27.7412H37.2791H40.0156V30.4706V33.2H37.2791H34.5567ZM48.2038 33.2V30.4706V27.7412H50.9261H53.6626V30.4706V33.2H50.9261H48.2038ZM34.5567 29.7882V27.0588V24.3294H37.2791H40.0156V27.0588V29.7882H37.2791H34.5567ZM48.2038 29.7882V27.0588V24.3294H50.9261H53.6626V27.0588V29.7882H50.9261H48.2038ZM34.5567 26.3765V23.6471V20.9176H37.2791H40.0156V23.6471V26.3765H37.2791H34.5567ZM48.2038 26.3765V23.6471V20.9176H50.9261H53.6626V23.6471V26.3765H50.9261H48.2038ZM34.5567 22.9647V20.2353V17.5059H37.2791H40.0156V20.2353V22.9647H37.2791H34.5567ZM48.2038 22.9647V20.2353V17.5059H50.9261H53.6626V20.2353V22.9647H50.9261H48.2038ZM36.2626 19.5529V16.8235V14.0941H38.9849H41.7215V16.8235V19.5529H38.9849H36.2626ZM48.2038 19.5529V16.8235V14.0941H50.9261H53.6626V16.8235V19.5529H50.9261H48.2038ZM37.9685 16.1412V13.4118V10.6824H40.6908H43.4273V13.4118V16.1412H40.6908H37.9685ZM41.3803 16.1412V13.4118V10.6824H44.1026H46.8391V13.4118V16.1412H44.1026H41.3803ZM44.792 16.1412V13.4118V10.6824H47.5143H50.2509V13.4118V16.1412H47.5143H44.792ZM48.2038 16.1412V13.4118V10.6824H50.9261H53.6626V13.4118V16.1412H50.9261H48.2038ZM68.711 40.0235V37.2941V34.5647H71.4333H74.1699V37.2941V40.0235H71.4333H68.711ZM72.1228 40.0235V37.2941V34.5647H74.8451H77.5816V37.2941V40.0235H74.8451H72.1228ZM75.5346 40.0235V37.2941V34.5647H78.2569H80.9934V37.2941V40.0235H78.2569H75.5346ZM78.9463 40.0235V37.2941V34.5647H81.6686H84.4052V37.2941V40.0235H81.6686H78.9463ZM82.3581 40.0235V37.2941V34.5647H85.0804H87.8169V37.2941V40.0235H85.0804H82.3581ZM72.1228 36.6118V33.8824V31.1529H74.8451H77.5816V33.8824V36.6118H74.8451H72.1228ZM73.8287 33.2V30.4706V27.7412H76.551H79.2875V30.4706V33.2H76.551H73.8287ZM75.5346 29.7882V27.0588V24.3294H78.2569H80.9934V27.0588V29.7882H78.2569H75.5346ZM77.2405 26.3765V23.6471V20.9176H79.9628H82.6993V23.6471V26.3765H79.9628H77.2405ZM78.9463 22.9647V20.2353V17.5059H81.6686H84.4052V20.2353V22.9647H81.6686H78.9463ZM80.6522 19.5529V16.8235V14.0941H83.3745H86.111V16.8235V19.5529H83.3745H80.6522ZM68.711 16.1412V13.4118V10.6824H71.4333H74.1699V13.4118V16.1412H71.4333H68.711ZM82.3581 16.1412V13.4118V10.6824H85.0804H87.8169V13.4118V16.1412H85.0804H82.3581ZM68.711 12.7294V10V7.27058H71.4333H74.1699V10V12.7294H71.4333H68.711ZM82.3581 12.7294V10V7.27058H85.0804H87.8169V10V12.7294H85.0804H82.3581ZM68.711 9.31764V6.58823V3.85882H71.4333H74.1699V6.58823V9.31764H71.4333H68.711ZM82.3581 9.31764V6.58823V3.85882H85.0804H87.8169V6.58823V9.31764H85.0804H82.3581ZM72.1228 5.90588V3.17647V0.447056H74.8451H77.5816V3.17647V5.90588H74.8451H72.1228ZM75.5346 5.90588V3.17647V0.447056H78.2569H80.9934V3.17647V5.90588H78.2569H75.5346ZM78.9463 5.90588V3.17647V0.447056H81.6686H84.4052V3.17647V5.90588H81.6686H78.9463ZM101.143 40.0235V37.2941V34.5647H103.865H106.602V37.2941V40.0235H103.865H101.143ZM101.143 36.6118V33.8824V31.1529H103.865H106.602V33.8824V36.6118H103.865H101.143ZM90.9075 33.2V30.4706V27.7412H93.6298H96.3663V30.4706V33.2H93.6298H90.9075ZM94.3193 33.2V30.4706V27.7412H97.0416H99.7781V30.4706V33.2H97.0416H94.3193ZM97.731 33.2V30.4706V27.7412H100.453H103.19V30.4706V33.2H100.453H97.731ZM101.143 33.2V30.4706V27.7412H103.865H106.602V30.4706V33.2H103.865H101.143ZM104.555 33.2V30.4706V27.7412H107.277H110.013V30.4706V33.2H107.277H104.555ZM107.966 33.2V30.4706V27.7412H110.689H113.425V30.4706V33.2H110.689H107.966ZM90.9075 29.7882V27.0588V24.3294H93.6298H96.3663V27.0588V29.7882H93.6298H90.9075ZM101.143 29.7882V27.0588V24.3294H103.865H106.602V27.0588V29.7882H103.865H101.143ZM90.9075 26.3765V23.6471V20.9176H93.6298H96.3663V23.6471V26.3765H93.6298H90.9075ZM101.143 26.3765V23.6471V20.9176H103.865H106.602V23.6471V26.3765H103.865H101.143ZM92.6134 22.9647V20.2353V17.5059H95.3357H98.0722V20.2353V22.9647H95.3357H92.6134ZM94.3193 19.5529V16.8235V14.0941H97.0416H99.7781V16.8235V19.5529H97.0416H94.3193ZM96.0252 16.1412V13.4118V10.6824H98.7475H101.484V13.4118V16.1412H98.7475H96.0252ZM97.731 12.7294V10V7.27058H100.453H103.19V10V12.7294H100.453H97.731ZM99.4369 9.31764V6.58823V3.85882H102.159H104.896V6.58823V9.31764H102.159H99.4369ZM101.143 5.90588V3.17647V0.447056H103.865H106.602V3.17647V5.90588H103.865H101.143ZM119.927 40.0235V37.2941V34.5647H122.65H125.386V37.2941V40.0235H122.65H119.927ZM123.339 40.0235V37.2941V34.5647H126.062H128.798V37.2941V40.0235H126.062H123.339ZM126.751 40.0235V37.2941V34.5647H129.473H132.21V37.2941V40.0235H129.473H126.751ZM116.516 36.6118V33.8824V31.1529H119.238H121.975V33.8824V36.6118H119.238H116.516ZM130.163 36.6118V33.8824V31.1529H132.885H135.622V33.8824V36.6118H132.885H130.163ZM116.516 33.2V30.4706V27.7412H119.238H121.975V30.4706V33.2H119.238H116.516ZM130.163 33.2V30.4706V27.7412H132.885H135.622V30.4706V33.2H132.885H130.163ZM116.516 29.7882V27.0588V24.3294H119.238H121.975V27.0588V29.7882H119.238H116.516ZM130.163 29.7882V27.0588V24.3294H132.885H135.622V27.0588V29.7882H132.885H130.163ZM116.516 26.3765V23.6471V20.9176H119.238H121.975V23.6471V26.3765H119.238H116.516ZM130.163 26.3765V23.6471V20.9176H132.885H135.622V23.6471V26.3765H132.885H130.163ZM116.516 22.9647V20.2353V17.5059H119.238H121.975V20.2353V22.9647H119.238H116.516ZM130.163 22.9647V20.2353V17.5059H132.885H135.622V20.2353V22.9647H132.885H130.163ZM116.516 19.5529V16.8235V14.0941H119.238H121.975V16.8235V19.5529H119.238H116.516ZM130.163 19.5529V16.8235V14.0941H132.885H135.622V16.8235V19.5529H132.885H130.163ZM116.516 16.1412V13.4118V10.6824H119.238H121.975V13.4118V16.1412H119.238H116.516ZM130.163 16.1412V13.4118V10.6824H132.885H135.622V13.4118V16.1412H132.885H130.163ZM116.516 12.7294V10V7.27058H119.238H121.975V10V12.7294H119.238H116.516ZM130.163 12.7294V10V7.27058H132.885H135.622V10V12.7294H132.885H130.163ZM116.516 9.31764V6.58823V3.85882H119.238H121.975V6.58823V9.31764H119.238H116.516ZM130.163 9.31764V6.58823V3.85882H132.885H135.622V6.58823V9.31764H132.885H130.163ZM119.927 5.90588V3.17647V0.447056H122.65H125.386V3.17647V5.90588H122.65H119.927ZM123.339 5.90588V3.17647V0.447056H126.062H128.798V3.17647V5.90588H126.062H123.339ZM126.751 5.90588V3.17647V0.447056H129.473H132.21V3.17647V5.90588H129.473H126.751ZM123.339 26.3765V23.6471V20.9176H126.062H128.798V23.6471V26.3765H126.062H123.339ZM123.339 22.9647V20.2353V17.5059H126.062H128.798V20.2353V22.9647H126.062H123.339ZM123.339 19.5529V16.8235V14.0941H126.062H128.798V16.8235V19.5529H126.062H123.339ZM150.67 40.0235V37.2941V34.5647H153.392H156.129V37.2941V40.0235H153.392H150.67ZM150.67 36.6118V33.8824V31.1529H153.392H156.129V33.8824V36.6118H153.392H150.67ZM150.67 33.2V30.4706V27.7412H153.392H156.129V30.4706V33.2H153.392H150.67ZM150.67 29.7882V27.0588V24.3294H153.392H156.129V27.0588V29.7882H153.392H150.67ZM150.67 26.3765V23.6471V20.9176H153.392H156.129V23.6471V26.3765H153.392H150.67ZM150.67 22.9647V20.2353V17.5059H153.392H156.129V20.2353V22.9647H153.392H150.67ZM150.67 19.5529V16.8235V14.0941H153.392H156.129V16.8235V19.5529H153.392H150.67ZM150.67 16.1412V13.4118V10.6824H153.392H156.129V13.4118V16.1412H153.392H150.67ZM154.082 16.1412V13.4118V10.6824H156.804H159.541V13.4118V16.1412H156.804H154.082ZM157.494 16.1412V13.4118V10.6824H160.216H162.952V13.4118V16.1412H160.216H157.494ZM160.905 16.1412V13.4118V10.6824H163.628H166.364V13.4118V16.1412H163.628H160.905ZM167.719 50.2588V47.5294V44.8H170.441H173.178V47.5294V50.2588H170.441H167.719ZM167.719 46.8471V44.1176V41.3882H170.441H173.178V44.1176V46.8471H170.441H167.719ZM167.719 43.4353V40.7059V37.9765H170.441H173.178V40.7059V43.4353H170.441H167.719ZM167.719 40.0235V37.2941V34.5647H170.441H173.178V37.2941V40.0235H170.441H167.719ZM174.542 40.0235V37.2941V34.5647H177.265H180.001V37.2941V40.0235H177.265H174.542ZM177.954 40.0235V37.2941V34.5647H180.676H183.413V37.2941V40.0235H180.676H177.954ZM167.719 36.6118V33.8824V31.1529H170.441H173.178V33.8824V36.6118H170.441H167.719ZM171.131 36.6118V33.8824V31.1529H173.853H176.589V33.8824V36.6118H173.853H171.131ZM181.366 36.6118V33.8824V31.1529H184.088H186.825V33.8824V36.6118H184.088H181.366ZM167.719 33.2V30.4706V27.7412H170.441H173.178V30.4706V33.2H170.441H167.719ZM181.366 33.2V30.4706V27.7412H184.088H186.825V30.4706V33.2H184.088H181.366ZM167.719 29.7882V27.0588V24.3294H170.441H173.178V27.0588V29.7882H170.441H167.719ZM181.366 29.7882V27.0588V24.3294H184.088H186.825V27.0588V29.7882H184.088H181.366ZM167.719 26.3765V23.6471V20.9176H170.441H173.178V23.6471V26.3765H170.441H167.719ZM181.366 26.3765V23.6471V20.9176H184.088H186.825V23.6471V26.3765H184.088H181.366ZM167.719 22.9647V20.2353V17.5059H170.441H173.178V20.2353V22.9647H170.441H167.719ZM181.366 22.9647V20.2353V17.5059H184.088H186.825V20.2353V22.9647H184.088H181.366ZM167.719 19.5529V16.8235V14.0941H170.441H173.178V16.8235V19.5529H170.441H167.719ZM171.131 19.5529V16.8235V14.0941H173.853H176.589V16.8235V19.5529H173.853H171.131ZM181.366 19.5529V16.8235V14.0941H184.088H186.825V16.8235V19.5529H184.088H181.366ZM167.719 16.1412V13.4118V10.6824H170.441H173.178V13.4118V16.1412H170.441H167.719ZM174.542 16.1412V13.4118V10.6824H177.265H180.001V13.4118V16.1412H177.265H174.542ZM177.954 16.1412V13.4118V10.6824H180.676H183.413V13.4118V16.1412H180.676H177.954ZM191.621 40.0235V37.2941V34.5647H194.344H197.08V37.2941V40.0235H194.344H191.621ZM205.268 40.0235V37.2941V34.5647H207.991H210.727V37.2941V40.0235H207.991H205.268ZM191.621 36.6118V33.8824V31.1529H194.344H197.08V33.8824V36.6118H194.344H191.621ZM205.268 36.6118V33.8824V31.1529H207.991H210.727V33.8824V36.6118H207.991H205.268ZM191.621 33.2V30.4706V27.7412H194.344H197.08V30.4706V33.2H194.344H191.621ZM205.268 33.2V30.4706V27.7412H207.991H210.727V30.4706V33.2H207.991H205.268ZM191.621 29.7882V27.0588V24.3294H194.344H197.08V27.0588V29.7882H194.344H191.621ZM205.268 29.7882V27.0588V24.3294H207.991H210.727V27.0588V29.7882H207.991H205.268ZM195.033 28.0824V25.3529V22.6235H197.755H200.492V25.3529V28.0824H197.755H195.033ZM198.445 28.0824V25.3529V22.6235H201.167H203.904V25.3529V28.0824H201.167H198.445ZM201.856 28.0824V25.3529V22.6235H204.579H207.315V25.3529V28.0824H204.579H201.856ZM191.621 26.3765V23.6471V20.9176H194.344H197.08V23.6471V26.3765H194.344H191.621ZM205.268 26.3765V23.6471V20.9176H207.991H210.727V23.6471V26.3765H207.991H205.268ZM191.621 22.9647V20.2353V17.5059H194.344H197.08V20.2353V22.9647H194.344H191.621ZM205.268 22.9647V20.2353V17.5059H207.991H210.727V20.2353V22.9647H207.991H205.268ZM191.621 19.5529V16.8235V14.0941H194.344H197.08V16.8235V19.5529H194.344H191.621ZM205.268 19.5529V16.8235V14.0941H207.991H210.727V16.8235V19.5529H207.991H205.268ZM191.621 16.1412V13.4118V10.6824H194.344H197.08V13.4118V16.1412H194.344H191.621ZM205.268 16.1412V13.4118V10.6824H207.991H210.727V13.4118V16.1412H207.991H205.268Z" fill="#AA80F1"/>
</svg>
