<svg width="281" height="54" viewBox="0 0 281 54" fill="none" xmlns="http://www.w3.org/2000/svg">
<path d="M0.402451 43.0235V40.2941V37.5647H3.12476H5.86127V40.2941V43.0235H3.12476H0.402451ZM3.81422 43.0235V40.2941V37.5647H6.53652H9.27304V40.2941V43.0235H6.53652H3.81422ZM7.22598 43.0235V40.2941V37.5647H9.94829H12.6848V40.2941V43.0235H9.94829H7.22598ZM10.6377 43.0235V40.2941V37.5647H13.36H16.0966V40.2941V43.0235H13.36H10.6377ZM14.0495 43.0235V40.2941V37.5647H16.7718H19.5083V40.2941V43.0235H16.7718H14.0495ZM3.81422 39.6118V36.8824V34.1529H6.53652H9.27304V36.8824V39.6118H6.53652H3.81422ZM5.5201 36.2V33.4706V30.7412H8.2424H10.9789V33.4706V36.2H8.2424H5.5201ZM7.22598 32.7882V30.0588V27.3294H9.94829H12.6848V30.0588V32.7882H9.94829H7.22598ZM8.93186 29.3765V26.6471V23.9176H11.6542H14.3907V26.6471V29.3765H11.6542H8.93186ZM10.6377 25.9647V23.2353V20.5059H13.36H16.0966V23.2353V25.9647H13.36H10.6377ZM12.3436 22.5529V19.8235V17.0941H15.0659H17.8025V19.8235V22.5529H15.0659H12.3436ZM0.402451 19.1412V16.4118V13.6824H3.12476H5.86127V16.4118V19.1412H3.12476H0.402451ZM14.0495 19.1412V16.4118V13.6824H16.7718H19.5083V16.4118V19.1412H16.7718H14.0495ZM0.402451 15.7294V13V10.2706H3.12476H5.86127V13V15.7294H3.12476H0.402451ZM14.0495 15.7294V13V10.2706H16.7718H19.5083V13V15.7294H16.7718H14.0495ZM0.402451 12.3176V9.58823V6.85882H3.12476H5.86127V9.58823V12.3176H3.12476H0.402451ZM14.0495 12.3176V9.58823V6.85882H16.7718H19.5083V9.58823V12.3176H16.7718H14.0495ZM3.81422 8.90588V6.17647V3.44706H6.53652H9.27304V6.17647V8.90588H6.53652H3.81422ZM7.22598 8.90588V6.17647V3.44706H9.94829H12.6848V6.17647V8.90588H9.94829H7.22598ZM10.6377 8.90588V6.17647V3.44706H13.36H16.0966V6.17647V8.90588H13.36H10.6377ZM37.9685 43.0235V40.2941V37.5647H40.6908H43.4273V40.2941V43.0235H40.6908H37.9685ZM41.3803 43.0235V40.2941V37.5647H44.1026H46.8391V40.2941V43.0235H44.1026H41.3803ZM44.792 43.0235V40.2941V37.5647H47.5143H50.2509V40.2941V43.0235H47.5143H44.792ZM34.5567 39.6118V36.8824V34.1529H37.2791H40.0156V36.8824V39.6118H37.2791H34.5567ZM48.2038 39.6118V36.8824V34.1529H50.9261H53.6626V36.8824V39.6118H50.9261H48.2038ZM34.5567 36.2V33.4706V30.7412H37.2791H40.0156V33.4706V36.2H37.2791H34.5567ZM48.2038 36.2V33.4706V30.7412H50.9261H53.6626V33.4706V36.2H50.9261H48.2038ZM34.5567 32.7882V30.0588V27.3294H37.2791H40.0156V30.0588V32.7882H37.2791H34.5567ZM48.2038 32.7882V30.0588V27.3294H50.9261H53.6626V30.0588V32.7882H50.9261H48.2038ZM34.5567 29.3765V26.6471V23.9176H37.2791H40.0156V26.6471V29.3765H37.2791H34.5567ZM48.2038 29.3765V26.6471V23.9176H50.9261H53.6626V26.6471V29.3765H50.9261H48.2038ZM34.5567 25.9647V23.2353V20.5059H37.2791H40.0156V23.2353V25.9647H37.2791H34.5567ZM48.2038 25.9647V23.2353V20.5059H50.9261H53.6626V23.2353V25.9647H50.9261H48.2038ZM34.5567 22.5529V19.8235V17.0941H37.2791H40.0156V19.8235V22.5529H37.2791H34.5567ZM48.2038 22.5529V19.8235V17.0941H50.9261H53.6626V19.8235V22.5529H50.9261H48.2038ZM34.5567 19.1412V16.4118V13.6824H37.2791H40.0156V16.4118V19.1412H37.2791H34.5567ZM48.2038 19.1412V16.4118V13.6824H50.9261H53.6626V16.4118V19.1412H50.9261H48.2038ZM34.5567 15.7294V13V10.2706H37.2791H40.0156V13V15.7294H37.2791H34.5567ZM48.2038 15.7294V13V10.2706H50.9261H53.6626V13V15.7294H50.9261H48.2038ZM34.5567 12.3176V9.58823V6.85882H37.2791H40.0156V9.58823V12.3176H37.2791H34.5567ZM48.2038 12.3176V9.58823V6.85882H50.9261H53.6626V9.58823V12.3176H50.9261H48.2038ZM37.9685 8.90588V6.17647V3.44706H40.6908H43.4273V6.17647V8.90588H40.6908H37.9685ZM41.3803 8.90588V6.17647V3.44706H44.1026H46.8391V6.17647V8.90588H44.1026H41.3803ZM44.792 8.90588V6.17647V3.44706H47.5143H50.2509V6.17647V8.90588H47.5143H44.792ZM41.3803 29.3765V26.6471V23.9176H44.1026H46.8391V26.6471V29.3765H44.1026H41.3803ZM41.3803 25.9647V23.2353V20.5059H44.1026H46.8391V23.2353V25.9647H44.1026H41.3803ZM41.3803 22.5529V19.8235V17.0941H44.1026H46.8391V19.8235V22.5529H44.1026H41.3803ZM61.8709 43.0235V40.2941V37.5647H64.5932H67.3297V40.2941V43.0235H64.5932H61.8709ZM65.2826 43.0235V40.2941V37.5647H68.0049H70.7414V40.2941V43.0235H68.0049H65.2826ZM68.6944 43.0235V40.2941V37.5647H71.4167H74.1532V40.2941V43.0235H71.4167H68.6944ZM58.4591 39.6118V36.8824V34.1529H61.1814H63.9179V36.8824V39.6118H61.1814H58.4591ZM72.1062 39.6118V36.8824V34.1529H74.8285H77.565V36.8824V39.6118H74.8285H72.1062ZM58.4591 36.2V33.4706V30.7412H61.1814H63.9179V33.4706V36.2H61.1814H58.4591ZM72.1062 36.2V33.4706V30.7412H74.8285H77.565V33.4706V36.2H74.8285H72.1062ZM58.4591 32.7882V30.0588V27.3294H61.1814H63.9179V30.0588V32.7882H61.1814H58.4591ZM72.1062 32.7882V30.0588V27.3294H74.8285H77.565V30.0588V32.7882H74.8285H72.1062ZM58.4591 29.3765V26.6471V23.9176H61.1814H63.9179V26.6471V29.3765H61.1814H58.4591ZM72.1062 29.3765V26.6471V23.9176H74.8285H77.565V26.6471V29.3765H74.8285H72.1062ZM58.4591 25.9647V23.2353V20.5059H61.1814H63.9179V23.2353V25.9647H61.1814H58.4591ZM72.1062 25.9647V23.2353V20.5059H74.8285H77.565V23.2353V25.9647H74.8285H72.1062ZM58.4591 22.5529V19.8235V17.0941H61.1814H63.9179V19.8235V22.5529H61.1814H58.4591ZM72.1062 22.5529V19.8235V17.0941H74.8285H77.565V19.8235V22.5529H74.8285H72.1062ZM58.4591 19.1412V16.4118V13.6824H61.1814H63.9179V16.4118V19.1412H61.1814H58.4591ZM72.1062 19.1412V16.4118V13.6824H74.8285H77.565V16.4118V19.1412H74.8285H72.1062ZM58.4591 15.7294V13V10.2706H61.1814H63.9179V13V15.7294H61.1814H58.4591ZM72.1062 15.7294V13V10.2706H74.8285H77.565V13V15.7294H74.8285H72.1062ZM58.4591 12.3176V9.58823V6.85882H61.1814H63.9179V9.58823V12.3176H61.1814H58.4591ZM72.1062 12.3176V9.58823V6.85882H74.8285H77.565V9.58823V12.3176H74.8285H72.1062ZM61.8709 8.90588V6.17647V3.44706H64.5932H67.3297V6.17647V8.90588H64.5932H61.8709ZM65.2826 8.90588V6.17647V3.44706H68.0049H70.7414V6.17647V8.90588H68.0049H65.2826ZM68.6944 8.90588V6.17647V3.44706H71.4167H74.1532V6.17647V8.90588H71.4167H68.6944ZM65.2826 29.3765V26.6471V23.9176H68.0049H70.7414V26.6471V29.3765H68.0049H65.2826ZM65.2826 25.9647V23.2353V20.5059H68.0049H70.7414V23.2353V25.9647H68.0049H65.2826ZM65.2826 22.5529V19.8235V17.0941H68.0049H70.7414V19.8235V22.5529H68.0049H65.2826ZM85.7732 43.0235V40.2941V37.5647H88.4955H91.232V40.2941V43.0235H88.4955H85.7732ZM89.185 43.0235V40.2941V37.5647H91.9073H94.6438V40.2941V43.0235H91.9073H89.185ZM92.5967 43.0235V40.2941V37.5647H95.319H98.0556V40.2941V43.0235H95.319H92.5967ZM82.3614 39.6118V36.8824V34.1529H85.0837H87.8203V36.8824V39.6118H85.0837H82.3614ZM96.0085 39.6118V36.8824V34.1529H98.7308H101.467V36.8824V39.6118H98.7308H96.0085ZM82.3614 36.2V33.4706V30.7412H85.0837H87.8203V33.4706V36.2H85.0837H82.3614ZM96.0085 36.2V33.4706V30.7412H98.7308H101.467V33.4706V36.2H98.7308H96.0085ZM82.3614 32.7882V30.0588V27.3294H85.0837H87.8203V30.0588V32.7882H85.0837H82.3614ZM96.0085 32.7882V30.0588V27.3294H98.7308H101.467V30.0588V32.7882H98.7308H96.0085ZM82.3614 29.3765V26.6471V23.9176H85.0837H87.8203V26.6471V29.3765H85.0837H82.3614ZM96.0085 29.3765V26.6471V23.9176H98.7308H101.467V26.6471V29.3765H98.7308H96.0085ZM82.3614 25.9647V23.2353V20.5059H85.0837H87.8203V23.2353V25.9647H85.0837H82.3614ZM96.0085 25.9647V23.2353V20.5059H98.7308H101.467V23.2353V25.9647H98.7308H96.0085ZM82.3614 22.5529V19.8235V17.0941H85.0837H87.8203V19.8235V22.5529H85.0837H82.3614ZM96.0085 22.5529V19.8235V17.0941H98.7308H101.467V19.8235V22.5529H98.7308H96.0085ZM82.3614 19.1412V16.4118V13.6824H85.0837H87.8203V16.4118V19.1412H85.0837H82.3614ZM96.0085 19.1412V16.4118V13.6824H98.7308H101.467V16.4118V19.1412H98.7308H96.0085ZM82.3614 15.7294V13V10.2706H85.0837H87.8203V13V15.7294H85.0837H82.3614ZM96.0085 15.7294V13V10.2706H98.7308H101.467V13V15.7294H98.7308H96.0085ZM82.3614 12.3176V9.58823V6.85882H85.0837H87.8203V9.58823V12.3176H85.0837H82.3614ZM96.0085 12.3176V9.58823V6.85882H98.7308H101.467V9.58823V12.3176H98.7308H96.0085ZM85.7732 8.90588V6.17647V3.44706H88.4955H91.232V6.17647V8.90588H88.4955H85.7732ZM89.185 8.90588V6.17647V3.44706H91.9073H94.6438V6.17647V8.90588H91.9073H89.185ZM92.5967 8.90588V6.17647V3.44706H95.319H98.0556V6.17647V8.90588H95.319H92.5967ZM89.185 29.3765V26.6471V23.9176H91.9073H94.6438V26.6471V29.3765H91.9073H89.185ZM89.185 25.9647V23.2353V20.5059H91.9073H94.6438V23.2353V25.9647H91.9073H89.185ZM89.185 22.5529V19.8235V17.0941H91.9073H94.6438V19.8235V22.5529H91.9073H89.185ZM116.516 43.0235V40.2941V37.5647H119.238H121.975V40.2941V43.0235H119.238H116.516ZM116.516 39.6118V36.8824V34.1529H119.238H121.975V36.8824V39.6118H119.238H116.516ZM116.516 36.2V33.4706V30.7412H119.238H121.975V33.4706V36.2H119.238H116.516ZM116.516 32.7882V30.0588V27.3294H119.238H121.975V30.0588V32.7882H119.238H116.516ZM116.516 29.3765V26.6471V23.9176H119.238H121.975V26.6471V29.3765H119.238H116.516ZM116.516 25.9647V23.2353V20.5059H119.238H121.975V23.2353V25.9647H119.238H116.516ZM116.516 22.5529V19.8235V17.0941H119.238H121.975V19.8235V22.5529H119.238H116.516ZM116.516 19.1412V16.4118V13.6824H119.238H121.975V16.4118V19.1412H119.238H116.516ZM119.927 19.1412V16.4118V13.6824H122.65H125.386V16.4118V19.1412H122.65H119.927ZM123.339 19.1412V16.4118V13.6824H126.062H128.798V16.4118V19.1412H126.062H123.339ZM126.751 19.1412V16.4118V13.6824H129.473H132.21V16.4118V19.1412H129.473H126.751ZM133.565 53.2588V50.5294V47.8H136.287H139.023V50.5294V53.2588H136.287H133.565ZM133.565 49.8471V47.1176V44.3882H136.287H139.023V47.1176V49.8471H136.287H133.565ZM133.565 46.4353V43.7059V40.9765H136.287H139.023V43.7059V46.4353H136.287H133.565ZM133.565 43.0235V40.2941V37.5647H136.287H139.023V40.2941V43.0235H136.287H133.565ZM140.388 43.0235V40.2941V37.5647H143.11H145.847V40.2941V43.0235H143.11H140.388ZM143.8 43.0235V40.2941V37.5647H146.522H149.259V40.2941V43.0235H146.522H143.8ZM133.565 39.6118V36.8824V34.1529H136.287H139.023V36.8824V39.6118H136.287H133.565ZM136.976 39.6118V36.8824V34.1529H139.699H142.435V36.8824V39.6118H139.699H136.976ZM147.212 39.6118V36.8824V34.1529H149.934H152.67V36.8824V39.6118H149.934H147.212ZM133.565 36.2V33.4706V30.7412H136.287H139.023V33.4706V36.2H136.287H133.565ZM147.212 36.2V33.4706V30.7412H149.934H152.67V33.4706V36.2H149.934H147.212ZM133.565 32.7882V30.0588V27.3294H136.287H139.023V30.0588V32.7882H136.287H133.565ZM147.212 32.7882V30.0588V27.3294H149.934H152.67V30.0588V32.7882H149.934H147.212ZM133.565 29.3765V26.6471V23.9176H136.287H139.023V26.6471V29.3765H136.287H133.565ZM147.212 29.3765V26.6471V23.9176H149.934H152.67V26.6471V29.3765H149.934H147.212ZM133.565 25.9647V23.2353V20.5059H136.287H139.023V23.2353V25.9647H136.287H133.565ZM147.212 25.9647V23.2353V20.5059H149.934H152.67V23.2353V25.9647H149.934H147.212ZM133.565 22.5529V19.8235V17.0941H136.287H139.023V19.8235V22.5529H136.287H133.565ZM136.976 22.5529V19.8235V17.0941H139.699H142.435V19.8235V22.5529H139.699H136.976ZM147.212 22.5529V19.8235V17.0941H149.934H152.67V19.8235V22.5529H149.934H147.212ZM133.565 19.1412V16.4118V13.6824H136.287H139.023V16.4118V19.1412H136.287H133.565ZM140.388 19.1412V16.4118V13.6824H143.11H145.847V16.4118V19.1412H143.11H140.388ZM143.8 19.1412V16.4118V13.6824H146.522H149.259V16.4118V19.1412H146.522H143.8ZM157.467 43.0235V40.2941V37.5647H160.189H162.926V40.2941V43.0235H160.189H157.467ZM171.114 43.0235V40.2941V37.5647H173.836H176.573V40.2941V43.0235H173.836H171.114ZM157.467 39.6118V36.8824V34.1529H160.189H162.926V36.8824V39.6118H160.189H157.467ZM171.114 39.6118V36.8824V34.1529H173.836H176.573V36.8824V39.6118H173.836H171.114ZM157.467 36.2V33.4706V30.7412H160.189H162.926V33.4706V36.2H160.189H157.467ZM171.114 36.2V33.4706V30.7412H173.836H176.573V33.4706V36.2H173.836H171.114ZM157.467 32.7882V30.0588V27.3294H160.189H162.926V30.0588V32.7882H160.189H157.467ZM171.114 32.7882V30.0588V27.3294H173.836H176.573V30.0588V32.7882H173.836H171.114ZM160.879 31.0824V28.3529V25.6235H163.601H166.337V28.3529V31.0824H163.601H160.879ZM164.29 31.0824V28.3529V25.6235H167.013H169.749V28.3529V31.0824H167.013H164.29ZM167.702 31.0824V28.3529V25.6235H170.425H173.161V28.3529V31.0824H170.425H167.702ZM157.467 29.3765V26.6471V23.9176H160.189H162.926V26.6471V29.3765H160.189H157.467ZM171.114 29.3765V26.6471V23.9176H173.836H176.573V26.6471V29.3765H173.836H171.114ZM157.467 25.9647V23.2353V20.5059H160.189H162.926V23.2353V25.9647H160.189H157.467ZM171.114 25.9647V23.2353V20.5059H173.836H176.573V23.2353V25.9647H173.836H171.114ZM157.467 22.5529V19.8235V17.0941H160.189H162.926V19.8235V22.5529H160.189H157.467ZM171.114 22.5529V19.8235V17.0941H173.836H176.573V19.8235V22.5529H173.836H171.114ZM157.467 19.1412V16.4118V13.6824H160.189H162.926V16.4118V19.1412H160.189H157.467ZM171.114 19.1412V16.4118V13.6824H173.836H176.573V16.4118V19.1412H173.836H171.114ZM184.798 53.2588V50.5294V47.8H187.527H190.256V50.5294V53.2588H187.527H184.798ZM186.504 49.8471V47.1176V44.3882H189.226H191.962V47.1176V49.8471H189.226H186.504ZM188.209 46.4353V43.7059V40.9765H190.932H193.668V43.7059V46.4353H190.932H188.209ZM189.915 43.0235V40.2941V37.5647H192.638H195.374V40.2941V43.0235H192.638H189.915ZM191.621 39.6118V36.8824V34.1529H194.344H197.08V36.8824V39.6118H194.344H191.621ZM193.327 36.2V33.4706V30.7412H196.049H198.786V33.4706V36.2H196.049H193.327ZM195.033 32.7882V30.0588V27.3294H197.755H200.492V30.0588V32.7882H197.755H195.033ZM196.739 29.3765V26.6471V23.9176H199.461H202.198V26.6471V29.3765H199.461H196.739ZM198.445 25.9647V23.2353V20.5059H201.167H203.904V23.2353V25.9647H201.167H198.445ZM200.151 22.5529V19.8235V17.0941H202.873H205.609V19.8235V22.5529H202.873H200.151ZM201.856 19.1412V16.4118V13.6824H204.579H207.315V16.4118V19.1412H204.579H201.856ZM203.562 15.7294V13V10.2706H206.285H209.021V13V15.7294H206.285H203.562ZM205.268 12.3176V9.58823V6.85882H207.991H210.727V9.58823V12.3176H207.991H205.268ZM206.974 8.90588V6.17647V3.44706H209.696H212.433V6.17647V8.90588H209.696H206.974ZM208.68 5.49411V2.7647V0.0352914H211.402H214.139V2.7647V5.49411H211.402H208.68ZM220.621 43.0235V40.2941V37.5647H223.344H226.08V40.2941V43.0235H223.344H220.621ZM241.092 43.0235V40.2941V37.5647H243.814H246.551V40.2941V43.0235H243.814H241.092ZM220.621 39.6118V36.8824V34.1529H223.344H226.08V36.8824V39.6118H223.344H220.621ZM241.092 39.6118V36.8824V34.1529H243.814H246.551V36.8824V39.6118H243.814H241.092ZM230.856 37.9059V35.1765V32.4471H233.579H236.315V35.1765V37.9059H233.579H230.856ZM220.621 36.2V33.4706V30.7412H223.344H226.08V33.4706V36.2H223.344H220.621ZM241.092 36.2V33.4706V30.7412H243.814H246.551V33.4706V36.2H243.814H241.092ZM229.151 34.4941V31.7647V29.0353H231.873H234.609V31.7647V34.4941H231.873H229.151ZM232.562 34.4941V31.7647V29.0353H235.285H238.021V31.7647V34.4941H235.285H232.562ZM220.621 32.7882V30.0588V27.3294H223.344H226.08V30.0588V32.7882H223.344H220.621ZM241.092 32.7882V30.0588V27.3294H243.814H246.551V30.0588V32.7882H243.814H241.092ZM227.445 31.0824V28.3529V25.6235H230.167H232.904V28.3529V31.0824H230.167H227.445ZM234.268 31.0824V28.3529V25.6235H236.991H239.727V28.3529V31.0824H236.991H234.268ZM220.621 29.3765V26.6471V23.9176H223.344H226.08V26.6471V29.3765H223.344H220.621ZM241.092 29.3765V26.6471V23.9176H243.814H246.551V26.6471V29.3765H243.814H241.092ZM225.739 27.6706V24.9412V22.2118H228.461H231.198V24.9412V27.6706H228.461H225.739ZM235.974 27.6706V24.9412V22.2118H238.696H241.433V24.9412V27.6706H238.696H235.974ZM220.621 25.9647V23.2353V20.5059H223.344H226.08V23.2353V25.9647H223.344H220.621ZM241.092 25.9647V23.2353V20.5059H243.814H246.551V23.2353V25.9647H243.814H241.092ZM224.033 24.2588V21.5294V18.8H226.755H229.492V21.5294V24.2588H226.755H224.033ZM237.68 24.2588V21.5294V18.8H240.402H243.139V21.5294V24.2588H240.402H237.68ZM220.621 22.5529V19.8235V17.0941H223.344H226.08V19.8235V22.5529H223.344H220.621ZM241.092 22.5529V19.8235V17.0941H243.814H246.551V19.8235V22.5529H243.814H241.092ZM220.621 19.1412V16.4118V13.6824H223.344H226.08V16.4118V19.1412H223.344H220.621ZM241.092 19.1412V16.4118V13.6824H243.814H246.551V16.4118V19.1412H243.814H241.092ZM251.32 43.0235V40.2941V37.5647H254.043H256.779V40.2941V43.0235H254.043H251.32ZM251.32 39.6118V36.8824V34.1529H254.043H256.779V36.8824V39.6118H254.043H251.32ZM251.32 36.2V33.4706V30.7412H254.043H256.779V33.4706V36.2H254.043H251.32ZM251.32 32.7882V30.0588V27.3294H254.043H256.779V30.0588V32.7882H254.043H251.32ZM251.32 29.3765V26.6471V23.9176H254.043H256.779V26.6471V29.3765H254.043H251.32ZM251.32 25.9647V23.2353V20.5059H254.043H256.779V23.2353V25.9647H254.043H251.32ZM251.32 22.5529V19.8235V17.0941H254.043H256.779V19.8235V22.5529H254.043H251.32ZM251.32 19.1412V16.4118V13.6824H254.043H256.779V16.4118V19.1412H254.043H251.32ZM251.32 12.3176V9.58823V6.85882H254.043H256.779V9.58823V12.3176H254.043H251.32ZM251.32 8.90588V6.17647V3.44706H254.043H256.779V6.17647V8.90588H254.043H251.32ZM264.984 43.0235V40.2941V37.5647H267.706H270.443V40.2941V43.0235H267.706H264.984ZM268.396 43.0235V40.2941V37.5647H271.118H273.855V40.2941V43.0235H271.118H268.396ZM271.808 43.0235V40.2941V37.5647H274.53H277.266V40.2941V43.0235H274.53H271.808ZM261.572 39.6118V36.8824V34.1529H264.295H267.031V36.8824V39.6118H264.295H261.572ZM275.219 39.6118V36.8824V34.1529H277.942H280.678V36.8824V39.6118H277.942H275.219ZM261.572 36.2V33.4706V30.7412H264.295H267.031V33.4706V36.2H264.295H261.572ZM261.572 32.7882V30.0588V27.3294H264.295H267.031V30.0588V32.7882H264.295H261.572ZM261.572 29.3765V26.6471V23.9176H264.295H267.031V26.6471V29.3765H264.295H261.572ZM261.572 25.9647V23.2353V20.5059H264.295H267.031V23.2353V25.9647H264.295H261.572ZM261.572 22.5529V19.8235V17.0941H264.295H267.031V19.8235V22.5529H264.295H261.572ZM275.219 22.5529V19.8235V17.0941H277.942H280.678V19.8235V22.5529H277.942H275.219ZM264.984 19.1412V16.4118V13.6824H267.706H270.443V16.4118V19.1412H267.706H264.984ZM268.396 19.1412V16.4118V13.6824H271.118H273.855V16.4118V19.1412H271.118H268.396ZM271.808 19.1412V16.4118V13.6824H274.53H277.266V16.4118V19.1412H274.53H271.808Z" fill="#AA80F1"/>
</svg>
