<svg width="260" height="80" viewBox="0 0 260 80" fill="none" xmlns="http://www.w3.org/2000/svg">
<rect x="33.4492" width="10.5616" height="21.1232" fill="#AA80F1"/>
<rect x="33.4492" y="52.2476" width="10.5616" height="21.1232" fill="#AA80F1"/>
<rect x="2" y="41.9863" width="10.5616" height="21.1232" transform="rotate(-90 2 41.9863)" fill="#AA80F1"/>
<rect x="22.9688" y="31.5801" width="10.5616" height="10.5616" transform="rotate(-90 22.9688 31.5801)" fill="#AA80F1"/>
<rect x="22.9688" y="52.2476" width="10.5616" height="10.5616" transform="rotate(-90 22.9688 52.2476)" fill="#AA80F1"/>
<rect x="43.8672" y="31.5801" width="10.5616" height="10.5616" transform="rotate(-90 43.8672 31.5801)" fill="#AA80F1"/>
<rect x="43.8672" y="52.2476" width="10.5616" height="10.5616" transform="rotate(-90 43.8672 52.2476)" fill="#AA80F1"/>
<rect x="54.3516" y="41.9863" width="10.5616" height="21.1232" transform="rotate(-90 54.3516 41.9863)" fill="#AA80F1"/>
<path d="M115.391 50.5415C111.342 50.5415 108.246 49.3824 106.104 47.0644C103.962 44.7169 102.891 41.5625 102.891 37.6012C102.891 34.9897 103.346 32.7303 104.255 30.823C105.194 28.8864 106.588 27.3899 108.437 26.3335C110.285 25.2478 112.603 24.705 115.391 24.705C119.47 24.705 122.565 25.8787 124.678 28.2262C126.791 30.5443 127.847 33.6693 127.847 37.6012C127.847 40.1541 127.378 42.4135 126.439 44.3795C125.5 46.3161 124.106 47.8273 122.257 48.913C120.409 49.9987 118.12 50.5415 115.391 50.5415ZM115.347 45.3918C116.961 45.3918 118.311 45.0544 119.396 44.3795C120.482 43.6752 121.289 42.7363 121.817 41.5625C122.345 40.3888 122.609 39.0684 122.609 37.6012C122.609 36.1341 122.345 34.799 121.817 33.5959C121.289 32.3929 120.482 31.4392 119.396 30.735C118.311 30.0307 116.961 29.6786 115.347 29.6786C112.97 29.6786 111.166 30.4269 109.933 31.9234C108.701 33.3905 108.085 35.2831 108.085 37.6012C108.085 39.039 108.349 40.3448 108.877 41.5185C109.405 42.6922 110.197 43.6312 111.254 44.3355C112.339 45.0397 113.704 45.3918 115.347 45.3918ZM138.773 50.3654C138.245 50.3654 137.511 50.2774 136.572 50.1014C135.663 49.9253 134.724 49.6025 133.755 49.133C132.816 48.6635 132.01 47.9887 131.335 47.1084C130.689 46.1987 130.366 45.025 130.366 43.5872H135.252C135.252 43.6166 135.267 43.7926 135.296 44.1154C135.325 44.4088 135.428 44.7463 135.604 45.1277C135.78 45.5092 136.103 45.8466 136.572 46.14C137.042 46.4041 137.731 46.5362 138.641 46.5362C139.697 46.5362 140.431 46.3454 140.842 45.964C141.253 45.5825 141.458 45.2011 141.458 44.8196C141.458 44.2914 141.194 43.866 140.666 43.5432C140.167 43.2204 139.507 42.9563 138.685 42.7509C137.863 42.5162 136.983 42.2668 136.044 42.0027C135.135 41.7093 134.269 41.3571 133.447 40.9463C132.655 40.5062 131.995 39.9193 131.467 39.1858C130.939 38.4522 130.689 37.5132 130.718 36.3688C130.718 34.6083 131.393 33.3025 132.743 32.4515C134.122 31.5713 135.868 31.1311 137.981 31.1311C139.565 31.1311 141.003 31.3952 142.294 31.9234C143.615 32.4222 144.656 33.1851 145.419 34.2121C146.182 35.2391 146.578 36.5302 146.608 38.0854H141.766C141.795 37.2931 141.619 36.6916 141.238 36.2808C140.886 35.8407 140.431 35.5472 139.873 35.4005C139.316 35.2245 138.758 35.1364 138.201 35.1364C137.233 35.1364 136.543 35.3125 136.132 35.6646C135.751 35.9874 135.56 36.3542 135.56 36.765C135.56 37.3812 135.824 37.8653 136.352 38.2174C136.88 38.5402 137.555 38.819 138.377 39.0537C139.228 39.2885 140.123 39.5379 141.062 39.802C142.001 40.066 142.881 40.4035 143.703 40.8143C144.524 41.2251 145.199 41.7826 145.727 42.4868C146.285 43.1617 146.564 44.0567 146.564 45.1717C146.564 46.903 145.859 48.2087 144.451 49.089C143.042 49.94 141.15 50.3654 138.773 50.3654ZM161.788 31.7913H166.982V32.5396L161.04 49.9253H153.69L147.704 32.5836V31.7913H152.853L157.387 45.5238H157.475L161.788 31.7913ZM173.138 29.7226C172.052 29.752 171.319 29.5026 170.937 28.9744C170.585 28.4169 170.409 27.7567 170.409 26.9937C170.409 26.2602 170.585 25.6293 170.937 25.1011C171.319 24.573 172.052 24.3089 173.138 24.3089C174.194 24.3089 174.899 24.573 175.251 25.1011C175.632 25.6293 175.823 26.2602 175.823 26.9937C175.823 27.786 175.632 28.4462 175.251 28.9744C174.899 29.4732 174.194 29.7226 173.138 29.7226ZM170.497 49.9253V31.7913H175.823V49.9253H170.497ZM178.449 29.6786V25.1451H197.815V29.6786H190.773V49.9253H185.447V29.6786H178.449ZM205.8 50.3654C203.658 50.3654 201.912 49.9253 200.562 49.045C199.242 48.1647 198.259 47.035 197.613 45.6559C196.997 44.2474 196.674 42.7656 196.645 41.2104C196.616 39.3031 196.968 37.6306 197.701 36.1928C198.435 34.755 199.477 33.6399 200.826 32.8477C202.205 32.0554 203.805 31.6593 205.624 31.6593C207.296 31.6593 208.793 32.0114 210.113 32.7156C211.434 33.4199 212.475 34.4322 213.238 35.7526C214.001 37.0437 214.397 38.5842 214.427 40.3742C214.427 40.4035 214.427 40.5649 214.427 40.8583C214.427 41.1517 214.427 41.3718 214.427 41.5185H201.707C201.707 43.015 202.059 44.1301 202.763 44.8636C203.496 45.5972 204.479 45.964 205.712 45.964C206.68 45.964 207.472 45.7292 208.089 45.2598C208.734 44.7903 209.116 44.1741 209.233 43.4112H214.383C214.207 45.3184 213.385 46.9617 211.918 48.3408C210.48 49.6905 208.441 50.3654 205.8 50.3654ZM201.795 39.2738H209.101C209.101 39.1564 209.072 38.9217 209.013 38.5696C208.954 38.2174 208.808 37.8507 208.573 37.4692C208.338 37.0584 207.971 36.7063 207.472 36.4128C207.003 36.1194 206.343 35.9727 205.492 35.9727C204.377 35.9727 203.555 36.2074 203.027 36.6769C202.528 37.1171 202.205 37.6159 202.059 38.1734C201.912 38.7016 201.824 39.0684 201.795 39.2738ZM226.741 50.3654C225.039 50.3654 223.469 50.028 222.031 49.3531C220.623 48.6489 219.493 47.6219 218.642 46.2721C217.821 44.893 217.41 43.1911 217.41 41.1664C217.439 39.2004 217.865 37.5132 218.686 36.1047C219.537 34.6669 220.652 33.5813 222.031 32.8477C223.44 32.0848 225.024 31.7033 226.785 31.7033C228.721 31.7033 230.35 32.0701 231.67 32.8037C232.991 33.5372 233.989 34.4762 234.663 35.6206C235.368 36.765 235.749 37.9387 235.808 39.1417H230.966C230.585 37.2051 229.264 36.2368 227.005 36.2368C225.538 36.2368 224.423 36.6623 223.66 37.5132C222.926 38.3348 222.559 39.4058 222.559 40.7263C222.559 42.2814 222.926 43.5139 223.66 44.4235C224.393 45.3331 225.523 45.7879 227.049 45.7879C227.988 45.7879 228.824 45.5385 229.558 45.0397C230.291 44.5115 230.761 43.7193 230.966 42.6629H235.808C235.749 43.9247 235.368 45.1571 234.663 46.3601C233.989 47.5338 232.976 48.5022 231.626 49.2651C230.306 49.9987 228.677 50.3654 226.741 50.3654ZM239.133 49.9253V25.1451H244.634V35.4005H244.722C244.722 35.3712 244.796 35.1658 244.943 34.7843C245.119 34.4029 245.412 33.9921 245.823 33.5519C246.234 33.0824 246.806 32.6716 247.539 32.3195C248.273 31.9674 249.212 31.7913 250.356 31.7913C251.618 31.7913 252.66 32.0261 253.481 32.4956C254.303 32.9357 254.948 33.5372 255.418 34.3002C255.887 35.0337 256.225 35.826 256.43 36.6769C256.636 37.5279 256.768 38.3495 256.826 39.1417C256.885 39.934 256.914 40.6089 256.914 41.1664V49.9253H251.721V41.1224C251.721 40.3301 251.647 39.5819 251.501 38.8777C251.354 38.1734 251.031 37.6012 250.532 37.1611C250.063 36.6916 249.3 36.4569 248.244 36.4569C247.187 36.4569 246.395 36.6916 245.867 37.1611C245.339 37.6306 245.001 38.2321 244.855 38.9657C244.708 39.6993 244.634 40.4475 244.634 41.2104V49.9253H239.133Z" fill="black"/>
<path d="M64.4653 72.1264H71.7754V73.3447H63.0439V60.6423H71.5498V61.9283H64.4653V66.3054H70.0832V67.5237H64.4653V72.1264ZM77.5855 73.5703C76.698 73.5703 75.9535 73.3673 75.3518 72.9612C74.7652 72.5551 74.3215 71.9985 74.0207 71.2916C73.7349 70.5696 73.592 69.7649 73.592 68.8774C73.592 67.5087 73.9304 66.3806 74.6073 65.4931C75.2841 64.6057 76.2844 64.162 77.608 64.162C78.2247 64.162 78.7361 64.2673 79.1422 64.4778C79.5634 64.6734 79.9018 64.914 80.1575 65.1998C80.4132 65.4856 80.6012 65.7488 80.7216 65.9895C80.8419 66.2302 80.9171 66.3881 80.9472 66.4633H80.9923L81.0149 60.6423H82.504V73.3447H81.2405L81.0149 71.3141H80.9698C80.9397 71.3893 80.8569 71.5473 80.7216 71.7879C80.5862 72.0286 80.3831 72.2843 80.1124 72.5551C79.8567 72.8258 79.5183 73.0665 79.0971 73.277C78.691 73.4726 78.1871 73.5703 77.5855 73.5703ZM77.9464 72.2843C78.8339 72.2843 79.5559 71.9835 80.1124 71.3818C80.684 70.7651 80.9698 69.9303 80.9698 68.8774C80.9698 67.8396 80.7065 67.0198 80.1801 66.4182C79.6536 65.8015 78.9467 65.4931 78.0593 65.4931C77.3523 65.4931 76.7732 65.6586 76.322 65.9895C75.8707 66.3054 75.5398 66.719 75.3292 67.2304C75.1187 67.7418 75.0134 68.2908 75.0134 68.8774C75.0134 69.449 75.1111 69.998 75.3067 70.5245C75.5022 71.0359 75.8106 71.457 76.2317 71.7879C76.6529 72.1189 77.2245 72.2843 77.9464 72.2843ZM87.8129 73.5703C87.0609 73.5703 86.4517 73.435 85.9854 73.1642C85.5342 72.8935 85.1882 72.5325 84.9476 72.0813C84.7069 71.615 84.5414 71.1111 84.4512 70.5696C84.376 70.0131 84.3384 69.4565 84.3384 68.9V64.162H85.7823V68.9226C85.7823 69.5242 85.8425 70.0808 85.9628 70.5922C86.0832 71.1036 86.3238 71.5097 86.6848 71.8105C87.0609 72.1113 87.6024 72.2617 88.3093 72.2617C88.9862 72.2617 89.5126 72.1113 89.8886 71.8105C90.2797 71.4946 90.5655 71.0885 90.746 70.5922C90.9265 70.0958 91.0318 69.5769 91.0619 69.0354V64.162H92.551V73.3447H91.31L91.0619 71.2916H91.0167C90.9415 71.5473 90.7836 71.8556 90.5429 72.2166C90.3023 72.5776 89.9563 72.8935 89.5051 73.1642C89.0689 73.435 88.5048 73.5703 87.8129 73.5703ZM98.6723 73.5703C97.815 73.5703 97.0479 73.3899 96.371 73.0289C95.6941 72.6679 95.1602 72.1414 94.7691 71.4495C94.378 70.7576 94.1825 69.9228 94.1825 68.9451C94.2126 67.9825 94.4156 67.1402 94.7917 66.4182C95.1827 65.6962 95.7167 65.1397 96.3936 64.7486C97.0704 64.3425 97.845 64.1394 98.7174 64.1394C99.5297 64.1394 100.237 64.2898 100.838 64.5907C101.44 64.8915 101.921 65.2976 102.282 65.809C102.643 66.3204 102.869 66.8845 102.959 67.5012H101.628C101.478 66.8393 101.147 66.3279 100.635 65.9669C100.139 65.6059 99.5146 65.4254 98.7626 65.4254C97.7999 65.4254 97.0328 65.7488 96.4612 66.3956C95.9047 67.0274 95.6189 67.8546 95.6039 68.8774C95.6039 69.9153 95.8746 70.7426 96.4161 71.3593C96.9726 71.9609 97.7473 72.2617 98.74 72.2617C99.462 72.2617 100.086 72.0813 100.613 71.7203C101.139 71.3593 101.478 70.8403 101.628 70.1635H102.959C102.869 70.7952 102.636 71.3668 102.26 71.8782C101.899 72.3896 101.41 72.8032 100.793 73.1191C100.192 73.4199 99.4846 73.5703 98.6723 73.5703ZM107.881 73.5478C107.039 73.5478 106.347 73.3447 105.805 72.9386C105.264 72.5175 104.858 71.9534 104.587 71.2465C104.331 70.5395 104.203 69.7348 104.203 68.8323C104.203 67.4485 104.504 66.3129 105.106 65.4254C105.723 64.523 106.648 64.0717 107.881 64.0717C108.513 64.0717 109.039 64.1845 109.46 64.4102C109.897 64.6207 110.242 64.884 110.498 65.1998C110.769 65.5157 110.964 65.8165 111.085 66.1023H111.107V64.162H112.596V73.3447H111.356L111.13 71.5623H111.085C110.949 71.8632 110.754 72.1715 110.498 72.4874C110.242 72.7882 109.897 73.0439 109.46 73.2545C109.039 73.45 108.513 73.5478 107.881 73.5478ZM108.445 72.2617C109.378 72.2617 110.047 71.9534 110.453 71.3367C110.874 70.72 111.085 69.8927 111.085 68.8549C111.085 67.7418 110.867 66.892 110.43 66.3054C110.009 65.7188 109.348 65.4254 108.445 65.4254C107.452 65.4254 106.738 65.7564 106.302 66.4182C105.88 67.065 105.67 67.8697 105.67 68.8323C105.67 69.8401 105.888 70.6674 106.324 71.3141C106.76 71.9459 107.467 72.2617 108.445 72.2617ZM116.584 73.3447C116.028 73.3447 115.637 73.1943 115.411 72.8935C115.201 72.5927 115.095 72.179 115.095 71.6526V65.245H113.651V64.162C114.133 64.162 114.486 64.1244 114.712 64.0492C114.952 63.9589 115.103 63.7483 115.163 63.4174C115.223 63.0865 115.253 62.545 115.253 61.793H116.494V64.162H118.615V65.245H116.494V72.1715H118.638V73.3447H116.584ZM121.669 63.1692C121.338 63.1692 121.113 63.0865 120.992 62.9211C120.887 62.7406 120.834 62.5149 120.834 62.2442C120.834 62.0186 120.887 61.823 120.992 61.6576C121.113 61.4771 121.338 61.3868 121.669 61.3868C122 61.3868 122.218 61.4771 122.324 61.6576C122.444 61.823 122.504 62.0186 122.504 62.2442C122.504 62.5149 122.444 62.7406 122.324 62.9211C122.218 63.0865 122 63.1692 121.669 63.1692ZM120.947 73.3447V64.162H122.391V73.3447H120.947ZM128.658 73.5703C127.184 73.5703 126.078 73.1341 125.341 72.2617C124.619 71.3743 124.258 70.2462 124.258 68.8774C124.243 67.4936 124.604 66.3655 125.341 65.4931C126.093 64.6057 127.199 64.1545 128.658 64.1394C130.102 64.1394 131.192 64.5756 131.929 65.448C132.682 66.3054 133.058 67.4485 133.058 68.8774C133.058 69.7649 132.9 70.5621 132.584 71.269C132.268 71.976 131.787 72.54 131.14 72.9612C130.493 73.3673 129.666 73.5703 128.658 73.5703ZM128.658 72.3069C129.44 72.3069 130.042 72.1339 130.463 71.7879C130.899 71.442 131.2 71.0058 131.365 70.4793C131.546 69.9379 131.636 69.3888 131.636 68.8323C131.636 68.2758 131.546 67.7268 131.365 67.1853C131.2 66.6438 130.899 66.2001 130.463 65.8541C130.042 65.5082 129.44 65.3352 128.658 65.3352C127.876 65.3352 127.267 65.5082 126.83 65.8541C126.409 66.2001 126.108 66.6438 125.928 67.1853C125.763 67.7268 125.68 68.2758 125.68 68.8323C125.68 69.3888 125.763 69.9379 125.928 70.4793C126.108 71.0058 126.409 71.442 126.83 71.7879C127.267 72.1339 127.876 72.3069 128.658 72.3069ZM134.818 73.3447V64.162H136.059L136.307 66.4407H136.352C136.367 66.3655 136.435 66.2076 136.555 65.9669C136.676 65.7263 136.856 65.4706 137.097 65.1998C137.353 64.914 137.684 64.6734 138.09 64.4778C138.496 64.2673 139.015 64.162 139.646 64.162C140.444 64.162 141.068 64.3049 141.519 64.5907C141.985 64.8764 142.331 65.26 142.557 65.7413C142.783 66.2076 142.925 66.7115 142.986 67.253C143.046 67.7945 143.076 68.3134 143.076 68.8098V73.3447H141.677V68.8098C141.677 67.817 141.504 67.0123 141.158 66.3956C140.827 65.7789 140.165 65.4706 139.173 65.4706C138.496 65.4706 137.939 65.636 137.503 65.9669C137.082 66.2828 136.774 66.7115 136.578 67.253C136.397 67.7794 136.307 68.3585 136.307 68.9903V73.3447H134.818ZM151.392 63.1692C151.061 63.1692 150.836 63.0865 150.715 62.9211C150.61 62.7406 150.557 62.5149 150.557 62.2442C150.557 62.0186 150.61 61.823 150.715 61.6576C150.836 61.4771 151.061 61.3868 151.392 61.3868C151.723 61.3868 151.941 61.4771 152.046 61.6576C152.167 61.823 152.227 62.0186 152.227 62.2442C152.227 62.5149 152.167 62.7406 152.046 62.9211C151.941 63.0865 151.723 63.1692 151.392 63.1692ZM150.67 73.3447V64.162H152.114V73.3447H150.67ZM154.229 73.3447V64.162H155.47L155.719 66.4407H155.764C155.779 66.3655 155.846 66.2076 155.967 65.9669C156.087 65.7263 156.268 65.4706 156.508 65.1998C156.764 64.914 157.095 64.6734 157.501 64.4778C157.907 64.2673 158.426 64.162 159.058 64.162C159.855 64.162 160.479 64.3049 160.93 64.5907C161.397 64.8764 161.743 65.26 161.968 65.7413C162.194 66.2076 162.337 66.7115 162.397 67.253C162.457 67.7945 162.487 68.3134 162.487 68.8098V73.3447H161.088V68.8098C161.088 67.817 160.915 67.0123 160.569 66.3956C160.238 65.7789 159.577 65.4706 158.584 65.4706C157.907 65.4706 157.35 65.636 156.914 65.9669C156.493 66.2828 156.185 66.7115 155.989 67.253C155.809 67.7794 155.719 68.3585 155.719 68.9903V73.3447H154.229ZM173.827 73.5703C172.819 73.5703 171.984 73.3447 171.322 72.8935C170.675 72.4272 170.194 71.8331 169.878 71.1111C169.577 70.3741 169.427 69.6145 169.427 68.8323C169.427 67.975 169.593 67.1928 169.923 66.4859C170.269 65.7639 170.766 65.1923 171.413 64.7711C172.074 64.35 172.864 64.1394 173.782 64.1394C174.955 64.1394 175.932 64.523 176.715 65.2901C177.497 66.0421 177.918 67.0574 177.978 68.336C177.993 68.3961 178.001 68.4864 178.001 68.6067C178.001 68.712 178.001 68.8098 178.001 68.9H170.826C170.826 69.9679 171.082 70.8103 171.593 71.427C172.119 72.0286 172.856 72.3294 173.804 72.3294C174.511 72.3294 175.113 72.1489 175.609 71.7879C176.12 71.427 176.436 70.9381 176.557 70.3214H177.978C177.828 71.254 177.384 72.0286 176.647 72.6453C175.91 73.262 174.97 73.5703 173.827 73.5703ZM170.871 68.1103H176.512C176.512 67.7945 176.421 67.4184 176.241 66.9822C176.075 66.546 175.79 66.17 175.383 65.8541C174.992 65.5232 174.451 65.3578 173.759 65.3578C173.127 65.3578 172.608 65.4931 172.202 65.7639C171.796 66.0346 171.488 66.3806 171.277 66.8017C171.067 67.2229 170.931 67.6591 170.871 68.1103ZM186.398 64.162H187.842V64.4778L184.367 73.3447H182.314L178.817 64.4778V64.162H180.261L183.329 72.1489H183.374L186.398 64.162ZM193.15 73.5703C192.142 73.5703 191.307 73.3447 190.645 72.8935C189.999 72.4272 189.517 71.8331 189.201 71.1111C188.901 70.3741 188.75 69.6145 188.75 68.8323C188.75 67.975 188.916 67.1928 189.247 66.4859C189.593 65.7639 190.089 65.1923 190.736 64.7711C191.398 64.35 192.187 64.1394 193.105 64.1394C194.278 64.1394 195.256 64.523 196.038 65.2901C196.82 66.0421 197.241 67.0574 197.301 68.336C197.316 68.3961 197.324 68.4864 197.324 68.6067C197.324 68.712 197.324 68.8098 197.324 68.9H190.149C190.149 69.9679 190.405 70.8103 190.916 71.427C191.443 72.0286 192.18 72.3294 193.127 72.3294C193.834 72.3294 194.436 72.1489 194.932 71.7879C195.444 71.427 195.759 70.9381 195.88 70.3214H197.301C197.151 71.254 196.707 72.0286 195.97 72.6453C195.233 73.262 194.293 73.5703 193.15 73.5703ZM190.194 68.1103H195.835C195.835 67.7945 195.744 67.4184 195.564 66.9822C195.399 66.546 195.113 66.17 194.707 65.8541C194.316 65.5232 193.774 65.3578 193.082 65.3578C192.45 65.3578 191.931 65.4931 191.525 65.7639C191.119 66.0346 190.811 66.3806 190.6 66.8017C190.39 67.2229 190.254 67.6591 190.194 68.1103ZM199.381 73.3447V64.162H200.689L200.847 66.5761C200.938 66.17 201.118 65.7789 201.389 65.4029C201.66 65.0269 202.028 64.726 202.494 64.5004C202.976 64.2597 203.57 64.1469 204.277 64.162H204.705V65.7639H204.254C203.292 65.7639 202.562 65.9068 202.066 66.1926C201.584 66.4633 201.253 66.8469 201.073 67.3432C200.908 67.8396 200.825 68.4112 200.825 69.0579V73.3447H199.381ZM205.633 77.451V76.2778H206.897C207.198 76.2778 207.446 76.1951 207.641 76.0296C207.837 75.8792 208.078 75.5032 208.363 74.9015L209.334 72.8032L205.724 64.162H207.235L210.055 71.269L213.056 64.162H214.59L209.672 75.1046C209.371 75.7814 209.1 76.2853 208.86 76.6162C208.634 76.9622 208.378 77.1878 208.093 77.2931C207.807 77.3984 207.446 77.451 207.01 77.451H205.633ZM226.222 73.5703C225.635 73.5703 225.131 73.4726 224.71 73.277C224.304 73.0665 223.973 72.8258 223.718 72.5551C223.462 72.2843 223.266 72.0286 223.131 71.7879C223.011 71.5473 222.935 71.3893 222.905 71.3141H222.86V77.1351H221.371V64.162H222.612L222.86 66.4633H222.905C222.935 66.3881 223.011 66.2302 223.131 65.9895C223.251 65.7488 223.432 65.4856 223.672 65.1998C223.928 64.914 224.259 64.6734 224.665 64.4778C225.086 64.2673 225.605 64.162 226.222 64.162C227.109 64.162 227.846 64.365 228.433 64.7711C229.035 65.1773 229.486 65.7413 229.787 66.4633C230.103 67.1702 230.26 67.9825 230.26 68.9C230.26 70.2688 229.915 71.3893 229.223 72.2617C228.531 73.1341 227.53 73.5703 226.222 73.5703ZM225.929 72.2843C226.636 72.2843 227.2 72.1189 227.621 71.7879C228.057 71.457 228.365 71.0359 228.546 70.5245C228.741 69.998 228.839 69.449 228.839 68.8774C228.839 68.2908 228.734 67.7418 228.523 67.2304C228.313 66.719 227.982 66.3054 227.53 65.9895C227.094 65.6586 226.515 65.4931 225.793 65.4931C224.921 65.4931 224.221 65.8015 223.695 66.4182C223.168 67.0198 222.905 67.8396 222.905 68.8774C222.905 69.9303 223.184 70.7651 223.74 71.3818C224.297 71.9835 225.026 72.2843 225.929 72.2843ZM232.959 63.1692C232.628 63.1692 232.403 63.0865 232.282 62.9211C232.177 62.7406 232.124 62.5149 232.124 62.2442C232.124 62.0186 232.177 61.823 232.282 61.6576C232.403 61.4771 232.628 61.3868 232.959 61.3868C233.29 61.3868 233.508 61.4771 233.613 61.6576C233.734 61.823 233.794 62.0186 233.794 62.2442C233.794 62.5149 233.734 62.7406 233.613 62.9211C233.508 63.0865 233.29 63.1692 232.959 63.1692ZM232.237 73.3447V64.162H233.681V73.3447H232.237ZM235.165 73.3447L238.526 68.6067L235.323 64.162H236.97L239.452 67.6817L241.933 64.162H243.58L240.377 68.6067L243.783 73.3447H242.114L239.452 69.5543L236.789 73.3447H235.165ZM249.401 73.5703C248.393 73.5703 247.558 73.3447 246.896 72.8935C246.25 72.4272 245.768 71.8331 245.452 71.1111C245.152 70.3741 245.001 69.6145 245.001 68.8323C245.001 67.975 245.167 67.1928 245.497 66.4859C245.843 65.7639 246.34 65.1923 246.987 64.7711C247.648 64.35 248.438 64.1394 249.356 64.1394C250.529 64.1394 251.506 64.523 252.289 65.2901C253.071 66.0421 253.492 67.0574 253.552 68.336C253.567 68.3961 253.575 68.4864 253.575 68.6067C253.575 68.712 253.575 68.8098 253.575 68.9H246.4C246.4 69.9679 246.656 70.8103 247.167 71.427C247.693 72.0286 248.431 72.3294 249.378 72.3294C250.085 72.3294 250.687 72.1489 251.183 71.7879C251.694 71.427 252.01 70.9381 252.131 70.3214H253.552C253.402 71.254 252.958 72.0286 252.221 72.6453C251.484 73.262 250.544 73.5703 249.401 73.5703ZM246.445 68.1103H252.086C252.086 67.7945 251.995 67.4184 251.815 66.9822C251.649 66.546 251.364 66.17 250.957 65.8541C250.566 65.5232 250.025 65.3578 249.333 65.3578C248.701 65.3578 248.182 65.4931 247.776 65.7639C247.37 66.0346 247.062 66.3806 246.851 66.8017C246.641 67.2229 246.505 67.6591 246.445 68.1103ZM255.722 73.3447V60.6423H257.143V73.3447H255.722Z" fill="black"/>
</svg>
