<svg width="293" height="248" viewBox="0 0 293 248" fill="none" xmlns="http://www.w3.org/2000/svg">
<path d="M168.818 87.9784L169.611 87.3699L168.818 87.9784ZM119.65 147.887L120.101 146.995L119.65 147.887ZM123.09 58.7917L122.369 58.0989L123.09 58.7917ZM292.402 26.2663C292.409 26.8185 291.966 27.2714 291.414 27.2777L282.414 27.3814C281.862 27.3877 281.409 26.9452 281.403 26.393C281.397 25.8407 281.839 25.3879 282.391 25.3815L290.391 25.2894L290.299 17.2899C290.292 16.7377 290.735 16.2848 291.287 16.2784C291.839 16.2721 292.292 16.7146 292.299 17.2669L292.402 26.2663ZM1.43374 240.065C1.51744 239.519 2.02784 239.144 2.57374 239.228C3.11965 239.312 3.49434 239.822 3.41064 240.368L1.43374 240.065ZM5.75636 226.61C5.65417 227.153 5.13135 227.51 4.5886 227.408C4.04585 227.306 3.68871 226.783 3.79089 226.24L5.75636 226.61ZM6.63676 212.508C6.75897 211.969 7.29466 211.631 7.83325 211.754C8.37185 211.876 8.70939 212.412 8.58717 212.95L6.63676 212.508ZM11.9461 199.407C11.8022 199.94 11.2532 200.255 10.7201 200.111C10.1869 199.967 9.87133 199.418 10.0153 198.885L11.9461 199.407ZM13.975 185.403C14.1426 184.877 14.7051 184.586 15.2313 184.754C15.7576 184.921 16.0483 185.484 15.8807 186.01L13.975 185.403ZM20.4416 172.806C20.2483 173.323 19.6722 173.586 19.1548 173.393C18.6375 173.199 18.3748 172.623 18.5682 172.106L20.4416 172.806ZM23.8494 159.054C24.0707 158.548 24.6603 158.318 25.1663 158.539C25.6723 158.76 25.9031 159.35 25.6818 159.856L23.8494 159.054ZM31.6537 147.241C31.4021 147.732 30.7996 147.927 30.3079 147.675C29.8163 147.424 29.6218 146.821 29.8734 146.329L31.6537 147.241ZM36.6919 134.033C36.9763 133.559 37.5906 133.406 38.064 133.69C38.5375 133.974 38.6909 134.589 38.4066 135.062L36.6919 134.033ZM45.991 123.431C45.6717 123.882 45.0476 123.988 44.5969 123.669C44.1463 123.35 44.0398 122.726 44.359 122.275L45.991 123.431ZM53.0101 111.089C53.3666 110.667 53.9976 110.614 54.4193 110.971C54.8411 111.327 54.8939 111.958 54.5374 112.38L53.0101 111.089ZM63.9726 102.224C63.5774 102.61 62.9443 102.602 62.5585 102.207C62.1727 101.812 62.1802 101.179 62.5754 100.793L63.9726 102.224ZM73.2111 91.4577C73.6457 91.1169 74.2743 91.1928 74.6151 91.6273C74.956 92.0619 74.8801 92.6905 74.4455 93.0314L73.2111 91.4577ZM85.855 85.1337C85.3823 85.4192 84.7676 85.2674 84.4821 84.7946C84.1966 84.3219 84.3484 83.7072 84.8211 83.4217L85.855 85.1337ZM97.3821 76.9498C97.8896 76.732 98.4776 76.9669 98.6954 77.4744C98.9132 77.9819 98.6783 78.5699 98.1708 78.7877L97.3821 76.9498ZM111.272 74.3209C110.737 74.4566 110.193 74.1325 110.057 73.5972C109.922 73.0618 110.246 72.5178 110.781 72.3822L111.272 74.3209ZM124.777 70.126C125.328 70.0891 125.804 70.5059 125.841 71.057C125.878 71.608 125.461 72.0847 124.91 72.1216L124.777 70.126ZM138.651 72.6253C138.104 72.5446 137.727 72.0362 137.808 71.4899C137.888 70.9435 138.397 70.566 138.943 70.6468L138.651 72.6253ZM152.669 74.484C153.176 74.703 153.409 75.2915 153.19 75.7985C152.971 76.3056 152.383 76.5391 151.876 76.3202L152.669 74.484ZM163.395 83.5988C162.984 83.2301 162.95 82.5979 163.318 82.1867C163.687 81.7755 164.319 81.7411 164.731 82.1099L163.395 83.5988ZM173.51 93.1199C173.791 93.5953 173.634 94.2086 173.159 94.4897C172.683 94.7708 172.07 94.6133 171.789 94.1379L173.51 93.1199ZM176.779 106.371C176.656 105.833 176.993 105.297 177.532 105.174C178.07 105.052 178.606 105.389 178.729 105.927L176.779 106.371ZM179.19 119.825C179.099 120.37 178.584 120.738 178.039 120.647C177.494 120.556 177.126 120.041 177.217 119.496L179.19 119.825ZM172.554 131.772C172.844 131.302 173.461 131.157 173.93 131.448C174.4 131.738 174.545 132.355 174.255 132.824L172.554 131.772ZM165.024 143.183C164.593 143.529 163.964 143.461 163.618 143.03C163.272 142.6 163.34 141.97 163.771 141.624L165.024 143.183ZM152.288 148.219C152.803 148.021 153.382 148.277 153.58 148.793C153.779 149.308 153.522 149.887 153.007 150.085L152.288 148.219ZM139.454 152.996C138.902 153.025 138.432 152.601 138.403 152.049C138.375 151.498 138.799 151.027 139.35 150.999L139.454 152.996ZM126.246 149.45C126.775 149.608 127.076 150.166 126.917 150.695C126.758 151.224 126.201 151.524 125.672 151.365L126.246 149.45ZM113.645 145.332C113.205 144.999 113.117 144.371 113.45 143.931C113.783 143.49 114.411 143.403 114.851 143.736L113.645 145.332ZM106.751 134.572C107.026 135.05 106.862 135.662 106.383 135.938C105.905 136.213 105.293 136.049 105.018 135.57L106.751 134.572ZM100.651 123.331C100.552 122.788 100.912 122.267 101.456 122.168C101.999 122.069 102.52 122.43 102.619 122.973L100.651 123.331ZM101.969 110.542C101.935 111.093 101.462 111.513 100.91 111.48C100.359 111.446 99.9391 110.972 99.9724 110.421L101.969 110.542ZM101.902 97.6896C102.029 97.1522 102.568 96.8197 103.106 96.9469C103.643 97.0741 103.975 97.6129 103.848 98.1504L101.902 97.6896ZM107.604 86.1542C107.404 86.6689 106.824 86.9239 106.309 86.7237C105.795 86.5234 105.54 85.9439 105.74 85.4291L107.604 86.1542ZM111.165 73.7866C111.431 73.3025 112.039 73.1255 112.523 73.3913C113.007 73.6571 113.184 74.265 112.919 74.7492L111.165 73.7866ZM119.753 64.2199C119.415 64.6571 118.787 64.7378 118.35 64.4003C117.913 64.0628 117.832 63.4348 118.17 62.9976L119.753 64.2199ZM127.216 53.1896C127.609 52.8018 128.242 52.8063 128.63 53.1995C129.018 53.5928 129.013 54.2259 128.62 54.6137L127.216 53.1896ZM138.628 45.2698C138.214 45.6354 137.582 45.5962 137.217 45.1822C136.851 44.7683 136.89 44.1363 137.304 43.7707L138.628 45.2698ZM147.911 34.9308C148.346 34.5898 148.974 34.6656 149.315 35.1001C149.656 35.5346 149.58 36.1632 149.146 36.5041L147.911 34.9308ZM160.169 28.3939C159.714 28.7067 159.092 28.5914 158.779 28.1362C158.466 27.681 158.581 27.0585 159.036 26.7457L160.169 28.3939ZM170.687 19.3203C171.163 19.0405 171.776 19.1997 172.056 19.6759C172.336 20.1521 172.176 20.7649 171.7 21.0447L170.687 19.3203ZM183.751 14.5929C183.254 14.833 182.656 14.6245 182.416 14.1272C182.175 13.6299 182.384 13.032 182.881 12.7919L183.751 14.5929ZM195.611 7.35591C196.129 7.16406 196.704 7.42839 196.896 7.94629C197.088 8.46419 196.823 9.03954 196.305 9.23137L195.611 7.35591ZM209.322 5.20282C208.786 5.33534 208.244 5.00815 208.111 4.472C207.979 3.93585 208.306 3.39379 208.842 3.26125L209.322 5.20282ZM222.498 0.809327C223.047 0.749009 223.541 1.14514 223.601 1.69412C223.661 2.2431 223.265 2.73705 222.716 2.79736L222.498 0.809327ZM236.289 2.33345C235.737 2.3089 235.31 1.84172 235.334 1.28999C235.359 0.738252 235.826 0.310868 236.378 0.33542L236.289 2.33345ZM250.163 2.11868C250.702 2.23641 251.044 2.76927 250.927 3.30885C250.809 3.84845 250.276 4.19045 249.736 4.07271L250.163 2.11868ZM262.668 8.11331C262.158 7.90302 261.914 7.31854 262.124 6.80786C262.335 6.29718 262.919 6.05368 263.43 6.26399L262.668 8.11331ZM275.792 12.6329C276.26 12.9255 276.402 13.5425 276.11 14.0108C275.817 14.4792 275.2 14.6217 274.732 14.329L275.792 12.6329ZM285.681 22.3953C285.262 22.0363 285.212 21.405 285.571 20.9854C285.931 20.5657 286.562 20.5166 286.981 20.8756L285.681 22.3953ZM0.411571 247.115C0.736841 244.737 1.0777 242.387 1.43374 240.065L3.41064 240.368C3.05625 242.68 2.71694 245.019 2.39312 247.386L0.411571 247.115ZM3.79089 226.24C4.67576 221.54 5.62565 216.964 6.63676 212.508L8.58717 212.95C7.58164 217.382 6.63675 221.934 5.75636 226.61L3.79089 226.24ZM10.0153 198.885C11.2673 194.248 12.5889 189.755 13.975 185.403L15.8807 186.01C14.5038 190.333 13.1906 194.797 11.9461 199.407L10.0153 198.885ZM18.5682 172.106C20.2575 167.585 22.0203 163.236 23.8494 159.054L25.6818 159.856C23.8676 164.004 22.1185 168.319 20.4416 172.806L18.5682 172.106ZM29.8734 146.329C32.0754 142.027 34.3516 137.93 36.6919 134.033L38.4066 135.062C36.09 138.92 33.8357 142.978 31.6537 147.241L29.8734 146.329ZM44.359 122.275C47.1777 118.296 50.0663 114.57 53.0101 111.089L54.5374 112.38C51.6313 115.817 48.7775 119.498 45.991 123.431L44.359 122.275ZM62.5754 100.793C66.0765 97.3748 69.6293 94.2673 73.2111 91.4577L74.4455 93.0314C70.9219 95.7953 67.4233 98.8551 63.9726 102.224L62.5754 100.793ZM84.8211 83.4217C89.0142 80.8895 93.2131 78.7389 97.3821 76.9498L98.1708 78.7877C94.0883 80.5397 89.9713 82.6479 85.855 85.1337L84.8211 83.4217ZM110.781 72.3822C115.561 71.1708 120.245 70.4296 124.777 70.126L124.91 72.1216C120.504 72.4168 115.939 73.1382 111.272 74.3209L110.781 72.3822ZM138.943 70.6468C143.858 71.3731 148.467 72.67 152.669 74.484L151.876 76.3202C147.845 74.5795 143.405 73.3278 138.651 72.6253L138.943 70.6468ZM164.731 82.1099C166.528 83.7221 168.161 85.4788 169.611 87.3699L168.024 88.5868C166.652 86.7967 165.103 85.1307 163.395 83.5988L164.731 82.1099ZM169.611 87.3699C171.084 89.2904 172.38 91.209 173.51 93.1199L171.789 94.1379C170.701 92.2991 169.45 90.4468 168.024 88.5868L169.611 87.3699ZM178.729 105.927C179.828 110.752 179.923 115.421 179.19 119.825L177.217 119.496C177.907 115.351 177.82 110.944 176.779 106.371L178.729 105.927ZM174.255 132.824C171.819 136.76 168.669 140.254 165.024 143.183L163.771 141.624C167.25 138.828 170.246 135.502 172.554 131.772L174.255 132.824ZM153.007 150.085C148.699 151.744 144.115 152.755 139.454 152.996L139.35 150.999C143.792 150.769 148.169 149.805 152.288 148.219L153.007 150.085ZM125.672 151.365C123.478 150.707 121.314 149.849 119.198 148.779L120.101 146.995C122.11 148.011 124.165 148.825 126.246 149.45L125.672 151.365ZM119.198 148.779C117.172 147.754 115.324 146.6 113.645 145.332L114.851 143.736C116.431 144.93 118.177 146.021 120.101 146.995L119.198 148.779ZM105.018 135.57C102.858 131.822 101.443 127.687 100.651 123.331L102.619 122.973C103.376 127.137 104.721 131.049 106.751 134.572L105.018 135.57ZM99.9724 110.421C100.227 106.209 100.899 101.927 101.902 97.6896L103.848 98.1504C102.868 102.29 102.216 106.458 101.969 110.542L99.9724 110.421ZM105.74 85.4291C107.323 81.3603 109.159 77.4412 111.165 73.7866L112.919 74.7492C110.954 78.3273 109.155 82.1671 107.604 86.1542L105.74 85.4291ZM118.17 62.9976C119.544 61.2182 120.95 59.5765 122.369 58.0989L123.812 59.4846C122.447 60.9048 121.088 62.4911 119.753 64.2199L118.17 62.9976ZM122.369 58.0989C123.953 56.4507 125.569 54.8131 127.216 53.1896L128.62 54.6137C126.986 56.2245 125.383 57.8493 123.812 59.4846L122.369 58.0989ZM137.304 43.7707C140.742 40.7342 144.283 37.7785 147.911 34.9308L149.146 36.5041C145.549 39.327 142.038 42.2578 138.628 45.2698L137.304 43.7707ZM159.036 26.7457C162.849 24.1252 166.738 21.6409 170.687 19.3203L171.7 21.0447C167.794 23.34 163.945 25.7987 160.169 28.3939L159.036 26.7457ZM182.881 12.7919C187.079 10.7648 191.328 8.94251 195.611 7.35591L196.305 9.23137C192.086 10.7944 187.896 12.5914 183.751 14.5929L182.881 12.7919ZM208.842 3.26125C213.379 2.13973 217.937 1.31044 222.498 0.809327L222.716 2.79736C218.25 3.28813 213.779 4.10101 209.322 5.20282L208.842 3.26125ZM236.378 0.33542C240.997 0.540971 245.599 1.12296 250.163 2.11868L249.736 4.07271C245.288 3.10217 240.799 2.53415 236.289 2.33345L236.378 0.33542ZM263.43 6.26399C267.609 7.98497 271.735 10.0983 275.792 12.6329L274.732 14.329C270.769 11.8529 266.742 9.79108 262.668 8.11331L263.43 6.26399ZM286.981 20.8756C288.705 22.3504 290.412 23.9119 292.101 25.5626L290.703 26.993C289.045 25.3724 287.371 23.8407 285.681 22.3953L286.981 20.8756Z" fill="white"/>
</svg>
